<svg width="224" height="130" fill="none" xmlns="http://www.w3.org/2000/svg"><g clip-path="url(#clip0)"><path d="M13.4549 121.797c-.2684.005-.528.097-.7408.26-.6314-1.668-1.6088-2.741-2.7069-2.741-1.09808 0-2.0755 1.073-2.70688 2.741-.21275-.163-.47236-.255-.74081-.26-1.24752 0-2.25884 2.11-2.25884 4.712H15.7138c0-2.602-1.0114-4.712-2.2589-4.712z" fill="#00BAFC"/><path d="M58.8028 126.246H.93692v.526H58.8028v-.526z" fill="#3F3D56"/><path d="M219.142 110.743c-.268.005-.528.097-.741.26-.631-1.668-1.609-2.74-2.707-2.74-1.098 0-2.075 1.072-2.707 2.74-.212-.163-.472-.255-.74-.26-1.248 0-2.259 2.11-2.259 4.712h11.413c0-2.602-1.012-4.712-2.259-4.712z" fill="#00BAFC"/><path d="M194.585 24.1599h-55.102v-1.1357h-24.985v1.1357H59.1697c-.4894 0-.9741.0964-1.4263.2837-.4522.1873-.8631.4619-1.2092.808-.3461.3461-.6206.7569-.8079 1.2091-.1874.4522-.2838.9369-.2838 1.4264v75.4509c0 .988.3927 1.936 1.0917 2.635.699.699 1.647 1.092 2.6355 1.092H194.585c.988 0 1.936-.393 2.635-1.092.699-.699 1.092-1.647 1.092-2.635V27.8871c0-.4895-.096-.9742-.284-1.4264-.187-.4522-.461-.863-.808-1.2091-.346-.3461-.757-.6207-1.209-.808-.452-.1873-.937-.2837-1.426-.2837z" fill="#3F3D56"/><path opacity=".2" d="M193.314 30.7458H60.4407v74.9572H193.314V30.7458z" fill="#000"/><path d="M126.764 28.7026c.752 0 1.363-.6101 1.363-1.3628s-.611-1.3628-1.363-1.3628c-.753 0-1.363.6101-1.363 1.3628s.61 1.3628 1.363 1.3628z" fill="#00BAFC"/><path d="M223.063 114.929H30.2645v.526H223.063v-.526z" fill="#3F3D56"/><path d="M145.032 58.7512v-5.5457c0-.8935-.176-1.7783-.518-2.6038-.342-.8255-.843-1.5756-1.475-2.2075-.632-.6318-1.382-1.133-2.208-1.4749-.825-.342-1.71-.518-2.604-.518h-5.545c0-.7486-2.406-1.3619-5.463-1.42v-6.6877c.959-.1208 1.836-.6026 2.453-1.3472.616-.7447.925-1.6962.865-2.6609-.061-.9647-.487-1.8701-1.191-2.5319-.705-.6617-1.635-1.0301-2.602-1.0301-.966 0-1.897.3684-2.601 1.0301-.705.6618-1.131 1.5672-1.191 2.5319-.061.9647.249 1.9162.865 2.6609.616.7446 1.493 1.2264 2.452 1.3472v6.6877c-3.056.0581-5.462.6714-5.462 1.42h-6.496c-.893 0-1.778.176-2.604.518-.825.3419-1.575.8431-2.207 1.4749-.632.6319-1.133 1.382-1.475 2.2075-.342.8255-.518 1.7103-.518 2.6038v5.5457c-.787 0-1.425 2.6582-1.425 5.9374 0 3.2792.638 5.9374 1.425 5.9374v6.4956c0 .8936.176 1.7784.518 2.6039.342.8255.843 1.5756 1.475 2.2074.632.6319 1.382 1.1331 2.207 1.475.826.342 1.711.518 2.604.518h23.916c.894 0 1.779-.176 2.604-.518.826-.3419 1.576-.8431 2.208-1.475.632-.6318 1.133-1.3819 1.475-2.2074.342-.8255.518-1.7103.518-2.6039V70.626c.787 0 1.425-2.6583 1.425-5.9374 0-3.2792-.638-5.9374-1.425-5.9374z" fill="#00BAFC"/><path d="M115.674 48.5388h21.191c1.599 0 3.133.6352 4.263 1.7659 1.131 1.1306 1.766 2.6641 1.766 4.2631v21.1915c0 1.599-.635 3.1325-1.766 4.2632-1.13 1.1307-2.664 1.7659-4.263 1.7659h-21.191c-1.599 0-3.133-.6352-4.264-1.7659-1.13-1.1307-1.765-2.6642-1.765-4.2632V54.5679c0-1.5991.635-3.1326 1.765-4.2632 1.131-1.1307 2.665-1.7659 4.264-1.7659z" fill="#3F3D56"/><path d="M118.669 64.3324c-1.133-.0013-2.22-.4521-3.021-1.2536-.801-.8014-1.252-1.888-1.254-3.0214 0-.063.026-.1234.07-.1679.045-.0446.105-.0696.168-.0696.063 0 .123.025.168.0696.044.0445.069.1049.069.1679 0 1.0078.401 1.9744 1.113 2.687.713.7126 1.68 1.113 2.687 1.113 1.008 0 1.975-.4004 2.687-1.113.713-.7126 1.113-1.6792 1.113-2.687 0-.063.025-.1234.07-.1679.044-.0446.105-.0696.168-.0696.063 0 .123.025.168.0696.044.0445.069.1049.069.1679-.001 1.1334-.452 2.22-1.253 3.0214-.802.8015-1.888 1.2523-3.022 1.2536zM126.269 72.4073c-.881-.001-1.726-.3517-2.35-.975-.623-.6233-.974-1.4685-.975-2.35 0-.063.025-.1234.07-.1679.044-.0446.105-.0696.168-.0696.063 0 .123.025.168.0696.044.0445.069.1049.069.1679 0 .7559.301 1.4808.835 2.0152.535.5345 1.259.8348 2.015.8348.756 0 1.481-.3003 2.016-.8348.534-.5344.834-1.2593.834-2.0152 0-.063.025-.1234.07-.1679.044-.0446.105-.0696.168-.0696.063 0 .123.025.168.0696.044.0445.069.1049.069.1679-.001.8815-.351 1.7267-.975 2.35-.623.6233-1.468.974-2.35.975zM133.869 64.3324c-1.133-.0013-2.22-.4521-3.021-1.2536-.802-.8014-1.252-1.888-1.254-3.0214 0-.063.025-.1234.07-.1679.044-.0446.105-.0696.168-.0696.063 0 .123.025.168.0696.044.0445.069.1049.069.1679 0 1.0078.401 1.9744 1.113 2.687.713.7126 1.679 1.113 2.687 1.113 1.008 0 1.975-.4004 2.687-1.113.713-.7126 1.113-1.6792 1.113-2.687 0-.063.025-.1234.07-.1679.044-.0446.105-.0696.168-.0696.063 0 .123.025.168.0696.044.0445.069.1049.069.1679-.001 1.1334-.452 2.22-1.253 3.0214-.802.8015-1.888 1.2523-3.022 1.2536z" fill="#00BAFC"/><path d="M118.669 62.4324c1.181 0 2.138-.957 2.138-2.1375 0-1.1805-.957-2.1375-2.138-2.1375-1.18 0-2.137.957-2.137 2.1375 0 1.1805.957 2.1375 2.137 2.1375zM133.869 62.4324c1.181 0 2.138-.957 2.138-2.1375 0-1.1805-.957-2.1375-2.138-2.1375-1.18 0-2.137.957-2.137 2.1375 0 1.1805.957 2.1375 2.137 2.1375zM126.269 71.2198c1.05 0 1.9-.4254 1.9-.95 0-.5247-.85-.95-1.9-.95-1.049 0-1.9.4253-1.9.95 0 .5246.851.95 1.9.95z" fill="#00BAFC"/><path d="M202.043 104.339h-12.968v-.934c0-.024-.005-.048-.014-.071-.009-.022-.023-.043-.04-.06s-.038-.031-.06-.04c-.023-.009-.047-.014-.071-.014h-4.446c-.025 0-.049.005-.071.014-.023.009-.043.023-.06.04s-.031.038-.04.06c-.01.023-.014.047-.014.071v.934h-2.779v-.934c0-.024-.005-.048-.014-.071-.01-.022-.023-.043-.041-.06-.017-.017-.037-.031-.06-.04-.022-.009-.046-.014-.071-.014h-4.446c-.024 0-.048.005-.07.014-.023.009-.043.023-.061.04-.017.017-.03.038-.04.06-.009.023-.014.047-.014.071v.934h-2.779v-.934c0-.024-.004-.048-.014-.071-.009-.022-.023-.043-.04-.06s-.038-.031-.06-.04c-.023-.009-.047-.014-.071-.014h-4.446c-.024 0-.048.005-.071.014-.022.009-.043.023-.06.04s-.031.038-.04.06c-.009.023-.014.047-.014.071v.934h-2.779v-.934c0-.024-.005-.048-.014-.071-.009-.022-.023-.043-.04-.06-.018-.017-.038-.031-.06-.04-.023-.009-.047-.014-.071-.014h-4.446c-.025 0-.049.005-.071.014-.023.009-.043.023-.06.04-.018.017-.031.038-.041.06-.009.023-.014.047-.014.071v.934h-2.779v-.934c0-.024-.004-.048-.014-.071-.009-.022-.023-.043-.04-.06s-.037-.031-.06-.04c-.022-.009-.046-.014-.071-.014h-4.446c-.024 0-.048.005-.071.014-.022.009-.043.023-.06.04s-.031.038-.04.06c-.009.023-.014.047-.014.071v.934h-2.779v-.934c0-.024-.005-.048-.014-.071-.009-.022-.023-.043-.04-.06s-.038-.031-.06-.04c-.023-.009-.047-.014-.071-.014h-4.446c-.025 0-.049.005-.071.014-.023.009-.043.023-.06.04s-.031.038-.04.06c-.01.023-.015.047-.015.071v.934h-2.778v-.934c0-.024-.005-.048-.014-.071-.01-.022-.023-.043-.041-.06-.017-.017-.037-.031-.06-.04-.022-.009-.046-.014-.071-.014H108.49c-.025 0-.049.005-.071.014-.023.009-.043.023-.06.04-.018.017-.031.038-.041.06-.009.023-.014.047-.014.071v.934h-2.778v-.934c0-.024-.005-.048-.014-.071-.01-.022-.023-.043-.041-.06-.017-.017-.037-.031-.06-.04-.022-.009-.046-.014-.071-.014h-4.446c-.024 0-.048.005-.071.014-.022.009-.043.023-.06.04s-.031.038-.04.06c-.009.023-.014.047-.014.071v.934h-2.7788v-.934c0-.024-.0048-.048-.0141-.071-.0093-.022-.023-.043-.0402-.06s-.0376-.031-.0601-.04c-.0225-.009-.0466-.014-.0709-.014h-4.4461c-.0243 0-.0484.005-.0709.014-.0224.009-.0429.023-.0601.04s-.0308.038-.0401.06c-.0093.023-.0141.047-.0141.071v.934h-2.7789v-.934c.0001-.024-.0047-.048-.014-.071-.0094-.022-.023-.043-.0402-.06s-.0376-.031-.0601-.04c-.0225-.009-.0466-.014-.0709-.014h-4.4461c-.0243 0-.0484.005-.0709.014-.0225.009-.0429.023-.0601.04s-.0308.038-.0401.06c-.0094.023-.0142.047-.0141.071v.934h-2.7789v-.934c0-.024-.0048-.048-.0141-.071-.0093-.022-.0229-.043-.0401-.06-.0172-.017-.0376-.031-.0601-.04-.0225-.009-.0466-.014-.0709-.014H78.108c-.0243 0-.0484.005-.0709.014-.0225.009-.0429.023-.0601.04s-.0309.038-.0402.06c-.0093.023-.0141.047-.0141.071v.934h-2.7788v-.934c0-.024-.0048-.048-.0141-.071-.0093-.022-.0229-.043-.0401-.06-.0172-.017-.0377-.031-.0601-.04-.0225-.009-.0466-.014-.0709-.014h-4.4461c-.0244 0-.0484.005-.0709.014-.0225.009-.0429.023-.0601.04s-.0309.038-.0402.06c-.0093.023-.0141.047-.0141.071v.934h-2.7788v-.934c0-.024-.0048-.048-.0141-.071-.0093-.022-.023-.043-.0402-.06s-.0376-.031-.0601-.04c-.0224-.009-.0465-.014-.0708-.014h-4.4461c-.0244 0-.0485.005-.0709.014-.0225.009-.0429.023-.0601.04s-.0309.038-.0402.06c-.0093.023-.0141.047-.0141.071v.934h-8.5217c-.5839 0-1.162.115-1.7014.339-.5395.223-1.0296.551-1.4425.964-.4128.413-.7403.903-.9637 1.442-.2235.54-.3385 1.118-.3385 1.702v2.01c0 1.179.4684 2.31 1.3022 3.144.8339.834 1.9647 1.302 3.1439 1.302H202.043c1.179 0 2.31-.468 3.144-1.302.834-.834 1.302-1.965 1.302-3.144v-2.01c0-.584-.115-1.162-.338-1.702-.224-.539-.551-1.029-.964-1.442-.413-.413-.903-.741-1.443-.964-.539-.224-1.117-.339-1.701-.339z" fill="#3F3D56"/><path d="M169.406 83.6289H80.7657v.526h88.6403v-.526z" fill="#00BAFC"/><path d="M87.0783 83.3659H65.2471c.6986-8.2267.6986-16.4979 0-24.7246h21.8312c-1.202 8.468-1.2723 16.7228 0 24.7246z" fill="#D0CDE1"/><path d="M84.185 63.6388H68.4034v1.0522H84.185v-1.0522zM84.185 67.0582H68.4034v1.0521H84.185v-1.0521zM84.185 70.4775H68.4034v1.0521H84.185v-1.0521zM84.185 73.8969H68.4034v1.0521H84.185v-1.0521zM84.185 77.3162H68.4034v1.0521H84.185v-1.0521z" fill="#3F3D56"/><path d="M29.0661.843624S25.636-.38144 23.4309 4.51881c-2.2052 4.90025-5.6353 10.29049-5.6353 10.29049l1.9601.4901s.49-3.4302 1.7151-3.9202l-.4901 4.4102s14.7008 5.1452 21.3161-.49l-.245-1.7151s.98.245.98 1.7151l.7351-.7351s-.7351-1.4701-2.9402-3.4302c-1.4473-1.28648-1.9447-3.73407-2.1156-5.26435-.128-1.2778-.6393-2.48707-1.4667-3.46922C35.779.702209 33.1088-1.10286 29.0661.843624z" fill="#2F2E41"/><path d="M19.1739 108.929l1.0521 6.05 4.2085-.79.789-5.26h-6.0496z" fill="#FFB9B9"/><path d="M25.2235 112.348l-5.7866.526.263 4.735-.263 6.049s-3.4194 6.839 1.5782 6.313c4.9975-.526 4.4714-3.156 4.4714-3.156l1.3151-1.578-.789-3.946-.7891-8.943z" fill="#2F2E41"/><path d="M42.8463 108.929l-1.0521 6.05-4.2084-.79-.7891-5.26h6.0496z" fill="#FFB9B9"/><path d="M36.7967 112.348l5.7866.526-.2631 4.735.2631 6.049s3.4193 6.839-1.5782 6.313c-4.9975-.526-4.4714-3.156-4.4714-3.156l-1.3152-1.578.7891-3.946.7891-8.943z" fill="#2F2E41"/><path d="M30.7471 17.1326c3.3411 0 6.0496-2.7085 6.0496-6.0496 0-3.34115-2.7085-6.04966-6.0496-6.04966s-6.0496 2.70851-6.0496 6.04966c0 3.3411 2.7085 6.0496 6.0496 6.0496z" fill="#FFB9B9"/><path d="M26.8017 14.2393l.789 9.4689 7.3648-.263s-2.1042-6.0496-.7891-8.4168l-7.3647-.7891z" fill="#FFB9B9"/><path d="M31.0101 21.8671l3.0295-1.8895 3.2832 1.6264 5.2605 2.3673-1.8412 22.3573s4.2084 13.9404 3.4194 20.7791c-.7891 6.8387 8.6798 41.0323 1.0521 42.6103-7.6278 1.578-13.1514 3.156-13.4144.526-.263-2.63-.7891-42.8733-.7891-42.8733s-.7891 42.6103-3.9454 43.1363c-3.1563.526-16.8337 2.63-15.7816-.526 1.0521-3.156 8.1538-58.3919 11.5732-61.5482l.526-2.6303-4.4714-21.3052 8.3969-4.1849 3.7023 1.5547z" fill="#2F2E41"/><path d="M15.2284 54.4824l-.263 10.7841s-2.5319 10.647 1.7589 10.5841c4.2907-.063 1.1344-10.5841 1.1344-10.5841l1.8412-10.5211-4.4715-.263zM55.0015 43.1641l7.392 7.8565s8.9903 6.2404 5.7525 9.0567c-3.2377 2.8162-7.9074-7.126-7.9074-7.126l-8.3919-6.6076 3.1548-3.1796z" fill="#FFB9B9"/><path d="M22.9878 47.7751l18.0147-.5523-.2341-1.2231v-.0053l-17.4124-.3156-.3682 2.0963z" fill="#D0CDE1"/><path d="M26.6702 48.3013c.8716 0 1.5781-.7066 1.5781-1.5782s-.7065-1.5782-1.5781-1.5782-1.5782.7066-1.5782 1.5782.7066 1.5782 1.5782 1.5782zM21.0151 24.7604l-1.7097-.3946s-2.2357.9206-2.7618 3.8139-7.36475 25.5136-3.9454 26.8288c3.4193 1.3151 8.4169 1.8411 8.4169 1.3151 0-.5261 2.1042-20.2531 2.1042-20.2531l-2.1042-11.3101zM37.1032 25.763l5.4801-1.7917s2.6302 0 2.6302 2.8933c0 1.1935 5.041 10.9976 5.041 10.9976s12.1123 8.6339 10.2581 8.9429c-3.1563.5261-4.9975 6.0496-4.9975 6.0496L43.6789 42.3336 37.1032 25.763zM23.3688 11.5335s1.9601-2.69516 3.6752-3.18518c1.7151-.49003 1.9601-2.94015 1.9601-2.94015s4.4102 4.90023 7.1054 5.14523c2.6951.245.245-5.88028.245-5.88028l-4.9003-1.22506-4.6552.49002-3.6752 2.45012.245 5.1453z" fill="#2F2E41"/><path d="M24.829 11.346c.4358 0 .7891-.53.7891-1.1836 0-.65375-.3533-1.18367-.7891-1.18367s-.7891.52992-.7891 1.18367c0 .6536.3533 1.1836.7891 1.1836z" fill="#FFB9B9"/></g><defs><clipPath id="clip0"><path fill="#fff" transform="translate(.93692)" d="M0 0h222.126v130H0z"/></clipPath></defs></svg>