<svg width="170" height="130" fill="none" xmlns="http://www.w3.org/2000/svg"><g clip-path="url(#clip0)"><path opacity=".1" d="M166.336 29.6001c-1.729-3.3602-3.997-6.4146-6.713-9.0421l-93.1249-.7757 76.6729-9.1034c-5.017-1.67866-10.266-2.55894-15.556-2.60873-7.381-5.03916-16.868-8.0626627-27.216-8.0626627-9.2846 0-17.8699 2.4394627-24.8694 6.5786227-5.9481-2.59072-12.7289-4.05979-19.9335-4.05979-20.6913 0-37.9323 12.11496-41.8004 28.18186l152.5403-1.1081zM169.61 43.0748c-.006-4.4024-.998-8.7476-2.902-12.717L5.31079 44.6801c-1.6382 2.4974-2.91146 5.2159-3.78124 8.0732l49.97985 6.2986L.389931 63.6433C1.92789 81.8322 20.3714 96.1934 42.9016 96.1934c11.3408 0 21.6452-3.6389 29.2811-9.5736 7.6598 6.047 18.0631 9.7653 29.5263 9.7653 17.008 0 31.688-8.1869 38.524-20.0234 13.714-3.6809 24.368-12.9206 28.014-24.48l-63.206-8.2873h64.569v-.5196zM75.2631 129.999c23.9831 0 43.4249-.868 43.4249-1.938 0-1.07-19.4418-1.938-43.4249-1.938s-43.4252.868-43.4252 1.938c0 1.07 19.4421 1.938 43.4252 1.938z" fill="#00BAFC"/><path d="M101.037 124.652v1.171H66.4068v-.951c2.1119-.782 3.9443-2.173 5.265-3.998 1.3207-1.824 2.0705-3.999 2.1543-6.25.0839-2.251-.5019-4.476-1.6832-6.393-1.1813-1.918-2.905-3.442-4.9529-4.379h33.612c-2.002.916-3.6951 2.394-4.8741 4.254-1.179 1.859-1.7933 4.021-1.7684 6.222.0248 2.202.6878 4.349 1.9086 6.182 1.2207 1.832 2.9468 3.271 4.9689 4.142z" fill="#C8CAD7"/><path opacity=".1" d="M100.802 103.852c-1.5448.709-2.9113 1.755-3.9996 3.06-1.0883 1.306-1.8707 2.839-2.2901 4.486H73.4811c-.4196-1.647-1.2021-3.18-2.2904-4.485-1.0882-1.306-2.4546-2.352-3.9992-3.061h33.6105z" fill="#000"/><path d="M26.7463 97.8857v6.5743c0 3.63 2.6566 6.572 5.9347 6.572h101.895c3.278 0 5.934-2.942 5.934-6.572v-6.5743H26.7463z" fill="#C8CAD7"/><path opacity=".1" d="M101.037 124.652v1.171H66.4068v-.951c.9493-.353 1.8473-.831 2.6701-1.422h29.8366c.663.475 1.3745.878 2.1235 1.202z" fill="#000"/><path d="M111.058 123.815H56.3853c-.7857 0-1.4227.637-1.4227 1.423v.624c0 .786.637 1.423 1.4227 1.423h54.6727c.786 0 1.423-.637 1.423-1.423v-.624c0-.786-.637-1.423-1.423-1.423z" fill="#C8CAD7"/><path d="M140.51 25.8503c-.002-1.5726-.628-3.08-1.741-4.1911-1.113-1.1111-2.621-1.735-4.193-1.7346H32.6855c-1.5733-.0016-3.0828.6217-4.1966 1.733-1.1138 1.1112-1.7406 2.6193-1.7426 4.1927v73.3142H140.51V25.8503z" fill="#474157"/><path d="M137.413 28.4979v62.9963c.001.3838-.075.7638-.222 1.1183-.146.3546-.362.6768-.633.9481-.271.2713-.593.4865-.948.6333-.355.1468-.735.2222-1.118.222H32.7769c-.3838.0002-.7638-.0752-1.1184-.222-.3545-.1468-.6767-.362-.948-.6333-.2714-.2713-.4866-.5935-.6333-.9481-.1468-.3545-.2222-.7345-.222-1.1183V28.4979c0-.7749.3078-1.518.8557-2.0659s1.2911-.8558 2.066-.8558H134.484c.384-.0009.765.0739 1.121.2203.355.1464.678.3614.95.6328.272.2714.488.5938.635.9488.147.355.223.7355.223 1.1198z" fill="#4C4C78"/><path d="M83.6298 24.1161c.7567 0 1.3702-.6134 1.3702-1.3702 0-.7568-.6135-1.3702-1.3702-1.3702-.7568 0-1.3703.6134-1.3703 1.3702 0 .7568.6135 1.3702 1.3703 1.3702zM83.6298 108.112c1.8658 0 3.3784-1.512 3.3784-3.378s-1.5126-3.379-3.3784-3.379c-1.8659 0-3.3784 1.513-3.3784 3.379s1.5125 3.378 3.3784 3.378zM52.5831 27.0378v67.3781H32.7769c-.3838.0002-.7638-.0753-1.1184-.222-.3545-.1468-.6767-.362-.948-.6333-.2714-.2714-.4866-.5935-.6333-.9481-.1468-.3545-.2222-.7345-.222-1.1183V28.4979l.1063-.3968.2845-1.0633h22.3371z" fill="#fff"/><path d="M55.1244 28.101v6.065H29.8552v-5.6681l.1063-.3969h25.1629z" fill="#4C4C78"/><path d="M137.413 28.4979H29.8552c0-.3837.0756-.7635.2224-1.1179.1469-.3544.3621-.6764.6334-.9475.2713-.2712.5934-.4863.9479-.633.3545-.1466.7343-.222 1.118-.2218H134.484c.384-.0012.765.0735 1.12.2197.356.1462.679.3611.951.6324.272.2713.488.5936.635.9485.147.3549.223.7353.223 1.1196z" fill="#C8CAD7"/><path d="M32.7768 27.7686c.4037 0 .7308-.3272.7308-.7308s-.3271-.7308-.7308-.7308c-.4036 0-.7307.3272-.7307.7308s.3271.7308.7307.7308zM34.9677 27.7686c.4036 0 .7308-.3272.7308-.7308s-.3272-.7308-.7308-.7308-.7308.3272-.7308.7308.3272.7308.7308.7308zM37.1586 27.7686c.4036 0 .7308-.3272.7308-.7308s-.3272-.7308-.7308-.7308-.7308.3272-.7308.7308.3272.7308.7308.7308z" fill="#EDEDF4"/><path d="M48.8064 30.7711H33.632v1.3972h15.1744v-1.3972z" fill="#00BAFC"/><path opacity=".5" d="M48.8064 37.5848H33.632v1.3972h15.1744v-1.3972zM48.8064 42.4023H33.632v1.3972h15.1744v-1.3972zM48.8064 47.2198H33.632v1.3972h15.1744v-1.3972zM48.8064 52.0359H33.632v1.3972h15.1744v-1.3972zM48.8064 56.8535H33.632v1.3971h15.1744v-1.3971zM48.8064 61.671H33.632v1.3971h15.1744V61.671zM48.8064 66.4871H33.632v1.3972h15.1744v-1.3972z" fill="#00BAFC"/><path opacity=".5" d="M132.247 35.9091H65.0066v.2246h67.2404v-.2246zM132.247 41.125H65.0066v.2246h67.2404v-.2246zM132.247 46.3424H65.0066v.2246h67.2404v-.2246zM132.247 51.5582H65.0066v.2247h67.2404v-.2247zM132.247 56.7741H65.0066v.2246h67.2404v-.2246z" fill="#DCE0ED"/><path opacity=".5" d="M132.248 56.9972H64.9243v-10.258l6.1743 3.0429 6.3899.8656 5.6067-1.6907 6.7643-5.2458 3.4024-1.9648 2.4874-.4792 2.3796.1273 3.9141 1.9333 5.32 3.3889 4.175.5376 3.311-1.1411 7.016-5.7475 3.582-1.2774 3.748.5796 3.053 1.7625v15.5668z" fill="#00BAFC"/><path d="M76.6589 50.6508c-6.062 0-11.6657-3.7079-11.7346-3.7558l.1662-.2486c.0869.0584 8.7096 5.7639 16.037 2.9052 2.6746-1.0408 4.5734-2.6626 6.4184-4.229 1.9213-1.6368 3.7363-3.1838 6.2087-3.8547 2.8453-.7682 5.9377-.0718 8.2934 1.863 2.013 1.6547 6.023 4.3128 10.259 3.5176 2.16-.4043 3.981-1.9827 5.908-3.6524 3.69-3.2047 7.518-6.5127 14.12-1.7626l-.175.2426c-6.417-4.6109-10.147-1.3792-13.753 1.7461-1.959 1.6982-3.81 3.2946-6.049 3.7214-4.357.8161-8.452-1.8929-10.505-3.5806-2.2805-1.8749-5.2801-2.5458-8.0235-1.8045-2.4095.6529-4.1931 2.1774-6.0934 3.7917-1.8585 1.5829-3.7813 3.2212-6.4993 4.2814-1.4617.5556-3.0143.8334-4.5779.8192z" fill="#00BAFC"/><path d="M97.3621 42.904c.9205 0 1.6667-.7462 1.6667-1.6667 0-.9205-.7462-1.6667-1.6667-1.6667-.9206 0-1.6668.7462-1.6668 1.6667 0 .9205.7462 1.6667 1.6668 1.6667z" fill="#00BAFC"/><path d="M55.5916 77.4578c-2.2777-1.3118-3.1448-1.6368-3.1448-1.6383l-.0464-.0329c-.2488-.1908-.4464-.4404-.5751-.7263v-.1498.015c.0375-.6948.5302-1.3253.9989-1.8764.3993-.4702.7987-.9399 1.198-1.4092.1377-.1425.2429-.3131.3085-.5001.0244-.0979.0355-.1987.033-.2995v-.1228c0-.3505-.0165-.7009-.0285-1.0483-.012-.307-.0899-.6919-.3968-.7488-.1588-.0329-.3684.024-.4493-.1123-.0294-.0556-.0369-.1203-.021-.1812v.0135c-.0006-.0055-.0006-.011 0-.0165.0591-.2363.0972-.4773.1138-.7203.0054-.1233-.0113-.2465-.0494-.3639-.1782-.5076-.7877-.7158-1.3268-.8116-.5391-.0959-1.1441-.1782-1.4825-.5991-.0928-.1403-.1928-.2757-.2995-.4058-.1568-.1382-.3475-.2322-.5526-.2725-.6688-.1657-1.3738-.1041-2.0037.1752-.2606.1168-.5226.2725-.8087.2561-.286-.0165-.5511-.2247-.8446-.2741-.4732-.0809-.9269.2681-1.1606.6799-.1385.2444-.2122.5202-.2141.8012v.0464c-.0059.302.1045.5948.3085.8176.2036.2127.5076.3579.599.6365.0344.1138.027.2366.0569.3504 0 .015.009.0285.0135.0434l-.0165.0195c-.4864.626-.75 1.3966-.7488 2.1894.0047.7697.2538 1.5181.7114 2.1372.4576.619 1.0999 1.0767 1.8344 1.3071v.1078c.0102.2248-.0288.4491-.1141.6573-.0853.2082-.215.3952-.38.5482l-3.2317 1.2969s-1.9468-.2307-2.6476 2.6131c-.1124.472-.1528.9582-.1198 1.4422.0254.4297-.0345 1.1845-.5331 2.1609-.7982 1.5634-.617 5.15 1.0153 5.5049 1.5409.3354 2.1444.1962 2.2073.1797v.0629c-.0254.6739-.2695 6.4783-1.1576 7.1881-.2471.1932-.2006.325 0 .4133v.1048c-.0269.4253-.1647 2.0412-.7592 2.9621-.6829 1.0613-.605 7.2013-.605 7.2013l-.4702 3.623s.289 2.237 0 2.628c-.2591.349-.599 8.627-.6769 10.421h-.03c-.1421.009-.2801.052-.4017.126-.1217.074-.2233.177-.2961.3-.3864.62-1.7192 1.762-1.7192 1.762-.289.412-1.3612.806-1.9273.992-.0757.024-.1489.055-.2186.094-.212.115-.3822.294-.4867.512-.0368.064-.0603.135-.0691.208-.0087.074-.0025.148.0182.219.1497.355 3.1553.599 3.916.248.599-.278 2.9711-.647 3.9565-.79.1788-.023.345-.104.4724-.232.1275-.127.2089-.293.2314-.472.0094-.062.0063-.125-.0091-.185-.0154-.061-.0429-.117-.0808-.167-.1886-.234-.286-.872-.3294-1.288.08-.033.1546-.077.2216-.132-.0808-1.29.1042-2.584.5436-3.8.7248-1.917.9435-5.469.7623-7.779 0 0 2.2118-9.519 3.9534-10.407.027.033.8716 1.117.9794 4.474.1078 3.41 1.3403 5.647 1.3403 5.647s-.5436 5.79 0 7.957l-.7143 3.413c-.0298-.025-.0583-.051-.0854-.078 0 0 .021.096.0509.247l-.0149.072.0299.007c.0809.427.2007 1.171.1498 1.609-.0285.25-.0974.59-.1498.925-.0749.526-.0958 1.036.1812 1.147.4493.183 3.1193.433 3.5731-.15.1017-.119.1679-.265.1912-.42.0233-.155.0027-.313-.0594-.457-.0329-.081-.0773-.156-.1318-.223 0 0-.7083-1.158-.5077-1.974.0184-.08.0203-.162.0056-.242-.0146-.081-.0456-.157-.0909-.225.1038-1.292.3117-2.574.6214-3.832.4493-1.709 1.4107-5.456.7069-7.921-.027-.096-.0569-.192-.0899-.284-.4066-1.346-.5425-2.758-.3998-4.156-.262-1.193-.262-2.429 0-3.623.4313-1.987.7353-3.934.7353-3.934s.2396-2.6277.0299-4.239l-.0135-.1033.1139-.0255s-.6155-2.7345-.8342-4.4746c-.0509-.4118-.1183-.9314-.1916-1.487.2007-.0345.3985-.0846.5915-.1498 1.9587-.6754 2.5742-6.7853 2.5742-6.7853v-1.9378s.6529-2.9606-1.6323-4.2799zM41.0012 124.63l-.0958-.051.0958.051z" fill="url(#paint0_linear)"/><path d="M54.4102 112.711c.849 2.443-.1498 6.407-.5991 8.177-.3025 1.28-.5028 2.581-.599 3.893-1.0334.175-2.0906.15-3.1148-.072l.7487-3.645c-.5301-2.159 0-7.929 0-7.929s-1.198-2.231-1.3088-5.629c-.1048-3.344-.9285-4.425-.9554-4.46-1.7117.89-3.8651 10.373-3.8651 10.373.1767 2.301-.036 5.841-.7488 7.753-.4296 1.214-.6104 2.502-.5316 3.787-.2471.209-.5915.244-.9629.185-1.0108-.164-2.2223-1.035-2.2223-1.035s.3893-10.333.6724-10.725c.283-.393 0-2.62 0-2.62l.4597-3.61s-.0704-6.124.599-7.1883c.581-.918.7143-2.5293.7413-2.9516v-.1049l1.0243-1.2264s9.9121-.7488 10.6549 0c.1827.1827.2995.599.3624 1.1201.2036 1.6054-.03 4.2241-.03 4.2241s-.2995 1.947-.7218 3.928c-.2556 1.19-.2556 2.421 0 3.611-.1383 1.394-.0035 2.802.3969 4.145z" fill="#65617D"/><path d="M53.7901 128.233c-.4418.584-3.043.337-3.4862.15-.2711-.113-.2501-.62-.1768-1.144.0465-.334.1139-.674.1408-.921.0719-.638-.2111-1.931-.2111-1.931s.584.62.7248 0c.0325-.118.0967-.225.1856-.31.089-.084.1993-.143.319-.169.3034-.092.6297-.071.9195.057.4597.199 1.2265.624 1.0887 1.198-.1947.813.4957 1.966.4957 1.966.0535.068.0969.143.1288.223.0621.145.0829.303.0602.459-.0228.155-.0882.301-.189.422z" fill="#A27772"/><path opacity=".1" d="M53.7901 128.233c-.4417.584-3.0429.337-3.4862.15-.2711-.113-.2501-.62-.1767-1.144.2785.13.7487.239 1.5454.166.1851-.018.3712-.024.5571-.018.5632.026 1.1275.015 1.6892-.033.0618.144.0825.303.0598.458-.0228.155-.088.301-.1886.421zM44.7166 113.419c.1767 2.301-.0359 5.841-.7488 7.753-.4296 1.214-.6104 2.502-.5316 3.787-.2471.208-.5915.244-.9629.184.2142-1.497 1.1232-7.926 1.7072-13.007.6634-5.788 3.7692-9.77 3.7692-9.77l.62.682c-1.6997.888-3.8531 10.371-3.8531 10.371z" fill="#000"/><path d="M52.7283 76.2165l-.4328 2.1234-2.1159 3.5582-2.6102-1.1157s-3.5491-3.7168-1.3193-4.247c.2673-.0571.5197-.1693.7412-.3294.4373-.331.5751-.8102.5781-1.2804-.0177-.5268-.1409-1.0447-.3624-1.523l4.5659-1.4331c-.1889.5997-.2991 1.2214-.3279 1.8494-.0345 1.243.4267 1.8569.8056 2.149.141.1139.3035.1984.4777.2486z" fill="#FBBEBE"/><path opacity=".1" d="M51.7729 71.9695c-.1889.5997-.2991 1.2214-.3279 1.8494-.4627.5491-1.0786.9477-1.7689 1.1448-.6904.1971-1.4239.1839-2.1067-.0381-.0176-.5268-.1409-1.0447-.3624-1.523l4.5659-1.4331z" fill="#000"/><path d="M52.2956 71.3854c0 .7141-.2118 1.4122-.6085 2.0059-.3967.5938-.9606 1.0566-1.6204 1.3298-.6597.2733-1.3857.3448-2.086.2055-.7004-.1393-1.3438-.4832-1.8487-.9881-.5049-.505-.8488-1.1483-.9881-1.8487-.1393-.7004-.0678-1.4263.2054-2.086.2733-.6598.7361-1.2237 1.3298-1.6204.5938-.3967 1.2918-.6085 2.0059-.6085.4745-.0012.9445.0914 1.3831.2724.4386.1811.8371.447 1.1726.7825.3355.3355.6014.734.7824 1.1726.1811.4385.2737.9086.2725 1.383z" fill="#FBBEBE"/><path opacity=".1" d="M52.7283 76.2164l-.4328 2.1235-2.1159 3.5581-2.6102-1.1156s-3.5491-3.7169-1.3193-4.247c.2673-.0571.5197-.1693.7412-.3295-.4028 1.1067 1.2594 3.4084 1.2594 3.4084.1932.2845.638.1063.638.1063 1.0692-.1617 3.0415-3.2406 3.3619-3.7528.141.114.3035.1985.4777.2486zM54.7725 96.8058c-.6289.1498-4.1062.912-5.424.7203-1.4511-.2126-4.2739-.3534-4.2739-.3534s-1.7971.0959-2.3482-.1497v-.1049l1.0243-1.2264s9.9122-.7488 10.6549 0c.1947.1767.2995.5915.3669 1.1141z" fill="#000"/><path d="M48.2508 79.7207s-1.8674-2.5862-1.1636-3.5941l-3.1553 1.2939s-1.8988-.2306-2.5832 2.6027c-.1097.4713-.1495.9562-.1183 1.4391.0255.4268-.0329 1.1785-.5196 2.1519-.7787 1.5574-.599 5.1335.9913 5.4869 1.5904.3535 2.1595.1767 2.1595.1767s-.2127 6.4783-1.1322 7.2211c-.9194.7428 2.3467.5661 2.3467.5661s2.8213.1497 4.2724.3549c1.4511.2051 5.5214-.7488 5.5214-.7488s-.5991-2.7255-.8147-4.4596c-.2156-1.7341-.7068-5.427-.7068-5.427l3.6105-4.8909s.6364-2.9561-1.5934-4.265c-2.2298-1.3088-3.0699-1.6323-3.0699-1.6323s-2.2463 3.6495-3.4083 3.8262c0 .003-.4433.1827-.6365-.1018z" fill="#FF748E"/><path opacity=".1" d="M44.1087 80.7479s-.0345 1.1681.1782 1.6278c.2126.4598.9898 3.0086.9898 3.0086h-1.7685s.9554-1.0258.885-1.5215c-.0704-.4957-.2845-3.1149-.2845-3.1149z" fill="#000"/><path d="M49.3485 89.5594s-3.9086-.9554-4.2725-1.7685c-.3639-.8132-1.3687-2.6372-1.3687-2.6372l.4118-.5556 1.9019 1.4976s2.2657 1.797 3.3275 1.9827c1.0617.1857 0 1.481 0 1.481z" fill="#FBBEBE"/><path opacity=".05" d="M49.3485 89.5594s-3.9086-.9554-4.2725-1.7685c-.3639-.8132-1.3687-2.6372-1.3687-2.6372l.4118-.5556 1.9019 1.4976s2.2657 1.797 3.3275 1.9827c1.0617.1857 0 1.481 0 1.481z" fill="#000"/><path d="M52.7284 84.9604v2.1205h-.3414c-1.6841 0-3.3405.4288-4.8131 1.2459l-.6379.3534-.1722.0959-1.0977-2.4709 1.0273-.921h.0524c.2516.024 1.3373.1138 1.797-.0404.4598-.1543.9809-.62 2.2673-.2905.6349.1617 1.1755.873 1.797.6514l.1213-.7443z" fill="#FBBEBE"/><path opacity=".1" d="M56.1442 81.1014l.7083.7966v1.9288s-.599 6.089-2.5128 6.7614c-1.9139.6724-5.3237-.3894-5.3237-.3894s-.8821-2.3361-.4703-2.4784c.4119-.1423 3.645-.9943 3.645-.9943s-.0464-3.5716.6619-4.6334c0 0-.4597-3.3275 1.1322-3.3979 1.5918-.0704 2.1594 2.4066 2.1594 2.4066z" fill="#000"/><path d="M56.2476 81.1014l.7083.7966v1.9288s-.599 6.089-2.5144 6.7614c-1.9153.6724-5.3222-.3894-5.3222-.3894s-.882-2.3361-.4702-2.4784c.4118-.1423 3.6435-.9943 3.6435-.9943s-.0449-3.5716.6634-4.6334c0 0-.4613-3.3275 1.1321-3.3979 1.5934-.0704 2.1595 2.4066 2.1595 2.4066z" fill="#FF748E"/><path opacity=".1" d="M51.3057 72.9189c.0315-.2328.0037-.4698-.0809-.6889-.0443-.1083-.1234-.1988-.2248-.2574-.1013-.0585-.2192-.0818-.3352-.0661-.2995.0704-.4343.4643-.7308.5586-.2501.0794-.5242-.0973-.644-.3309-.1002-.2436-.1423-.5071-.1228-.7698v-.888c0-.322-.0104-.6694-.2096-.9225-.2471-.3145-.8266-.4493-1.213-.4388-.2579.0027-.5053.1021-.6934.2786-.0944.095-.2089.1678-.3351.2129-.1262.045-.2609.0613-.3942.0476-.1175-.018-.2275-.0689-.3173-.1468-.0899-.0779-.1558-.1796-.1903-.2934-.0007-.004-.0007-.0081 0-.012.3009-.3978.6809-.729 1.1161-.9726.4353-.2436.9162-.3944 1.4126-.4428.4964-.0485.9975.0064 1.4716.1612.4742.1548.9111.4062 1.2832.7383.3722.3321.6715.7377.879 1.1912.2076.4535.319.9451.3271 1.4438.0082.4987-.0871.9937-.2798 1.4538-.1927.46-.4786.8751-.8397 1.2192.0598-.356.1003-.7149.1213-1.0752z" fill="#000"/><path d="M46.3205 69.548c-.1176-.0183-.2277-.0692-.3178-.1471-.09-.0778-.1563-.1794-.1914-.2931-.0284-.1138-.021-.2366-.0554-.3489-.0824-.2786-.3789-.4239-.578-.635-.3984-.4223-.3729-1.1186-.0914-1.6278.2291-.4103.6709-.7563 1.1336-.6769.2861.0509.5332.2546.8237.2726.2905.0179.5346-.1378.7892-.2546.6134-.2779 1.303-.3391 1.9557-.1737.2009.0399.3873.1336.5391.271.1031.1295.1991.2645.2876.4044.3294.4208.9209.5031 1.4466.599.5256.0958 1.1216.2995 1.2938.8101.1153.3355 0 .6994-.0614 1.0483-.0229.0715-.018.149.0135.2171.0824.1363.2875.0794.4493.1108.2995.0629.3743.4493.3848.7488.014.3474.0235.6969.0285 1.0483.0088.13-.0013.2607-.03.3878-.0646.1815-.1666.3473-.2995.4867l-1.1695 1.4047c-.5182.623-1.0678 1.3478-.9644 2.1519-.2456.1094-.5362-.1018-.617-.3594-.0809-.2576-.0165-.5331.0389-.7967.0942-.4557.1557-.9176.1842-1.3822.0316-.2332.0038-.4707-.0809-.6903-.0446-.1085-.1239-.199-.2256-.2576-.1016-.0585-.2197-.0817-.3359-.0659-.2995.0704-.4328.4642-.7293.5586-.2501.0809-.5242-.0974-.644-.331-.0995-.2437-.1416-.5071-.1228-.7697v-.888c0-.322-.0104-.6694-.2096-.9225-.2456-.3145-.8266-.4492-1.213-.4388-.2579.0027-.5053.1021-.6933.2786-.0955.0963-.2115.1698-.3393.2149-.1279.0451-.2643.0607-.399.0456z" fill="#7C5C5C"/><path opacity=".1" d="M47.1351 80.6596l1.1097 4.5525s.873-.0045-1.1097-4.5525zM50.9238 79.8973s-1.4525 2.3781-.885 4.8355l.2696.0195s-.4822-1.1382.6154-4.855zM51.8434 93.3497s1.782-.59 1.9123.7787c0 0-.3369-.939-1.9123-.7787zM46.6934 85.4906s-.3535 2.4784.283 3.4698c-.9986.3518-2.0586.496-3.1149.4238l-.2126-3.8936h3.0445z" fill="#000"/><path opacity=".1" d="M46.936 88.6804l-.1722.0958-1.0977-2.4709 1.0273-.921h.0524c-.0165.1198-.3025 2.2478.1902 3.2961z" fill="#000"/><path d="M46.6933 85.3843s-.3534 2.4784.2831 3.4698c-.9987.3518-2.0586.496-3.1149.4238l-1.2384-3.8936h4.0702z" fill="#FF748E"/><path d="M43.6309 126.726c-.0204.177-.099.342-.2235.469-.1245.127-.2877.208-.4639.232-.9599.15-3.2766.509-3.8606.788-.7488.355-3.6809.106-3.8232-.247-.0199-.071-.0257-.145-.017-.219.0088-.073.0318-.144.0679-.208.0685-.141.1647-.266.2828-.369.1181-.103.2557-.181.4046-.23.5541-.186 1.5994-.577 1.8809-.987 0 0 1.3028-1.141 1.6742-1.756.0697-.122.1685-.224.2874-.298.1189-.074.2542-.117.394-.126.31-.015.6544.142.7967.82 0 0 1.6982.969 2.1579.12 0 0 .0704 1.305.3519 1.662.0373.05.0644.106.0798.166.0154.06.0189.122.0101.183z" fill="#A27772"/><path opacity=".1" d="M43.6309 126.726c-.0204.177-.099.342-.2235.469-.1245.127-.2877.208-.4639.232-.9599.15-3.2766.509-3.8606.788-.7488.355-3.6809.106-3.8232-.247-.0199-.071-.0257-.145-.017-.219.0088-.073.0318-.144.0679-.208.101-.215.267-.393.4747-.509.4793.317 1.5425.629 3.8816.263 2.2313-.348 3.335-.69 3.8741-.922.0379.05.0653.107.0807.168.0155.06.0186.123.0092.185z" fill="#000"/><g opacity=".1" fill="#000"><path opacity=".1" d="M53.2899 68.8442c.0007-.006.0007-.012 0-.018.07-.2619.1068-.5316.1093-.8026-.0225.2167-.0591.4318-.1093.6439-.0134.0581-.0134.1185 0 .1767zM51.2248 72.1567c.0556.1277.0851.2652.0869.4044.0161-.1919-.0137-.3849-.0869-.5631-.0446-.1086-.1238-.1993-.2254-.2581-.1016-.0588-.2198-.0823-.3361-.0669-.2995.0704-.4328.4658-.7293.5601-.2501.0794-.5242-.0988-.644-.3324-.1009-.2434-.143-.5071-.1228-.7698v-.8865c0-.322-.0104-.6694-.2096-.9225-.2471-.316-.8266-.4492-1.2145-.4403-.2577.0029-.5048.1029-.6919.2801-.0945.0948-.2091.1672-.3353.2121-.1262.0448-.2608.0608-.394.0469-.1179-.0174-.2284-.0681-.3186-.146-.0901-.078-.1562-.1801-.1905-.2942-.03-.1138-.021-.2351-.0554-.3489-.0824-.2786-.3789-.4224-.5781-.6335-.1858-.206-.292-.4715-.2995-.7488-.0142.1637.005.3286.0565.4846.0515.156.1342.2999.243.4229.1992.2112.4957.3564.5781.635.0344.1123.0254.2351.0554.3489.0349.1138.1012.2155.1912.2934.0901.0778.2003.1288.3179.1469.1333.0137.268-.0026.3942-.0477.1262-.0451.2407-.1178.3351-.2129.188-.1745.434-.2732.6904-.277.3879-.012.9674.1258 1.2145.4402.1992.2531.2081.5991.2096.9225v.8866c-.0203.2631.0217.5274.1228.7712.1198.2336.3939.4103.644.3309.2995-.0943.4268-.4881.7293-.56.1161-.0155.2342.0076.3359.0658.1017.0582.1815.1482.2271.2561zM54.1345 71.1819c-.065.1817-.167.348-.2995.4882-.3914.4672-.7813.9349-1.1696 1.4032-.4912.5915-1.0123 1.2758-.9749 2.0306.036-.6919.5181-1.3208.9749-1.8704l1.1696-1.4047c.1325-.1397.2345-.3054.2995-.4867.0288-.1276.0389-.2588.0299-.3893-.0008.0773-.0109.1542-.0299.2291zM51.0825 74.8673c-.0193-.0618-.0314-.1256-.0359-.1902-.0099.1176.0023.2359.0359.3489.0794.2576.3714.4688.617.3594 0-.0524-.0105-.1048-.012-.1497-.2426.0973-.5316-.1168-.605-.3684z"/></g><path opacity=".1" d="M39.3255 124.515s.3699.65 1.7117.076l-1.7117-.076zM50.6543 124.67s1.1576 1.362 2.6147.45l-2.6147-.45zM54.0208 108.569s-.8177.511-.8446.803c-.027.292.4223-.213.4223-.213l.4223-.59zM54.3427 112.483c-.2838.237-.6371.375-1.0064.393-.6109.027-.56.823-.1602.584.3998-.24 1.1666-.977 1.1666-.977zM54.4984 112.994s-.3924 1.926-.7114 1.554l.7114-1.554z" fill="#000"/><g opacity=".5" fill="#DCE0ED"><path opacity=".5" d="M80.8324 68.6839h-9.8837v2.0966h9.8837v-2.0966zM103.527 68.6839h-9.8833v2.0966h9.8833v-2.0966zM126.222 68.6839h-9.883v2.0966h9.883v-2.0966z"/></g><path opacity=".1" d="M143.063 120.676c2.228 0 4.033-.305 4.033-.681 0-.376-1.805-.681-4.033-.681-2.227 0-4.032.305-4.032.681 0 .376 1.805.681 4.032.681zM17.6444 129.28c2.2272 0 4.0328-.305 4.0328-.682 0-.376-1.8056-.681-4.0328-.681-2.2273 0-4.0329.305-4.0329.681 0 .377 1.8056.682 4.0329.682z" fill="#00BAFC"/><path d="M134.237 128.315c3.326 0 6.022-.456 6.022-1.018s-2.696-1.018-6.022-1.018-6.021.456-6.021 1.018 2.695 1.018 6.021 1.018z" fill="#00BAFC"/><path d="M136.726 125.633c.275-.224.475-.526.574-.867.074-.344-.072-.756-.4-.882-.369-.141-.763.114-1.062.373-.3.259-.64.551-1.03.497.2-.182.35-.413.435-.671.085-.257.102-.532.05-.798-.017-.11-.064-.214-.135-.299-.205-.219-.575-.126-.821.046-.778.548-.995 1.605-1 2.558-.078-.343-.012-.701-.013-1.049-.002-.347-.099-.748-.396-.933-.184-.098-.39-.146-.599-.14-.35-.014-.741.021-.979.277-.3.319-.22.852.037 1.198.258.346.653.569 1.014.811.29.174.538.41.725.691.021.04.039.081.052.124h2.196c.49-.25.945-.565 1.352-.936zM17.8286 118.49s.8236 1.077-.3789 2.696c-1.2025 1.618-2.1939 2.995-1.797 4.008 0 0 1.815-3.017 3.2945-3.059 1.4796-.042.5062-1.83-1.1186-3.645z" fill="#00BAFC"/><path opacity=".1" d="M17.8286 118.49c.072.104.129.218.1692.338 1.4406 1.693 2.2073 3.273.8221 3.312-1.2893.037-2.8363 2.343-3.2077 2.926.0122.045.0267.089.0435.133 0 0 1.815-3.018 3.2945-3.059 1.4796-.042.5032-1.835-1.1216-3.65z" fill="#000"/><path d="M19.3575 119.862c0 .379-.0419.686-.0943.686-.0524 0-.0944-.3-.0944-.686 0-.387.0525-.201.1049-.201.0524 0 .0838-.178.0838.201z" fill="#FFD037"/><path d="M19.8831 120.314c-.3324.181-.6229.291-.6469.244-.0239-.046.2231-.231.5556-.412.3324-.181.2022-.049.2261 0 .024.05.1977-.013-.1348.168z" fill="#FFD037"/><path d="M13.4843 118.49s-.8236 1.077.3789 2.696c1.2025 1.618 2.1939 2.995 1.797 4.008 0 0-1.8135-3.017-3.2945-3.059-1.4811-.042-.5062-1.83 1.1186-3.645z" fill="#00BAFC"/><path opacity=".1" d="M13.4843 118.49c-.072.104-.129.218-.1692.338-1.4406 1.693-2.2074 3.273-.8222 3.312 1.2894.037 2.8363 2.343 3.2077 2.926-.012.045-.027.09-.0449.133 0 0-1.8135-3.018-3.2945-3.059-1.4811-.042-.5017-1.835 1.1231-3.65z" fill="#000"/><path d="M11.9538 119.862c0 .379.0435.686.0959.686s.0943-.3.0943-.686c0-.387-.0524-.201-.1048-.201s-.0854-.178-.0854.201z" fill="#FFD037"/><path d="M11.4297 120.314c.3325.181.6215.291.6469.244.0255-.046-.2231-.231-.5556-.412-.3324-.181-.2021-.049-.2276 0-.0254.05-.1962-.013.1363.168z" fill="#FFD037"/><path d="M12.2204 125.058s2.3002-.072 2.995-.564c.6949-.493 3.5387-1.085 3.7109-.292.1722.792 3.4563 3.937.8596 3.958-2.5967.02-6.0336-.405-6.7254-.826-.6919-.42-.8401-2.276-.8401-2.276z" fill="#A8A8A8"/><path opacity=".2" d="M19.8263 127.884c-2.5967.021-6.035-.404-6.7269-.825-.5256-.322-.7368-1.474-.8056-2.004h-.0779s.1497 1.854.8386 2.276c.6889.423 4.1287.846 6.7254.825.7488 0 1.0078-.272.9943-.667-.1048.242-.3908.39-.9479.395z" fill="#000"/><path d="M70.2494 83.3252c0-3.0609 2.4904-5.4121 5.5529-5.4121h.0434v-1.3927h-.0434c-3.8307 0-6.9455 2.9756-6.9455 6.8048-.0002.9906.2122 1.9698.6227 2.8714.4105.9015 1.0096 1.7046 1.7568 2.355l.9869-.9869c-.6182-.5201-1.1151-1.169-1.4561-1.9013-.3409-.7324-.5176-1.5304-.5177-2.3382z" fill="#00BAFC"/><path opacity=".5" d="M75.9849 76.522v1.3927c.8918.0059 1.769.2266 2.5575.6434.7884.4168 1.4648 1.0175 1.9719 1.7511.5071.7336.83 1.5785.9414 2.4634.1114.8848.008 1.7834-.3015 2.6198-.3096.8364-.816 1.5859-1.4765 2.1851-.6606.5992-1.4557 1.0304-2.3183 1.2572-.8625.2268-1.7669.2424-2.6367.0456-.8698-.1969-1.6795-.6003-2.3603-1.1764l-.9899.9869c.8435.7375 1.8529 1.2599 2.942 1.5225 1.0892.2627 2.2257.2579 3.3126-.014 1.0869-.2719 2.0918-.8028 2.929-1.5473.8371-.7446 1.4817-1.6807 1.8786-2.7284.3968-1.0478.5342-2.176.4004-3.2883-.1338-1.1124-.5348-2.1758-1.1688-3.0996-.634-.9237-1.4821-1.6803-2.472-2.2051-.9899-.5248-2.092-.8022-3.2124-.8086h.003zM121.51 77.8428c3.061 0 5.412 2.4904 5.412 5.5528v.0434h1.392v-.0434c0-3.8292-2.975-6.9455-6.804-6.9455-.991-.0003-1.97.2119-2.872.6224-.901.4105-1.705 1.0097-2.355 1.7571l.987.9869c.52-.6181 1.169-1.1151 1.901-1.456.733-.341 1.531-.5177 2.339-.5177z" fill="#00BAFC"/><path d="M128.313 83.5782h-1.393c-.006.8918-.226 1.7691-.643 2.5575-.417.7884-1.018 1.4648-1.751 1.9719-.734.5072-1.579.8301-2.464.9415-.885.1113-1.783.0079-2.62-.3016-.836-.3095-1.585-.816-2.185-1.4765-.599-.6605-1.03-1.4557-1.257-2.3182-.227-.8625-.242-1.767-.045-2.6368.196-.8698.6-1.6794 1.176-2.3603l-.983-.9868c-.737.8434-1.259 1.8528-1.522 2.9419-.263 1.0892-.258 2.2257.014 3.3126.272 1.0869.803 2.0918 1.547 2.929.745.8372 1.681 1.4817 2.729 1.8786 1.047.3969 2.176.5343 3.288.4005 1.112-.1338 2.176-.5349 3.1-1.1689.923-.634 1.68-1.4821 2.205-2.472.525-.9898.802-2.092.808-3.2124h-.004z" fill="#00BAFC"/><path opacity=".5" d="M101.323 76.9293l-.277 1.3867c2.038.8221 3.341 2.8198 3.341 5.1484 0 1.0007-.27 1.9829-.782 2.8426-.512.8598-1.247 1.5651-2.127 2.0414-.88.4762-1.8728.7058-2.8726.6643-.9999-.0415-1.9699-.3525-2.8075-.9001-.8376-.5476-1.5116-1.3114-1.9506-2.2106-.4391-.8992-.627-1.9004-.5438-2.8976.0833-.9973.4345-1.9535 1.0166-2.7674.5821-.814 1.3734-1.4555 2.2902-1.8566l-.617-1.2505c-1.1381.5124-2.1171 1.322-2.8338 2.3438-.7168 1.0218-1.1448 2.218-1.2391 3.4625-.0943 1.2446.1487 2.4915.7034 3.6096s1.4005 2.066 2.4485 2.744c1.0479.6779 2.2593 1.0607 3.5065 1.1083 1.2472.0475 2.4842-.2421 3.5802-.8383 1.097-.5963 2.013-1.4771 2.651-2.5497.638-1.0727.975-2.2975.976-3.5457 0-3.0055-1.779-5.5692-4.463-6.5351z" fill="#00BAFC"/><path d="M99.0153 77.8323c.6652-.0003 1.3237.1363 1.9337.4013l.277-1.3852c-.706-.2715-1.455-.4101-2.2107-.4088-.9811 0-1.951.2087-2.8453.6125l.623 1.2474c.7002-.3088 1.4571-.4679 2.2223-.4672z" fill="#00BAFC"/></g><defs><linearGradient id="paint0_linear" x1="46.1392" y1="128.598" x2="46.1392" y2="65.3548" gradientUnits="userSpaceOnUse"><stop stop-color="gray" stop-opacity=".25"/><stop offset=".54" stop-color="gray" stop-opacity=".12"/><stop offset="1" stop-color="gray" stop-opacity=".1"/></linearGradient><clipPath id="clip0"><path fill="#fff" transform="translate(.389931)" d="M0 0h169.22v130H0z"/></clipPath></defs></svg>