<svg width="180" height="130" fill="none" xmlns="http://www.w3.org/2000/svg"><g clip-path="url(#clip0)"><path opacity=".1" d="M57.6649 4.90378C62.496.605114 70.0765-.276113 76.9759.0661273 98.6494 1.14245 118.213 11.6064 135.135 23.4426c6.127 4.2838 12.159 8.9016 16.135 14.8023 8.101 12.0098 5.694 28.6507-5.562 38.5442-3.83 3.3679-8.473 5.952-13.24 8.2353-8.475 4.0688-17.619 7.3342-27.237 8.2666-6.8593.6614-13.8033.124-20.6217-.8002-19.0513-2.5874-37.7522-8.3014-53.4258-18.0676-6.8746-4.2888-13.3556-9.6175-16.1895-16.5549-2.8338-6.9373-1.0201-15.7248 6-19.83 2.9033-1.698 6.3753-2.4652 9.7729-3.1844 5.0029-1.0597 10.0853-2.1047 14.6005-4.259 4.6624-2.2253 10.1829-6.5306 9.2587-11.4559-.9887-5.294-1.7839-9.93655 3.0388-14.23522zM141.152 118.215c9.995 0 18.097-.52 18.097-1.161s-8.102-1.16-18.097-1.16c-9.995 0-18.098.519-18.098 1.16 0 .641 8.103 1.161 18.098 1.161zM94.1127 110.448c9.9953 0 18.0973-.52 18.0973-1.161s-8.102-1.161-18.0973-1.161c-9.9949 0-18.0974.52-18.0974 1.161s8.1025 1.161 18.0974 1.161zM27.6718 128.859c9.9949 0 18.0974-.519 18.0974-1.16 0-.641-8.1025-1.161-18.0974-1.161-9.9949 0-18.0974.52-18.0974 1.161s8.1025 1.16 18.0974 1.16zM62.0611 130c4.1127 0 7.4466-.214 7.4466-.478s-3.3339-.478-7.4466-.478c-4.1126 0-7.4466.214-7.4466.478s3.334.478 7.4466.478zM173.65 117.592c3.205 0 5.803-.167 5.803-.372 0-.206-2.598-.372-5.803-.372s-5.804.166-5.804.372c0 .205 2.599.372 5.804.372zM120.387 109.783c2.718 0 4.921-.141 4.921-.316 0-.174-2.203-.316-4.921-.316-2.717 0-4.92.142-4.92.316 0 .175 2.203.316 4.92.316z" fill="#00BAFC"/><path d="M174.485 108.292s.777 1.017-.358 2.551c-1.134 1.534-2.073 2.829-1.694 3.784 0 0 1.714-2.848 3.108-2.888 1.394-.04.48-1.733-1.056-3.447z" fill="#00BAFC"/><path opacity=".1" d="M174.485 108.292c.069.098.125.205.165.319 1.361 1.599 2.085 3.09.777 3.128-1.219.035-2.68 2.214-3.031 2.764.012.042.025.084.042.124 0 0 1.714-2.848 3.108-2.888 1.394-.04.474-1.733-1.061-3.447z" fill="#000"/><path d="M175.931 109.586c0 .359-.039.648-.089.648-.05 0-.089-.289-.089-.648 0-.358.049-.188.099-.188.049 0 .079-.169.079.188z" fill="#FFD037"/><path d="M176.427 110.015c-.314.165-.587.274-.611.231-.025-.043.211-.218.525-.39.314-.172.19-.047.214 0 .023.046.186-.013-.128.159z" fill="#FFD037"/><path d="M170.383 108.292s-.777 1.017.358 2.551c1.136 1.534 2.072 2.829 1.693 3.784 0 0-1.712-2.848-3.108-2.888-1.395-.04-.478-1.733 1.057-3.447z" fill="#00BAFC"/><path opacity=".1" d="M170.383 108.292c-.071.098-.126.205-.166.319-1.36 1.599-2.086 3.09-.778 3.128 1.218.035 2.681 2.214 3.03 2.764-.011.042-.025.084-.041.124 0 0-1.713-2.848-3.108-2.888-1.396-.04-.472-1.733 1.063-3.447z" fill="#000"/><path d="M168.938 109.586c0 .359.039.648.089.648.049 0 .091-.289.091-.648 0-.358-.051-.188-.101-.188-.05 0-.079-.169-.079.188z" fill="#FFD037"/><path d="M168.442 110.015c.314.165.588.274.611.231.024-.043-.211-.218-.525-.39-.315-.172-.191-.047-.214 0-.023.046-.187-.013.128.159z" fill="#FFD037"/><path d="M169.194 114.495s2.172-.066 2.827-.532c.655-.467 3.341-1.024 3.505-.276.164.747 3.264 3.718.812 3.738-2.452.02-5.699-.382-6.354-.779-.655-.397-.79-2.151-.79-2.151z" fill="#A8A8A8"/><path opacity=".2" d="M176.373 117.165c-2.452.02-5.699-.382-6.352-.78-.496-.303-.697-1.391-.763-1.893h-.072s.137 1.752.79 2.149 3.9.799 6.354.779c.707 0 .952-.257.939-.63-.1.23-.369.37-.896.375z" fill="#000"/><path d="M121.26 101.834s.662.868-.307 2.181c-.969 1.312-1.772 2.42-1.448 3.238 0 0 1.464-2.437 2.658-2.48 1.194-.043.407-1.474-.903-2.939z" fill="#00BAFC"/><path opacity=".1" d="M121.26 101.834c.058.084.104.176.136.273 1.157 1.367 1.784 2.645.661 2.675-1.041.029-2.293 1.894-2.592 2.366.01.036.022.071.036.105 0 0 1.465-2.437 2.659-2.48 1.194-.043.41-1.474-.9-2.939z" fill="#000"/><path d="M122.495 102.942c0 .305-.034.553-.076.553-.041 0-.077-.248-.077-.553 0-.306.043-.166.086-.166s.067-.14.067.166z" fill="#FFD037"/><path d="M122.92 103.307c-.269.145-.496.235-.524.197-.028-.038.182-.185.45-.331.268-.145.165-.04.184 0 .018.04.158-.013-.11.134z" fill="#FFD037"/><path d="M117.749 101.834s-.662.868.306 2.181c.967 1.312 1.774 2.42 1.45 3.238 0 0-1.467-2.437-2.661-2.48-1.193-.043-.408-1.474.905-2.939z" fill="#00BAFC"/><path opacity=".1" d="M117.749 101.834c-.059.084-.105.176-.138.273-1.157 1.367-1.783 2.645-.661 2.675 1.043.029 2.293 1.894 2.593 2.366-.01.034-.022.071-.035.105 0 0-1.467-2.437-2.66-2.48-1.194-.043-.412-1.474.901-2.939z" fill="#000"/><path d="M116.512 102.942c0 .305.035.553.078.553s.076-.248.076-.553c0-.306-.043-.166-.086-.166s-.068-.14-.068.166z" fill="#FFD037"/><path d="M116.089 103.307c.268.145.496.235.522.197.027-.038-.18-.185-.45-.331-.269-.145-.165-.04-.183 0-.018.04-.159-.013.111.134z" fill="#FFD037"/><path d="M116.724 107.141s1.858-.058 2.419-.456c.56-.399 2.86-.877 2.999-.237.139.64 2.792 3.183.694 3.199-2.098.017-4.876-.33-5.434-.661-.559-.331-.678-1.845-.678-1.845z" fill="#A8A8A8"/><path opacity=".2" d="M122.874 109.424c-2.1.018-4.877-.33-5.436-.661-.425-.26-.595-1.19-.651-1.62h-.063s.117 1.498.678 1.838c.56.341 3.336.685 5.434.662.605 0 .815-.22.804-.539-.078.205-.316.317-.766.32z" fill="#000"/><g opacity=".8"><path opacity=".8" d="M24.9785 102.799c2.4449.001 4.8347.727 6.8672 2.086 2.0324 1.359 3.6163 3.29 4.5514 5.549.9352 2.259 1.1795 4.745.7021 7.143-.4773 2.398-1.6549 4.6-3.3838 6.329-1.729 1.729-3.9317 2.906-6.3296 3.383-2.398.477-4.8836.232-7.1425-.703-2.2589-.935-4.1898-2.52-5.5485-4.552-1.3587-2.033-2.0842-4.423-2.0849-6.868-.0011-1.624.3181-3.233.9393-4.734s1.5323-2.865 2.6811-4.013c1.1487-1.149 2.5127-2.06 4.0138-2.681 1.5011-.621 3.1099-.94 4.7344-.939z" fill="#E74D89"/><path opacity=".8" d="M24.9785 128.406c-2.6188-.003-5.1779-.782-7.3539-2.239-2.1761-1.457-3.8714-3.526-4.8717-5.946-1.0003-2.42-1.2608-5.083-.7485-7.651.5124-2.568 1.7745-4.927 3.6269-6.778s4.212-3.111 6.7805-3.621c2.5685-.511 5.2307-.248 7.6501.754 2.4194 1.002 4.4875 2.699 5.9428 4.876 1.4553 2.177 2.2325 4.737 2.2335 7.355-.0031 3.515-1.4014 6.885-3.8877 9.37-2.4863 2.484-5.8572 3.88-9.372 3.88zm11.1781-11.436c-2.2891-.667-4.6947-.837-7.0547-.496.9666 2.621 1.704 5.32 2.2039 8.068 1.2857-.86 2.3801-1.977 3.2147-3.28.8347-1.303 1.3917-2.764 1.6361-4.292zm-6.7538 8.617c-.5323-2.928-1.3405-5.799-2.4139-8.576-.0228.011-.0475.018-.0727.02-6.3918 2.227-8.6817 6.652-8.8884 7.065 1.9844 1.546 4.4285 2.385 6.944 2.382 1.5204.011 3.0266-.292 4.4244-.891h.0066zm-12.8349-2.848c.258-.435 3.3662-5.572 9.2091-7.469.1439-.051.2993-.092.4448-.133-.2794-.644-.5903-1.285-.9226-1.917-5.6544 1.688-11.1451 1.616-11.6428 1.606 0 .114-.0099.228-.0099.34.0033 2.799 1.0442 5.497 2.9214 7.573zm-2.6734-9.882c3.5332-.016 7.0503-.479 10.4673-1.378-1.2809-2.252-2.6816-4.434-4.1962-6.537-1.5851.746-2.9761 1.849-4.064 3.222-1.088 1.373-1.8434 2.979-2.2071 4.693zm8.432-8.68c1.5532 2.109 2.9655 4.318 4.2276 6.613 4.0292-1.511 5.7271-3.791 5.9355-4.08-2.0699-1.839-4.7429-2.853-7.5111-2.849-.8934.006-1.7831.114-2.652.322v-.006zm11.4163 3.842c-.2381.322-2.1345 2.756-6.3191 4.464.258.539.5175 1.088.7556 1.637.0827.197.1653.393.2497.58 3.7696-.478 7.5094.289 7.8831.362-.0279-2.572-.9345-5.058-2.5693-7.045v.002z" fill="#B2215A"/></g><path d="M55.6396 77.4256c-.2993-.3753-.6399-2.9561-.6399-2.9561l-1.3226-6.577-.6845-3.7894s-.1653-4.7864-3.1612-7.1606l-.2331-.1836v-.1273c-.0273-.4622-.1283-.9171-.2993-1.3474-.0723-.1394-.1092-.2944-.1074-.4514.0077-.0618.028-.1215.0595-.1752.1404-.1924.3253-.3479.539-.4531.5439-.3306 1.0069-.8514 1.1325-1.4681-.0008-.0138-.0008-.0276 0-.0413 0-.0265 0-.0546.0116-.0827.0116-.0281 0-.0298 0-.0463.0016-.0286.0016-.0573 0-.086v-.0364-.1025c-.0008-.0071-.0008-.0143 0-.0215 0-.038-.0083-.0777-.0149-.1157v-.0083c-.0299-.2237-.1159-.4362-.25-.6178-.1341-.1815-.312-.3262-.5171-.4204.0745-.0178.1438-.0526.2026-.1016.0588-.0491.1055-.1111.1363-.1812.0204-.0406.0365-.0833.0479-.1273.0113-.041.0185-.0831.0215-.1256v-.0199c.0025-.0363.0025-.0728 0-.1091v-.0347c-.005-.0364-.0127-.0723-.0231-.1075.0008-.0093.0008-.0187 0-.0281l-.0099-.0231c-.1108-.3175-.3737-.5622-.6002-.8168-1.3061-1.4632-1.5591-3.5216-1.9145-5.4295-.1968-1.0582-.5688-2.2634-1.5939-2.6652-.2897-.0918-.5845-.1669-.8828-.2248-.9094-.2414-1.6534-.8763-2.5429-1.1871-.6007-.2063-1.2432-.2602-1.8699-.1571-.4778.0794-.8779.3141-1.3392.4249-.992.243-2.1956-.0281-2.976.7738-.5472.5571-.5902 1.4069-.8597 2.1328-.5093 1.3474-1.8319 2.3279-2.1742 3.7282-.2199.9027.0083 1.8187.248 2.7264.1806.6097.3024 1.2353.3638 1.8682.0091.1597.0091.3198 0 .4795-.0354.4661-.1407.9243-.3125 1.359-1.1177.4134-2.2733.9011-2.3593 1.1756-.1653.5406-2.8636 2.0815-2.8636 2.0815s-1.025.8746-1.025 1.2069c0 .3324-.3406 1.374-.5556 1.374-.2149 0-.6398 4.2044-.6398 4.2044v4.3714s-1.5789 5.1617-1.9427 9.7414c0 0-.6382 2.9248.4034 4.6029.1363.2277.3101.4306.5142.6002l.5324 1.3904c.1873-.3127.4253-.5921.7043-.8266.0265.1736.0562.3769.0926.6034.0446.2844.0976.6068.1653.9524-.3306.5175-1.1292 1.6004-2.0881 2.0055-.8862.3736.2678 1.3623 1.0647 1.9393-.2116 1.0532-.5175 2.3461-.7655 2.5147-.4282.291-1.7938 3.9548-1.7938 3.9548s-2.69 6.2831 1.1755 6.9941c3.8655.71 5.8363-.958 5.8363-.958h.9258s1.1259-.635 1.1574-1.9474c.6299-.5191 1.5971-1.3425 1.7938-1.6748.1968-.3323-.3455-1.4136-.6894-2.0039l.0909-.1653s3.6754-4.7037 4.1449-4.2044c.4696.4993.7688 1.2896.5555 1.7905l.2017 2.8818v4.4955s-.5274 2.04 0 2.248c.5275.209 0 .992 0 .992s.1968.916.2332 1.207c.0189.375.0189.75 0 1.125l-.1769 4.497-.3423 6.659s-.3836.543-.0843.916c.2993.374.1653 1.25.0843 1.416-.081.165-.1273 1.54-.1273 1.54s-1.24 1.29-.2563 1.624l.0381.012c-.4067.377-.4117 1.225-.3803 1.488.0314.262-.2612 1.322-.4811 1.922-.044.153-.1121.298-.2017.429-.1505.105 0 1.271 0 1.271s4.8046.395 5.2113 0c.1653-.154.124-.527.0083-.959-.1846-.626-.4305-1.232-.7341-1.81-.2794-.519-.1488-1.186-.1488-1.186v-.496c.3224.052.5323.081.5323.081s.5986-.496.3423-.957c-.2563-.461.4695-3.037.4695-3.037s.8118-2.915.8118-3.206c0-.291 1.0681-4.079 1.0681-4.079s1.5806-6.702.8118-9.867c0 0 .6828-.79.5968-.992-.086-.202-.2844-1.083.0083-1.4564.2926-.3737 1.531-5.0377 1.8732-5.828.1571-.3654.5506-1.374.9275-2.3577 1.7013-.2546 3.7283-.7241 3.7283-.7241s-.3026-1.288-.5274-2.604l.1852-.9044.0661-.3125c.1527.15.2886.3163.4051.496l.3405-1.6649s.0381-.0579.1025-.1653c.3985-.6233 1.8501-2.8636 2.5462-3.5431.8118-.8052.3009-4.3863 0-4.76z" fill="url(#paint0_linear)"/><path d="M45.2748 49.572h-4.712v5.2906h4.712V49.572z" fill="#925978"/><path opacity=".1" d="M45.2748 49.572h-4.712v5.2906h4.712V49.572z" fill="#000"/><path d="M33.6585 95.1626s1.1987 1.9013.9093 2.3973c-.2893.496-2.27 2.108-2.27 2.108l-.5853-3.968 1.946-.5373z" fill="#FF6484"/><path d="M29.9385 101.28l.8746-.124h.8961s1.1904-.685 1.1226-2.108c-.0678-1.4235 0-2.8107 0-2.8107l-2.8933 5.0427z" fill="#575988"/><path opacity=".1" d="M29.9385 101.28l.8746-.124h.8961s1.1904-.685 1.1226-2.108c-.0678-1.4235 0-2.8107 0-2.8107l-2.8933 5.0427z" fill="#000"/><path d="M31.7092 81.8946l-4.96 5.456s-.5787 3.596-.992 3.8853c-.4133.2894-1.7261 3.9267-1.7261 3.9267s-2.6007 6.2414 1.1375 6.9444c3.7382.702 5.6412-.951 5.6412-.951l3.1744-5.7454s3.5563-4.6707 4.011-4.1747c.4547.496.744 1.2814.5373 1.7774l.1935 2.852v4.4637s-.5093 2.026 0 2.232c.5092.207 0 .992 0 .992s.1917.91.2265 1.199c.0347.289 0 1.116 0 1.116l-.1654 4.464-.3306 6.613s-.372.538-.0827.91.1653 1.24.0827 1.405c-.0827.165-.124 1.529-.124 1.529s-1.1987 1.282-.248 1.612c.9506.331 3.72.744 3.72.744s.5786-.496.3306-.95c-.248-.455.4547-3.018.4547-3.018s.7853-2.893.7853-3.182c0-.29 1.0334-4.051 1.0334-4.051s1.5293-6.655.7853-9.796c0 0 .6613-.785.5787-.992-.0827-.207-.2761-1.075 0-1.4467.2761-.372 1.488-5.0014 1.8186-5.7867.3307-.7853 1.736-4.588 1.736-4.588v-7.0267l-17.6179-.4133z" fill="#575988"/><path d="M46.5165 56.9706l-2.8537 5.3915-.7522 1.4186-.1141.2166-7.3574.2893s-.2099-.4646-.5075-1.1854c-.5142-1.2483-1.2913-3.2687-1.6831-4.9733-.097-.4079-.1688-.8215-.215-1.2383-.1091-1.0317.0563-1.7674.7176-1.8303.1671-.0151.3355.0023.496.0513.4598.1358.9413.1824 1.4186.1372 1.7459-.2116 2.2568-2.0551 2.3427-3.7878 0-.1223.0116-.2447.0133-.3653 0-.3754 0-.7391-.0248-1.0731-.0332-.5664-.0983-1.1306-.1951-1.6897.4369-.2139.8945-.3829 1.3656-.5042 1.3954-.3572 3.3612-.3472 3.3877 2.5296-.0029.6375.0602 1.2735.1885 1.898.0744.3559.1939.7009.3554 1.0267.4845.9308 1.1574 1.0317 1.4732 1.0201.0583.0001.1165-.006.1736-.0182l1.7707 2.6867z" fill="#FFC5CB"/><path opacity=".1" d="M39.1724 60.0921c.1018.2929.1538.6009.1537.911.0313.3266.0235.6557-.0231.9804-.0471.3285-.2101.6294-.4596.8482M41.254 52.6752c2.4425 0 4.4226-1.9801 4.4226-4.4226 0-2.4426-1.9801-4.4227-4.4226-4.4227-2.4426 0-4.4227 1.9801-4.4227 4.4227 0 2.4425 1.9801 4.4226 4.4227 4.4226z" fill="#000"/><path d="M45.675 48.0872c.0004.8888-.2672 1.7571-.7677 2.4916-.5006.7344-1.2109 1.301-2.0382 1.6257-.8274.3247-1.7334.3924-2.5999.1945-.8665-.198-1.6532-.6526-2.2574-1.3044-.0386-.0393-.075-.0807-.1091-.124-.4655-.5404-.7934-1.1854-.9556-1.8799-.1622-.6945-.1539-1.418.0241-2.1086.1779-.6907.5204-1.3281.998-1.8577.4777-.5296 1.0764-.9359 1.7451-1.184.6687-.2481 1.3875-.3308 2.095-.2409.7075.0899 1.3828.3496 1.9683.7569.5854.4074 1.0636.9504 1.3937 1.5826.3301.6323.5023 1.335.502 2.0482h.0017z" fill="#FFC5CB"/><path opacity=".1" d="M34.1545 59.1199s1.5707 4.092 4.8774 3.4307c0 0 3.3381.2612 5.2493-2.1907 1.9113-2.4519 2.0254 14.0534 2.0254 14.0534l-.744 10.9533s-5.3287 3.1826-7.6434 2.7693c-2.3147-.4133-3.4307-1.6533-3.4307-1.6533s-2.4386-2.2734-3.1-2.5627c-.6613-.2893.2894-14.384.2894-14.384l.7853-5.2906 1.6913-5.1254z" fill="#000"/><path d="M34.1545 58.7892s1.5707 4.092 4.8774 3.4307c0 0 3.3381.2612 5.2493-2.1907 1.9113-2.4518 2.0254 14.0534 2.0254 14.0534l-.744 10.9533s-5.3287 3.1827-7.6434 2.7694c-2.3147-.4134-3.4307-1.6534-3.4307-1.6534s-2.4386-2.2733-3.1-2.5626c-.6613-.2894.2894-14.384.2894-14.384l.7853-5.2907 1.6913-5.1254z" fill="#E8F4FF"/><path opacity=".1" d="M33.9892 81.8946s3.5547 3.968 3.348 4.3813c-.2066.4134-3.4306-3.1826-3.348-4.3813zM33.3775 72.0275s1.1358 1.5873 1.8467 1.4219l-1.8467-1.4219z" fill="#000"/><path opacity=".1" d="M35.8327 55.1106s0 .0479-.0116.1372c-.038.5076-.1802 2.3477-.372 4.3979-.1075 1.1573-.2298 2.3709-.3555 3.4554-.205 1.7642-.4232 3.1761-.6084 3.3762-.5373.5786-.3307 6.0346-.3307 6.0346v6.9027s-.453 2.1906-.8266 2.6866c-.3737.496-1.2863 2.356-2.0171 2.604-.2571.1409-.4881.3249-.6828.544-.6614.6613-1.5972 1.7641-2.3147 2.6337-.5919.7259-1.03 1.2863-1.03 1.2863s-2.8934-1.8186-1.6534-2.356c.9276-.4017 1.6947-1.4764 2.0204-1.984.1108-.1653.1653-.2827.1653-.2827.0586-.3853.1465-.7655.2629-1.1375.105-.3506.2592-.6846.458-.992.1513-.2557.3972-.4416.6845-.5175 1.0746-.2066 1.612-10.416 1.612-10.416l-3.3067-7.2151-.3307-.7209s.4134-4.1746.62-4.1746c.2067 0 .5374-1.0334.5374-1.364 0-.3307.992-1.1987.992-1.1987s2.6222-1.5343 2.7875-2.0716c.0876-.2827 1.2896-.7936 2.4089-1.2136 1.0052-.3769 1.9427-.6811 1.9427-.6811.5472.8333-.6514 2.2667-.6514 2.2667z" fill="#000"/><path d="M35.6673 55.1106s0 .0479-.0115.1372c-.0381.5076-.1802 2.3477-.372 4.3979-.1075 1.1573-.2298 2.3709-.3555 3.4554-.205 1.7642-.4233 3.1761-.6084 3.3762-.5374.5786-.3307 6.0346-.3307 6.0346v6.9027s-.453 2.1906-.8267 2.6866c-.3736.496-1.2863 2.356-2.017 2.604-.2571.1409-.4881.3249-.6829.544-.6613.6613-1.5971 1.7641-2.3146 2.6337-.5919.7259-1.0301 1.2863-1.0301 1.2863s-2.8933-1.8186-1.6533-2.356c.9275-.4017 1.6947-1.4764 2.0204-1.984.1108-.1653.1653-.2827.1653-.2827.0586-.3853.1464-.7655.2629-1.1375.105-.3506.2592-.6846.458-.992.1513-.2557.3972-.4416.6844-.5175 1.0747-.2066 1.6121-10.416 1.6121-10.416l-3.3067-7.2151-.3307-.7209s.4133-4.1746.62-4.1746.5373-1.0334.5373-1.364c0-.3307.992-1.1987.992-1.1987s2.6222-1.5343 2.7876-2.0716c.0876-.2827 1.2896-.7936 2.4089-1.2136 1.0052-.3769 1.9427-.6811 1.9427-.6811.5472.8333-.6515 2.2667-.6515 2.2667z" fill="#FF6484"/><path opacity=".1" d="M52.1081 64.6074l-3.5695 4.1845s3.1 16.0787 2.728 16.8227c-.0284.0618-.0468.1276-.0546.1951-.0382.3853-.031.7737.0215 1.1573.043.4051.1091.8548.1835 1.3029.2183 1.3061.5109 2.5858.5109 2.5858s-4.1747.992-5.456.868c-1.2813-.124-.5373-2.1907-.3307-3.1413.2067-.9507-1.4053-2.2816-1.4053-2.2816l-2.2733-9.3331s-.1654-2.0667-.6614-3.0587-.0413-2.0667-.2066-3.472c-.1174-1.0019.6034-4.583 1.1474-6.6646.2066-.7919.3885-1.3656.496-1.4995.0046-.0073.0102-.014.0165-.0199.3307-.2893 0-1.984 0-1.984s.7853-4.464.7027-4.836c-.0463-.2116.2133-.7308.4464-1.1391.1769-.3092.3389-.5556.3389-.5556s1.5988 1.0135 4.34 3.229l.248.2017c2.8934 2.356 3.0587 7.1093 3.0587 7.1093l-.2811.3291z" fill="#000"/><path d="M52.2734 64.6074l-3.5695 4.1845s3.1 16.0787 2.728 16.8227c-.0284.0618-.0468.1276-.0546.1951-.0382.3853-.031.7737.0215 1.1573.043.4051.1091.8548.1835 1.3029.2183 1.3061.5109 2.5858.5109 2.5858s-4.1747.992-5.456.868c-1.2813-.124-.5373-2.1907-.3307-3.1413.2067-.9507-1.4053-2.2816-1.4053-2.2816l-2.2733-9.3331s-.1654-2.0667-.6614-3.0587-.0413-2.0667-.2066-3.472c-.1174-1.0019.6034-4.583 1.1474-6.6646.2067-.7919.3885-1.3656.496-1.4995.0047-.0073.0102-.014.0165-.0199.3307-.2893 0-1.984 0-1.984s.7854-4.464.7027-4.836c-.0463-.2116.2133-.7308.4464-1.1391.1769-.3092.3389-.5556.3389-.5556s1.5988 1.0135 4.34 3.229l.248.2017c2.8934 2.356 3.0587 7.1093 3.0587 7.1093l-.2811.3291z" fill="#FF6484"/><path opacity=".1" d="M44.7359 66.8492c-.0414.3307.992 17.8974 2.0666 18.9307l-2.0666-18.9307z" fill="#000"/><path d="M30.7999 91.2773c-1.1574.7274-2.0402-1.1871-2.6454-3.3943-.2827-1.0367-.496-2.1378-.6613-3.0604-.0612-.3439-.1124-.6613-.1554-.9457-.1141-.7374-.1653-1.2201-.1653-1.2201l1.2168-.2447 1.3458-.2695.1654 1.5194.0777.6894s.2116.3505.496.8978c.7985 1.6004 2.1543 4.8889.3257 6.0281zM52.0519 85.9535l-.2893 1.4269-.1802.8977-.01.0447s-3.6125 4.8972-4.7699 2.8718c-.8845-1.5475 1.2731-4.0854 2.3379-5.1948.3306-.3439.5555-.5505.5555-.5505l1.6814.3604.6746.1438z" fill="#FFC5CB"/><path d="M42.1318 127.485c-.3935.392-5.0426 0-5.0426 0s-.1455-1.157 0-1.261c.0877-.131.1536-.275.1951-.427.2132-.603.496-1.653.4662-1.908-.0413-.35-.0198-1.756.9292-1.653 0 0 1.24-2.521 2.6056.579v.744c-.0682.398-.0181.807.1439 1.177.2943.575.5324 1.176.7109 1.797.1124.428.1455.797-.0083.952z" fill="#FF6484"/><path d="M42.1318 127.485c-.3935.392-5.0426 0-5.0426 0s-.1455-1.157 0-1.261c.0877-.131.1536-.275.1951-.427.615-.263 1.4516-.517 2.0369-.296.739.281 2.103.774 2.8106 1.032.1207.428.1538.797 0 .952z" fill="#E8F4FF"/><path opacity=".1" d="M37.9985 51.46c.1173.4729.2794.9507.286 1.4335.0099.6613-.2761 1.2995-.5803 1.8947-.3472.6812-.7391 1.4119-.6234 2.1675.0627.2864.145.5681.2464.8432.2567.8866.173 1.8371-.2348 2.6652-.2711.5472-.8266 1.0763-1.4202.8994-.0446-.5836-.1174-1.2202-.3935-1.7178-.1092-.2021-.2596-.3789-.4414-.5192-.4299-.3306-1.0234-.4001-1.4136-.7737-.0702-.0672-.1318-.1427-.1835-.2249-.1901-.3206-.2713-.6941-.2315-1.0647 0-.0562.0116-.1125.0215-.1654.0797-.4023.2143-.7917.4001-1.1573.1025-.2215.21-.4431.3174-.6613.2486-.4941.4576-1.0072.625-1.5343 1.0052-.377 1.9427-.6812 1.9427-.6812.5505.8267-.6481 2.2667-.6481 2.2667s0 .048-.0116.1373c1.7459-.2315 2.2634-2.075 2.3428-3.8077zM40.4752 45.2402c-.4828.1537-.9441.4612-1.1574.9242-.2281.5125-.1107 1.1044-.1653 1.6632-.0124.1225-.0357.2437-.0694.3621-.205.6861-.8482 1.1706-1.1012 1.8319-.0181.0496-.0347.0992-.0496.1521-.0667.2604-.0785.5317-.0347.7969-.591-.688-.956-1.5412-1.0455-2.4438-.0894-.9026.101-1.8108.5455-2.6015.4444-.7906 1.1214-1.4253 1.939-1.818.8176-.3927 1.7362-.5244 2.6311-.377.895.1473 1.723.5664 2.3715 1.2004.6486.634 1.0864 1.4523 1.254 2.3437.1676.8913.0569 1.8127-.3172 2.639-.374.8263-.9932 1.5175-1.7736 1.9798.1868-.5572.3836-1.1127.5357-1.6815.3571-1.3375.4183-2.8834-.4232-3.9828-.3654-.4588-.8595-.7979-1.4188-.9741-.5594-.1761-1.1586-.1812-1.7209-.0146zM49.1123 58.6272c-.1455.5274-.5159 1.1061-1.0615 1.0813-.2595-.0116-.496-.1653-.7556-.1901-.3686-.0331-.7175.205-.939.496-.201.3123-.3758.6408-.5225.9821-.4067.7903-1.2036 1.5012-2.0832 1.3772l-.0909-.0166c-.0902-.0179-.1783-.0451-.2629-.081-.7887-.3306-1.2152-1.3458-1.1871-2.2435.0331-1.0235.4613-1.9923.6018-3.0075.1306-.9357.0116-1.8897.1124-2.8288.0343-.3098.0896-.6169.1654-.9193.4844.9309 1.1573 1.0317 1.4731 1.0201.1769-.3091.3389-.5555.3389-.5555s1.5988 1.0135 4.34 3.229c.0622.5554.0185 1.1175-.1289 1.6566z" fill="#000"/><path d="M42.8792 40.3265c.858.3092 1.5805.9391 2.4601 1.1788.2891.0569.5745.1309.8548.2216.992.3984 1.3524 1.5954 1.5426 2.6453.3422 1.8947.5885 3.9382 1.8517 5.3915.2248.2579.4861.5059.5902.8267.1042.3207-.0363.7638-.372.8349.5754.2431.8581.954.7374 1.5674-.1207.6134-.5687 1.1193-1.0961 1.4566-.2464.1653-.544.3306-.5771.6216-.002.1561.0338.3104.1042.4497.3408.884.39 1.8538.1405 2.7677-.1455.5258-.5158 1.1061-1.0614 1.0813-.2596-.0116-.496-.1654-.7539-.1902-.3704-.033-.7176.2051-.9408.496-.2013.3122-.3761.6407-.5224.9821-.4051.7903-1.202 1.5013-2.0832 1.3773-1.0135-.1439-1.5723-1.3227-1.5409-2.3412.0314-1.0184.4629-1.9922.6034-3.0074.129-.9358.0099-1.8897.1125-2.8288.1488-1.3756.7621-2.6536 1.1193-3.9895.3571-1.3359.4166-2.8834-.4249-3.9829-.365-.4598-.8591-.7999-1.4189-.9767-.5598-.1768-1.1596-.1821-1.7225-.0153-.4844.1538-.944.4613-1.1573.9242-.2778.625-.0413 1.369-.2364 2.0253-.2199.7374-.9474 1.2434-1.1574 1.984-.2447.8912.3307 1.7972.3472 2.7198.01.6613-.2761 1.2995-.5786 1.8947-.3489.6812-.7407 1.4119-.6233 2.1675.062.2864.1438.5681.2446.8432.2623.891.1809 1.8479-.2281 2.6817-.2712.5473-.8366 1.0763-1.4202.8994-.0645-.8184-.1802-1.7409-.835-2.2369-.4315-.3307-1.025-.4001-1.4152-.7754-.1605-.1715-.2812-.3763-.3535-.5998-.0723-.2235-.0944-.4601-.0648-.6931.0621-.4653.2048-.9163.4216-1.3326.4745-1.0251 1.0515-2.0469 1.1176-3.1744.0992-1.7013-.992-3.3778-.5952-5.0377.3307-1.3888 1.6137-2.3627 2.0998-3.7052.2596-.7208.3009-1.5657.8266-2.1195.7606-.7953 1.9229-.5258 2.8851-.7655.4464-.1124.8267-.3439 1.2962-.4216.6111-.1072 1.2395-.0536 1.8237.1554z" fill="#925978"/><path opacity=".1" d="M31.1405 75.6086v5.3733c0 .2216 0 .4514-.0133.6829-.0562 1.488-.2827 3.0371-.2827 3.0371-.2645-.3895-.5829-.7397-.9457-1.0399-.7919-.6233-1.4665-.544-1.9741-.2596-.2193.1272-.4178.2872-.5886.4745-.114-.7374-.1653-1.2201-.1653-1.2201l1.2169-.2447c.1513-.2558.3972-.4417.6844-.5175 1.0747-.2067 1.612-10.416 1.612-10.416l-3.3066-7.2152v-.3521l1.1176-1.7774c1.86-1.612 2.3147.7027 2.3147.7027s.3307 6.2827.3307 6.448v6.324z" fill="#000"/><path d="M30.8098 75.2399v5.3733c0 .2216 0 .4514-.0132.6828-.0562 1.488-.2827 3.0372-.2827 3.0372-2.3147-3.2653-3.9482-.2315-3.9482-.2315l-.5158-1.3805c-.1975-.1693-.3651-.3705-.496-.5952-1.0069-1.6665-.3902-4.5715-.3902-4.5715.3521-4.5466 1.8798-9.672 1.8798-9.672v-4.34l1.121-1.7773c1.86-1.612 2.6453.7027 2.6453.7027v12.772z" fill="#FF6484"/><path opacity=".1" d="M30.7999 81.1308c-.0562 1.488-.2828 3.0371-.2828 3.0371-2.3146-3.2653-3.9481-.2314-3.9481-.2314l-.5159-1.3806c-.1974-.1693-.365-.3705-.496-.5952 1.078-.5935 3.4539-1.688 5.2428-.8299z" fill="#000"/><path d="M30.7999 81.2961c-.0562 1.488-.2828 3.0372-.2828 3.0372-2.3146-3.2654-3.9481-.2315-3.9481-.2315l-.5159-1.3805c-.1974-.1693-.365-.3705-.496-.5952 1.078-.5936 3.4539-1.6881 5.2428-.83z" fill="#FF6484"/><path opacity=".1" d="M30.7999 81.2961c-.0562 1.488-.2828 3.0372-.2828 3.0372-2.3146-3.2654-3.9481-.2315-3.9481-.2315l-.5159-1.3805c-.1974-.1693-.365-.3705-.496-.5952 1.078-.5936 3.4539-1.6881 5.2428-.83z" fill="#fff"/><path opacity=".1" d="M27.6685 70.1146s.744 4.092 1.488 5.2907c.744 1.1986-1.488-5.2907-1.488-5.2907zM25.7638 77.0586s.4547 2.48 1.4053 2.7693c.9507.2893-1.4053-2.7693-1.4053-2.7693zM51.3773 85.8097l.6745.1438-.2893 1.4269c-.1098-.1449-.2315-.2804-.3637-.4051-.6124-.5841-1.4134-.9301-2.2585-.9755-.3674-.0236-.7363-.0002-1.0978.0695.1574-.5616.2614-1.1367.3108-1.7179.0295-.2183-.0068-.4405-.1041-.6381-.3307-.4547-.496-4.6707-.496-4.6707s.2893-2.1493.4546-2.5627c.1654-.4133-.7439-2.5263-.7026-3.1645.0413-.6381.5373-6.1355.5373-6.4248 0-.2893 1.0747-5.952 3.3067-3.8027l.868 1.1987.0562.3207-3.5696 4.1846s3.1 16.0787 2.728 16.8227c-.0283.0617-.0468.1276-.0545.1951z" fill="#000"/><path d="M55.1138 82.2253c-.6746.6746-2.0782 2.9-2.4635 3.5183l-.0992.1654-.3306 1.6533s-1.1574-1.984-3.844-1.488c.1573-.5616.2614-1.1367.3108-1.7178.0294-.2184-.0068-.4405-.1042-.6382-.3306-.4547-.496-4.6707-.496-4.6707s.2894-2.1493.4547-2.5627c.1653-.4133-.744-2.5263-.7027-3.1644.0414-.6382.5374-6.1356.5374-6.4249 0-.2893 1.0746-5.952 3.3066-3.8027l.868 1.1987.6614 3.7613 1.2813 6.5307s.3307 2.5627.62 2.9347c.2893.372.782 3.9217 0 4.707z" fill="#FF6484"/><path opacity=".1" d="M52.647 85.5782l-.0992.1654-.3306 1.6533s-1.1574-1.984-3.844-1.488c.1573-.5616.2614-1.1367.3108-1.7178.9209.0579 2.7759.3174 3.963 1.3871z" fill="#000"/><path d="M52.647 85.7436l-.0992.1653-.3306 1.6534s-1.1574-1.984-3.844-1.488c.1573-.5616.2614-1.1368.3108-1.7179.9209.0579 2.7759.3175 3.963 1.3872z" fill="#FF6484"/><path opacity=".1" d="M52.647 85.7436l-.0992.1653-.3306 1.6534s-1.1574-1.984-3.844-1.488c.1573-.5616.2614-1.1368.3108-1.7179.9209.0579 2.7759.3175 3.963 1.3872z" fill="#fff"/><path opacity=".1" d="M49.9438 74.1239s2.8107-.0347 3.224 1.4285c.4134 1.4632-3.224-1.4285-3.224-1.4285zM49.4065 78.2573s4.7533-.2067 4.5467 1.86c-.2067 2.0667-4.5467-1.86-4.5467-1.86zM49.6958 81.4399s.372-.0826.62.7853c.248.868-.62-.7853-.62-.7853zM40.0685 101.652s1.1325-.331 1.6533 0c.5208.331-1.6533 0-1.6533 0zM40.2719 102.851s2.6866.041 2.9346.33c.248.29-2.9346-.33-2.9346-.33z" fill="#000"/><g opacity=".1" fill="#000"><path opacity=".1" d="M34.5497 51.7246c.0793-1.3524-.587-2.6867-.6696-4.011-.086 1.3359.5919 2.6817.6613 4.0441.0035-.0108.0063-.0219.0083-.0331zM37.7059 53.9599c-.3439.6713-.7275 1.3888-.6283 2.1345.0711-.5671.3621-1.116.6283-1.6368.3025-.5952.5886-1.2268.5803-1.8948 0-.0727-.005-.1454-.0149-.2182-.0578.5654-.3058 1.1044-.5654 1.6153zM49.8034 50.9359c.1226.0519.2347.1259.3306.2183.0825-.1735.0979-.3714.043-.5556 0 0 0-.0148-.0082-.0231-.0234.0871-.0696.1664-.1338.2298-.0642.0633-.1442.1084-.2316.1306zM37.0925 59.6358c-.2712.5472-.8366 1.0763-1.4202.8994-.0645-.8184-.1802-1.741-.835-2.237-.4315-.3306-1.025-.4001-1.4136-.7737-.2327-.2367-.3774-.546-.41-.8763 0 .0264-.0083.0529-.0099.0794-.0298.2331-.0076.4699.065.6935.0726.2235.1938.4282.3549.5994.3886.3753.9821.4497 1.4136.7754.6614.496.7705 1.4186.835 2.237.5836.1769 1.149-.3522 1.4202-.8995.2826-.5808.4086-1.2254.3654-1.8699-.0313.4769-.1554.943-.3654 1.3723zM50.5407 52.5034c-.1207.6117-.5688 1.1193-1.0945 1.4565-.248.1654-.5456.3307-.5787.6217-.0076.1131.0117.2264.0562.3307.1355-.1898.3147-.344.5225-.4498.5257-.3306.9738-.8448 1.0945-1.4565.0322-.1777.0322-.3597 0-.5374.0006.0116.0006.0232 0 .0348zM49.1123 57.7989c-.1455.5258-.5142 1.1061-1.0615 1.0813-.2596-.0115-.496-.1653-.7539-.1901-.3704-.0331-.7176.205-.9408.496-.201.312-.3753.6406-.5208.9821-.4067.7903-1.2036 1.5012-2.0832 1.3772-.8795-.124-1.4433-1.0714-1.5293-1.9989 0 .0513-.0116.1025-.0116.1554-.033 1.0234.5258 2.1973 1.5409 2.3412.8796.124 1.6765-.587 2.0832-1.3773.1452-.3416.3194-.6702.5208-.9821.2232-.2959.5704-.534.9408-.496.2579.0248.496.1786.7539.1902.5473.0248.916-.5555 1.0615-1.0813.128-.4658.1777-.9497.1471-1.4318-.0151.3158-.0644.629-.1471.9341zM43.6199 45.8982c.4191.5777.65 1.2704.6613 1.984.043-.8994-.1256-1.7856-.6613-2.4899-.365-.4598-.8591-.7999-1.4189-.9767-.5598-.1768-1.1596-.1821-1.7225-.0153-.4844.1538-.944.4613-1.1573.9242-.2794.625-.043 1.3706-.2381 2.0254-.2199.7373-.9473 1.2433-1.1573 1.984-.0612.2374-.0758.4844-.043.7274.0089-.0775.0233-.1543.043-.2298.2034-.7407.9308-1.2466 1.1573-1.984.1951-.6613-.0413-1.4004.2381-2.0253.2067-.463.6613-.7705 1.1573-.9242.5637-.1659 1.1641-.1593 1.7239.0189.5599.1783 1.0535.5201 1.4175.9813z"/></g><g opacity=".8"><path opacity=".8" d="M94.4317 109.289c7.3233 0 13.2603-5.937 13.2603-13.26 0-7.3232-5.937-13.2598-13.2603-13.2598-7.3231 0-13.2597 5.9366-13.2597 13.2598 0 7.323 5.9366 13.26 13.2597 13.26z" fill="#1769FF"/><path opacity=".8" d="M90.5382 90.0191c.5257-.0043 1.0505.0466 1.5657.1521.4325.0843.8443.2528 1.2118.496.3369.2318.6066.5483.7821.9176.1995.4444.295.9284.2794 1.4153.0186.535-.1255 1.0631-.4133 1.5144-.3114.4333-.7325.7757-1.2202.992.6664.1653 1.2524.562 1.6533 1.1193.3216.5213.5078 1.1148.5416 1.7264.0338.6115-.0859 1.2219-.3481 1.7758-.2255.432-.5515.804-.9507 1.084-.4138.288-.8758.499-1.364.624-.5134.133-1.0418.201-1.5723.201h-5.8197V90.0191h5.6544zm-.3307 4.8641c.4114.0178.8174-.0982 1.1573-.3306.3042-.2205.4558-.5853.4547-1.0945.009-.2391-.0434-.4764-.1521-.6895-.095-.1736-.2342-.319-.4034-.4216-.1792-.1044-.3758-.1755-.5804-.21-.2254-.0391-.4539-.0585-.6828-.0578h-2.48v2.8106l2.6867-.0066zm.1521 5.0989c.2489.0012.4972-.0243.7407-.076.2211-.0441.432-.1294.6216-.2513.1821-.1203.3301-.2854.4299-.4795.1167-.2414.1734-.5074.1653-.7754 0-.6151-.1736-1.0565-.5224-1.3227-.4036-.2814-.8891-.421-1.3805-.3968h-2.8768v3.3067l2.8222-.005zm7.9194-.2529c.3594.3478.8752.5228 1.5476.5228.4444.011.8814-.118 1.2494-.3674.295-.1748.521-.4449.64-.7655h2.103c-.337 1.0439-.853 1.7899-1.549 2.2389-.76.468-1.64.703-2.5327.676-.6321.008-1.26-.104-1.8501-.331-.5288-.204-1.0059-.523-1.3971-.934-.3901-.417-.6911-.9092-.8845-1.4466-.2124-.5939-.3177-1.2209-.3108-1.8517-.0058-.6206.1023-1.2371.3191-1.8187.1994-.5407.5077-1.0347.9059-1.4513.3981-.4167.8776-.7471 1.4087-.9708.5726-.2419 1.189-.3623 1.8104-.3538.6711-.0156 1.3351.1319 1.9361.4299.535.2751.999.6714 1.354 1.1573.36.4962.62 1.0578.766 1.6533.157.6325.213 1.286.165 1.9361h-6.2828c.0331.7704.2298 1.3326.5886 1.6781l.0132-.0016zm2.702-4.5765c-.287-.3141-.722-.4712-1.3049-.4712-.3277-.0115-.6535.0548-.9506.1935-.2344.1136-.441.2772-.6052.4794-.1455.1788-.2545.3844-.3207.6052-.0561.1863-.0927.3781-.1091.572h3.8815c-.11-.6051-.309-1.0647-.598-1.3789h.007zm-3.7072-4.5268h4.8562v1.3475h-4.8562v-1.3475z" fill="#fff"/></g><g opacity=".8"><path opacity=".8" d="M154.352 103.795v.375c-.09 3.174-1.317 6.211-3.456 8.557-2.139 2.347-5.049 3.848-8.202 4.232-.529.063-1.062.094-1.595.094-2.623 0-5.187-.778-7.367-2.235-2.181-1.457-3.88-3.528-4.884-5.951-1.003-2.423-1.266-5.089-.754-7.661.512-2.5726 1.775-4.9353 3.629-6.7896 1.855-1.8544 4.218-3.1171 6.79-3.6285 2.572-.5115 5.238-.2487 7.661.7552 2.423 1.0038 4.494 2.7036 5.951 4.8844 1.456 2.1808 2.234 4.7445 2.234 7.3675h-.007z" fill="#B3BBC6"/><path opacity=".8" d="M154.345 104.17c-.09 3.174-1.316 6.211-3.456 8.557-2.139 2.347-5.049 3.848-8.201 4.231l-10.826-8.053 1.352-8.763 5.354.331 3.045 2.553 2.166-3.53 3.637 3.022 1.956 1.401v-4.4197l4.93 4.5627c.012.037.03.072.043.108z" fill="#666C76"/><path opacity=".8" d="M140.143 104.12c0-2.81-1.728-4.715-5.018-4.715h-3.249v9.46h3.317c3.194 0 4.95-1.934 4.95-4.745zm-2.359.015c0 2.029-1.042 2.907-2.713 2.907h-.852v-5.813h.852c1.603 0 2.713.917 2.713 2.906zm11.696 4.73v-9.46h-2.181v5.291l-3.482-5.291h-2.277v9.459h2.181v-5.661l3.728 5.661h2.031v.001z" fill="#fff"/></g><path d="M144.382 89.6884c-.165-.3307-1.708-2.5429-1.708-2.5429l-.046-.1984-.506-2.2568-.035-.1653c.331-.0843.569-.1885.644-.3191.363-.6365-.308-1.4103-.308-1.4103l-.14-3.3463-.364-8.1014s-.756-2.7114-.868-3.3463c-.113-.6349-1.148-1.9642-1.148-1.9642s.224-.6613-.056-1.1342c-.279-.4728-.896-2.6833-.896-2.6833l-.531-6.1173-.253-6.0182c.254-.0018.507.022.756.0711.036.0298.016-.0446-.036-.1785.012.0021.025.0066.036.0132.086.0694-.144-.4481-.392-.9755l-.03-.0612c.119-.4315.612-2.1791.954-2.8106.255-.4663-.234-3.6853-.608-5.8842-.027-.1571-.053-.3076-.078-.4531.607-1.0614 1.303-2.265 1.303-2.265s1.762-5.0328 2.49-7.2185c.727-2.1857 0-7.8533 0-7.8533s0-.2778-.04-.7109c-.114-1.1706-.55-3.4605-2.227-4.35-2.295-1.2168-3.022-2.7098-3.022-2.7098s-2.864-2.6056-3.226-1.731l-.025-.0496c-.213-.4373-.371-.9001-.467-1.3772-.01-.0496-.019-.0993-.027-.1472.366-.2889.684-.6337.943-1.0218 0 .0728-.012.1455-.017.2183V10.7896c-.002.0303-.002.0607 0 .091v.0545c.106.0104.212-.0118.306-.0634.093-.0517.168-.1305.215-.2259.089-.1909.149-.3944.177-.6035.096-.4452.274-.86888.524-1.24989.245-.37531.572-.75227.615-1.18048.006-.06265.006-.12583 0-.18848-.022-.21824-.124-.4216-.156-.63819-.013-.10981-.013-.22085 0-.33066 0-.06448.015-.12896.025-.19179.01-.06283.027-.16533.038-.25792.012-.09259.022-.14384.03-.21659v-.00826c.023-.19054.023-.38318 0-.57371-.014-.17612-.07-.34632-.163-.49643-.093-.15012-.221-.27581-.373-.36661-.165-.08432-.355-.11077-.52-.19509-.437-.22321-.576-.75888-.827-1.17222-.179-.27554-.42-.5046-.705-.66819-.284-.1636-.604-.25703-.932-.27256-.661-.02645-1.309.26288-1.959.16534-.415-.06614-.797-.29099-1.217-.32075-.613-.04298-1.166.33067-1.663.68944-.352.25296-.728.53899-.843.95563-.093.34059 0 .73243-.192 1.03003-.124.19344-.349.30421-.488.496-.115.15251-.173.34003-.165.53072v.14218c.011.12731.034.25627.056.38192.001.01322.001.02647 0 .03968.05.34886-.063.59355-.189.93414-.053.1436-.083.29488-.089.44805V7.58382c-.002.03195-.002.06395 0 .0959.015.11887.067.23.149.31744.041-.0675.098-.12419.165-.16534V7.9922c.001.58281.118 1.15963.345 1.69635.227.53675.56 1.02245.978 1.42845 0 .0479-.013.0975-.02.1455-.071.496-.165 1.0416-.279 1.564l-.04.1654h-.827s.141-.6084-1.231.1389c-1.373.7473-3.052 1.106-3.307 1.2433-.255.1372-3.358 2.5461-3.358 2.5461s-2.688 1.5475-2.604 4.2028l-.307 2.976-.224 5.5585s-.42 4.7302 0 5.3932c.42.6629 1.148 4.5913 1.007 5.0889-.101.3604.913 2.8934 1.617 4.3698-.189.1993-.364.4115-.524.6349 0 0-.281 1.1077-.281 1.2185 0 0 0 .0115.013.0182-.62.6282-1.608 1.6616-1.608 1.8897 0 .3307.196.62-.111.6002-.308-.0199-.318.3406-.299.5605.018.2198-.374-.1092-.346.3042.028.4133-2.855 6.9142-2.855 6.9142s-1.315 3.181-1.819 3.7068c-.504.5257-1.204 2.8487-1.147 3.7051.056.8564.084 1.1077-.141 1.1077-.225 0-.671.7738-.671.7738l-2.211 6.8035s-.645 2.1013-.84 2.0749c-.195-.0265-.634 3.6109-.634 3.6109s-.475 1.078-.559 1.078c-.017 0 .061.0777.205.2l-.096.081c-.208.1779-.426.3435-.653.496-.009 0-1.278-.8812-2.15-.7985-.871.0826-2.6582.3025-3.5559-.3307-.496-.3538-1.5426-.6613-2.3841-.6746-.6713-.0099-1.2152.1654-1.2533.6746-.0843 1.1325 3.0504 3.2637 3.0504 3.2637s3.3069.9391 3.9469 1.8186c.639.8796 3.283 2.2122 3.283 2.2122s.795-.3505 1.095-.7027c.035-.0336.064-.0744.082-.1197.019-.0453.028-.0941.027-.1432-.056-.4149 1.091-1.9839 1.091-1.9839l.165-.7788c.081-.3852.184-.8547.285-1.2664.013-.0562.026-.1114.039-.1654.132.0066.263-.0136.386-.0595 1.119-.4414 1.231-1.6533 1.231-1.6533l1.675-3.5034s.728-2.0187.951-2.3792c.223-.3604 1.959-3.9812 1.959-3.9812s.308-1.5492.589-2.0187c.281-.4696.307-1.488.307-1.488s.587-1.5492 1.204-2.1576c.444-.4775.829-1.0065 1.147-1.5756 0 0 2.546-4.011 4.282-5.1436 0 0 4.172-5.0889 4.423-5.532.251-.4431 1.035-1.6038 1.984-.5539.949 1.0499 1.958 2.4073 1.958 2.4073l1.709 4.6458 1.903 5.952s.895 1.4368.84 1.741c-.055.3042 1.455 3.0157 1.455 3.0157s.587.992.476 1.488c-.111.496.42.992.42.992l.165 2.0187s.617 1.984.448 2.2965c-.168.3124.589 2.2121.589 2.2121s0 1.6864.279 2.2403c.28.5539.62 2.7644.592 2.9297-.028.1653 0 1.6881 0 1.6881s.197 0 .509-.01l.014.1654.139 1.6649.013.1537c-.075.058-.137.1313-.181.2152-.044.0839-.07.1763-.075.2709 0 .4497.066 1.7707.122 2.8107.013.2761.028.5307.041.744.005.0745.024.1473.058.214.034.0666.08.1257.138.1736.057.0478.124.0835.195.1047.072.0212.147.0275.221.0186.796-.1004 1.603-.0702 2.389.0892.871.2001 1.768.2659 2.659.1951 0 0 .061-.6233.071-1.1821.008-.3571-.005-.6861-.07-.8134z" fill="url(#paint1_linear)"/><path d="M142.241 87.2233h-3.774l-.037-.4447-.137-1.66-.102-1.2565h3.306l.202.9143.498 2.2485.044.1984zM107.548 80.5537c-.071.0695-.189.4878-.308.992-.213.8862-.436 2.0386-.436 2.0386l-.139.0331-2.943.7109s-1.543-3.5266-.827-3.6092c.253-.0529.491-.1588.699-.3109.236-.1564.462-.3276.677-.5125.392-.3307.691-.6382.691-.6382s2.779 1.1028 2.586 1.2962z" fill="#FFAAB0"/><path opacity=".1" d="M107.548 80.5538c-.071.0694-.189.4877-.308.992-1.017-.0596-2.554-1.2665-2.976-1.6533.392-.3307.691-.6382.691-.6382s2.786 1.106 2.593 1.2995zM141.697 84.7747c-.906.2447-2.567.3191-3.406.3423l-.102-1.2565h3.307l.201.9142z" fill="#000"/><path d="M117.716 46.1099s-2.067 2.0385-2.067 2.3692c0 .3307.193.6167-.109.5985-.303-.0182-.313.3389-.294.5588.018.2199-.367-.1107-.341.3026.026.4133-2.811 6.8894-2.811 6.8894s-1.294 3.1695-1.79 3.6919c-.496.5225-1.186 2.8388-1.129 3.6936.056.8547.082 1.1011-.139 1.1011-.222 0-.662.7721-.662.7721l-2.175 6.7787s-.635 2.0947-.827 2.0666c-.192-.0281-.661 3.6093-.661 3.6093s-.47 1.0746-.553 1.0746c-.082 0 2.398 2.1494 3.5 1.7096 1.103-.4398 1.212-1.6534 1.212-1.6534l1.654-3.472s.717-2.0121.937-2.3708c.22-.3588 1.93-3.968 1.93-3.968s.302-1.5426.578-2.0105c.276-.4679.303-1.488.303-1.488s.578-1.5442 1.185-2.1493c.438-.4769.817-1.0042 1.129-1.5707 0 0 2.509-3.9961 4.216-5.1253 0 0 4.106-5.0708 4.354-5.5122.248-.4415 1.02-1.5972 1.957-.5506.938 1.0466 1.928 2.3973 1.928 2.3973l1.681 4.6294 1.874 5.9239s.883 1.4334.826 1.736c-.056.3025 1.434 3.0041 1.434 3.0041s.578.992.468 1.488c-.111.496.413.992.413.992l.165 2.0121s.607 1.984.442 2.2865c-.166.3026.578 2.2039.578 2.2039s0 1.6815.277 2.232c.276.5506.605 2.7561.578 2.9215-.026.1653 0 1.6814 0 1.6814s4.158-.0281 4.517-.6613-.302-1.4054-.302-1.4054l-.139-3.3347-.357-8.0733s-.744-2.7015-.855-3.3347c-.111-.6333-1.129-1.9559-1.129-1.9559s.219-.6614-.057-1.1309c-.276-.4696-.881-2.6718-.881-2.6718l-.524-6.0909-.269-6.6398-20.065-3.5546z" fill="#DCE6F2"/><path opacity=".1" d="M138.548 50.3804c-.166-.1389-6.944-.1934-7.027-.1934-.083 0-2.645-1.0202-2.645-1.0202s-5.704-.9357-6.586-.5224c-.881.4133-3.61-.7721-3.61-.7721v-.5241s-1.46-.496-1.46-.6051c0-.1092.276-1.2136.276-1.2136l.165-.0578.632-.2166 19.372 3.1132s.256.5258.496 1.0399c.24.5142.471 1.0416.387.9722z" fill="#000"/><path d="M138.548 50.2151c-.166-.1389-6.944-.1935-7.027-.1935-.083 0-2.645-1.0201-2.645-1.0201s-5.704-.9358-6.586-.5224c-.881.4133-3.61-.7722-3.61-.7722v-.5241s-1.46-.496-1.46-.6051c0-.1091.276-1.2135.276-1.2135l.165-.0579.632-.2166 19.372 3.1132s.256.5258.496 1.04.471 1.0416.387.9722z" fill="#F1FAFF"/><path opacity=".1" d="M106.961 82.6403l-.166.7787s-.054.076-.139.1984l-2.934.7109s-1.543-3.5265-.827-3.6092c.253-.0528.491-.1588.699-.3108-.15 1.1044.706 2.2667.706 2.2667 1.209.9093 2.661-.0347 2.661-.0347z" fill="#000"/><path d="M106.961 82.8072l-.166.7788s-1.129 1.5706-1.074 1.984c.001.0489-.008.0975-.026.1428-.019.0453-.046.0862-.082.1201-.294.3505-1.078.6993-1.078.6993s-2.589-1.3227-3.224-2.2039c-.635-.8812-3.885-1.8187-3.885-1.8187s-3.0851-2.1229-3.0025-3.2521c.0364-.496.5721-.6812 1.2334-.6712.8267.0099 1.8567.319 2.3478.6712.8829.6332 2.6453.4133 3.5003.3307.855-.0827 2.111.7969 2.111.7969-.286 1.1573.671 2.4552.671 2.4552 1.222.911 2.674-.0331 2.674-.0331z" fill="#575988"/><path d="M105.621 85.8311c-.294.3505-1.077.6994-1.077.6994s-2.59-1.3227-3.224-2.2039c-.635-.8812-3.8858-1.8187-3.8858-1.8187s-3.0851-2.1228-3.0025-3.252c.0364-.496.5721-.6812 1.2334-.6713.496.8267 1.2285 1.9757 1.7691 2.2965.8829.5241 2.6188 1.5161 2.6188 1.5161s2.755 1.736 2.948 1.9294c.159.1604 1.754 1.2152 2.62 1.5045z" fill="#F1FAFF"/><path opacity=".1" d="M142.245 87.2217h-3.78l-.036-.4448c.476-.448 1.496-.6613 1.496-.6613.708-.2166 2.012.7126 2.27.9044l.05.2017z" fill="#000"/><path d="M143.992 90.5647c-.01.5572-.071 1.1772-.071 1.1772-.877.0708-1.76.0056-2.617-.1934-.774-.1595-1.568-.1897-2.351-.0893-.074.0087-.148.0022-.219-.0191-.071-.0213-.137-.0569-.193-.1046-.057-.0478-.103-.1066-.136-.1729-.033-.0664-.052-.1387-.056-.2127-.011-.2116-.026-.4662-.039-.7407-.057-1.03-.121-2.346-.121-2.7941 0-.7704 1.736-1.1292 1.736-1.1292.787-.2414 2.315.9374 2.315.9374s1.516 2.2039 1.681 2.5346c.064.1273.078.4547.071.8068z" fill="#575988"/><path d="M143.992 90.5647c-.01.5572-.071 1.1772-.071 1.1772-.877.0708-1.76.0055-2.617-.1935-.774-.1595-1.568-.1896-2.351-.0893-.074.0087-.148.0022-.219-.019-.071-.0213-.137-.0569-.193-.1047-.057-.0477-.103-.1066-.136-.1729-.033-.0663-.052-.1387-.056-.2126-.011-.2116-.026-.4662-.039-.7407.634-.0959 1.57-.1885 2.222-.038.757.1752 2.496.3224 3.46.3935z" fill="#F1FAFF"/><path opacity=".1" d="M106.349 74.0098s-.579.9921 0 1.4467c.579.4547 0-1.4467 0-1.4467zM137.432 77.8539c.165.3307.605.8267.529 1.4053-.076.5787-.529-1.4053-.529-1.4053z" fill="#000"/><path d="M136.922 17.3964s-2.524-.2563-5.141-.6035l-.108-.0149c-3.039-.405-6.157-.9292-5.553-1.3111.269-.1653.496-.5853.682-1.1143.117-.3389.214-.6838.293-1.0334.013-.0545.025-.1107.038-.1653.114-.5208.205-1.0647.276-1.5574.141-1.0036.199-1.80381.199-1.80381s6.476-2.45355 5.677.60511c-.121.4911-.129 1.0033-.023 1.4979.095.4751.25.9362.461 1.3723 1.032 2.2022 3.199 4.1284 3.199 4.1284z" fill="#FFAAB0"/><path opacity=".1" d="M133.285 10.3962c-.121.4911-.129 1.0033-.023 1.4979-.84.6816-1.903 1.0282-2.984.973-1.08-.0553-2.102-.5085-2.869-1.2722.141-1.0036.199-1.80383.199-1.80383s6.476-2.45355 5.677.60513z" fill="#000"/><path d="M134.882 8.32619c.002 1.162-.459 2.27691-1.279 3.09951-.407.4073-.89.7306-1.421.9514s-1.101.3347-1.676.3354c-.575.0006-1.145-.112-1.677-.3316-.532-.2196-1.015-.5418-1.423-.9482-.822-.8207-1.285-1.93459-1.286-3.09659v-.00992c0-1.162.461-2.27641 1.283-3.09807.822-.82166 1.936-1.28327 3.098-1.28327s2.276.46161 3.098 1.28327c.822.82166 1.283 1.93607 1.283 3.09807z" fill="#FFAAB0"/><path opacity=".1" d="M131.838 16.6127c-.012.062-.031.1225-.057.1802l-.108-.0149c-3.039-.405-6.157-.9291-5.553-1.3111.269-.1653.496-.5852.682-1.1143.117-.3388.214-.6838.293-1.0333.013-.0546.025-.1108.038-.1654h.127c.01.0695.331 2.1874 3.173 2.5495l.096.0115c1.109.124 1.392.4878 1.309.8978z" fill="#000"/><path d="M131.673 16.7781c-.139.6861-1.309 1.4995-1.309 1.4995l-3.252-.6067s-2.039-1.8187-2.039-1.8733c0-.0545 1.212-2.48 1.212-2.48h.81c.01.0695.331 2.1874 3.173 2.5495l.096.0115c1.109.1257 1.392.4894 1.309.8995z" fill="#F1FAFF"/><path opacity=".1" d="M136.922 17.3964s-2.594-.2629-5.249-.6184c-.139.6862-1.309 1.4996-1.309 1.4996l-3.252-.6068s-2.039-1.8186-2.039-1.8732c0-.0545 1.212-2.48 1.212-2.48h.041c.107.3666.267.7154.476 1.035.511.7804 1.488 1.6351 3.307 1.5277l.152-.0116c2.73-.2265 3.343-2.1163 3.456-2.6023 1.038 2.2039 3.205 4.13 3.205 4.13zM138.161 49.2429l-.055.2001c-.661-.496-5.482-.8267-5.482-.8267s-1.268-.1488-2.48-.3423c-.88-.1405-1.73-.3058-2.042-.4563-.073-.0324-.147-.0605-.223-.0843-1.098-.3439-4.464-.7423-4.464-.7423s-1.654.744-2.535.4133c-.881-.3307-3.389-1.8749-3.389-1.8749s.054-.0827.165-.2232l.632-.2166 19.372 3.1133s.263.5257.501 1.0399z" fill="#000"/><path d="M138.472 40.5298c.368 2.1924.849 5.3982.6 5.8628-.387.7159-.966 2.8933-.966 2.8933-.661-.496-5.482-.8267-5.482-.8267s-1.268-.1488-2.48-.3422c-.88-.1405-1.73-.3059-2.042-.4563-.073-.0324-.147-.0606-.223-.0843-1.098-.3439-4.464-.7424-4.464-.7424s-1.654.744-2.535.4133c-.881-.3306-3.389-1.8748-3.389-1.8748.361-.4951.777-.9477 1.24-1.3492.853-.7721 2.424-7.4135 2.384-7.4962-.04-.0826-.428-2.2039-.318-3.4439.111-1.24-.33-7.3028-.33-7.3028s-4.433-1.7161-4.51-4.3615c-.078-2.6453 2.562-4.1879 2.562-4.1879s3.059-2.3973 3.307-2.5362c.248-.1388 1.901-.496 3.252-1.24 1.351-.744 1.212-.1372 1.212-.1372s.552 2.9214 3.831 2.728c3.278-.1934 3.637-2.728 3.637-2.728.352-.8812 3.176 1.736 3.176 1.736s.716 1.488 2.976 2.6999c1.653.8862 2.08 3.1678 2.192 4.3334.042.4315.04.7093.04.7093l-6.641 4.7682 2.61 10.8839s.165.8878.361 2.0815z" fill="#575988"/><path d="M122.042 46.1925s2.178 3.7465 4.436 2.6999c.509-.2314.932-.618 1.207-1.1044.891-1.5409 0-3.5067-1.726-3.968-.636-.1654-1.322-.2695-1.878-.1654-1.571.2778-2.039 2.5379-2.039 2.5379z" fill="#FFAAB0"/><path opacity=".1" d="M122.042 46.1925s2.178 3.7465 4.436 2.6999c.509-.2314.932-.618 1.207-1.1044.891-1.5409 0-3.5067-1.726-3.968-.636-.1654-1.322-.2695-1.878-.1654-1.571.2778-2.039 2.5379-2.039 2.5379zM118.846 18.8298s1.718 1.1573 1.755 2.976l-1.755-2.976zM121.546 19.711c0 .1108-.496 7.7707.386 10.3879.881 2.6173-.386-10.3879-.386-10.3879zM134.882 8.3262c.002.84905-.244 1.6801-.709 2.3907v-.1653c-.028-.4596-.271-.87463-.508-1.27143-.16-.31552-.386-.59376-.661-.81675-.08-.04668-.155-.10213-.223-.16533-.152-.16533-.136-.42821-.165-.66133-.045-.30487-.183-.58832-.396-.81068-.213-.22235-.49-.37247-.793-.42932-.126-.03139-.259-.0124-.371.0529-.112.07936-.165.22651-.259.31744-.149.13392-.377.11739-.574.07936-.433-.08597-.884-.24304-1.304-.10416-.721.23974-.992 1.2367-1.731 1.42187-.219.03268-.44.04816-.662.04629-.142.00931-.28.05177-.403.124v-.00992c0-1.162.461-2.27641 1.283-3.09807.822-.82166 1.936-1.28326 3.098-1.28326s2.277.4616 3.098 1.28326c.822.82166 1.284 1.93607 1.284 3.09807l-.004.00166z" fill="#000"/><path d="M126.163 5.41797c.137-.18352.357-.2943.481-.48774.188-.29594.096-.68613.188-1.02506.113-.41499.483-.69936.827-.95232.496-.35712 1.033-.72913 1.637-.68779.413.02976.788.25461 1.198.32074.64.10416 1.282-.18352 1.93-.16533.324.01626.639.11003.919.27344.281.16341.517.39169.691.66566.256.41002.392.94405.827 1.15733.165.08432.35.11077.512.19509.15.09139.276.21719.368.36698.092.14979.147.31927.16.49441.023.34944-.002.70036-.073 1.04325-.032.17274-.04.34919-.023.52411.03.21659.132.4183.154.63654.049.496-.331.93082-.607 1.35573-.245.38119-.419.80351-.514 1.24659-.027.2085-.086.4115-.176.6018-.046.0945-.119.1727-.211.2244-.091.0516-.196.0743-.301.065-.032-.2993.043-.6018.023-.9027-.028-.45968-.271-.87466-.508-1.26981-.16-.31627-.385-.59515-.661-.8184-.08-.04617-.154-.10166-.221-.16533-.154-.16534-.138-.42656-.166-.66134-.044-.30456-.183-.58765-.396-.80968-.213-.22204-.49-.37191-.793-.42867-.125-.03187-.258-.01348-.37.05126-.112.07936-.165.2265-.259.31744-.149.13392-.377.11904-.574.07936-.433-.08432-.885-.24304-1.305-.10416-.721.23973-.992 1.23669-1.731 1.42187-.219.03358-.44.04907-.661.04629-.112.00027-.221.02728-.32.07878-.099.05149-.185.12596-.249.21717-.221-.23147-.177-.60843-.068-.90934.128-.35216.243-.60181.181-.97216-.063-.37035-.146-.70763.091-1.02341z" fill="#794F6A"/><path opacity=".1" d="M110.069 65.5365s-1.571.8267-.744.992.744-.992.744-.992zM135.944 67.5206s.868-1.1574 1.818-.4547c.951.7027-1.818.4547-1.818.4547zM137.961 68.2645s1.083-.372 1.744 0h-1.744zM116.558 49.4991s2.315 2.2321 3.059 2.3147c.744.0827-3.059-2.3147-3.059-2.3147zM116.889 20.1525l-.602 1.2664-.304 2.976-.22 5.5387s-.413 4.712 0 5.3733c.413.6614 1.129 4.5748.992 5.0708-.137.496 1.819 5.1253 2.178 5.4015.358.2761 1.625.3306 2.341.1917l1.309 1.245 3.707-3.4207-2.288-1.736s.524-.8829-.936-1.8468c0 0-.661-1.1028-.69-1.6815-.034-1.1804-.238-2.3498-.606-3.472-.523-1.5425-.827-10.1117-.827-10.1117s-1.243-6.2563-4.054-4.7947z" fill="#000"/><path d="M116.558 20.1525l-.601 1.2664-.305 2.976-.22 5.5387s-.413 4.712 0 5.3733c.414.6614 1.13 4.5748.992 5.0708-.137.496 1.819 5.1253 2.178 5.4015.359.2761 1.625.3306 2.341.1917l1.309 1.245 3.707-3.4207-2.288-1.736s.524-.8829-.936-1.8468c0 0-.661-1.1028-.689-1.6815-.035-1.1804-.239-2.3498-.607-3.472-.522-1.5425-.827-10.1117-.827-10.1117s-1.243-6.2563-4.054-4.7947z" fill="#575988"/><path opacity=".1" d="M122.319 40.8737c-.166.0827-3.501 3.1695-2.261 3.2521 1.24.0827 2.261-3.2521 2.261-3.2521z" fill="#000"/><path d="M126.561 44.5938s-4.767.496-4.519 2.4254c.248 1.9294 3.638 3.7878 4.712 3.2025 1.075-.5853 1.984-1.1441 1.984-1.1441l-2.177-4.4838z" fill="#FFAAB0"/><path opacity=".1" d="M141.11 21.4752l.69 1.3226s.716 5.6478 0 7.8252c-.716 2.1775-2.452 7.192-2.452 7.192s-2.095 3.6655-2.149 3.8308c-.055.1654-4.025 5.8958-4.741 6.2-.715.3042-2.066.1439-2.149-.1901-.083-.334-1.901 1.4219-1.901 1.4219s-3.505-4.2359-2.948-4.6773c.557-.4415 2.245-.5506 2.245-.5506s.124.4134.261-.4414c.138-.8548.772-1.2946 1.24-1.24.468.0545.276-.4398.359-.9639.083-.5241 1.377-1.4599 1.377-1.4599s.635-1.0201.635-1.6269 1.323-1.1292 1.432-1.1292c.109 0 .083-.248.083-1.1292 0-.8813.661-2.4536.661-2.4536l.408-4.96.718-5.0427s1.961-6.1437 6.231-1.9277z" fill="#000"/><path opacity=".1" d="M138.111 38.4483s.166.8878.366 2.0733c-.331.5935-.594 1.0664-.614 1.1226-.054.1653-4.022 5.8974-4.738 6.2-.716.3026-2.067.1438-2.15-.1885-.036-.1488-.415.1141-.826.453-.513.4233-1.077.9672-1.077.9672s-.555-.6712-1.188-1.5078c-.959-1.2632-2.095-2.9016-1.761-3.1678.557-.4414 2.247-.5506 2.247-.5506s.124.4134.261-.4414.772-1.2946 1.24-1.24c.468.0546.276-.4414.359-.9639.082-.5224 1.377-1.4615 1.377-1.4615s.633-1.0185.633-1.6253c0-.6067 1.323-1.1292 1.434-1.1292.11 0 .082-.248.082-1.1309s.662-2.4519.662-2.4519l.408-4.96.716-5.0426s1.957-6.1455 6.228-1.9295l.319.6134c.041.4315.04.7093.04.7093l-6.642 4.7682 2.624 10.8839z" fill="#000"/><path d="M141.441 21.4752l.689 1.3226s.716 5.6478 0 7.8252c-.715 2.1775-2.451 7.192-2.451 7.192s-2.095 3.6655-2.15 3.8308c-.054.1654-4.024 5.8958-4.74 6.2-.716.3042-2.067.1439-2.149-.1901-.083-.334-1.902 1.4219-1.902 1.4219s-3.505-4.2359-2.947-4.6773c.557-.4415 2.245-.5506 2.245-.5506s.124.4134.261-.4414.772-1.2946 1.24-1.24c.468.0545.276-.4398.359-.9639.082-.5241 1.377-1.4599 1.377-1.4599s.635-1.0201.635-1.6269 1.323-1.1292 1.432-1.1292c.109 0 .082-.248.082-1.1292 0-.8813.662-2.4536.662-2.4536l.408-4.96.718-5.0427s1.96-6.1437 6.231-1.9277z" fill="#575988"/><path opacity=".1" d="M129.152 43.6183s.165.372.909.5075c.744.1356-.909-.5075-.909-.5075zM138.052 21.5016c-.027.0827-2.48 2.8553-1.984 3.5778.496.7225 1.984-3.5778 1.984-3.5778zM135.269 34.2323s1.405 1.3789 1.129 2.0402-1.129-2.0402-1.129-2.0402zM135.489 31.6151c.083.1372 3.115.4959 3.28 1.6533.166 1.1573-3.28-1.6533-3.28-1.6533z" fill="#000"/><g opacity=".1" fill="#000"><path opacity=".1" d="M135.797 6.83159c0-.06282.014-.12731.024-.19179.062-.31518.089-.63623.08-.95727-.014.20997-.05.41994-.08.62661-.033.1721-.041.348-.024.52245zM126.073 6.50754c.02-.12211.02-.24659 0-.3687-.02-.11738-.041-.23477-.053-.35216-.017.22898.001.4593.053.68283v.03803zM135.944 7.73267c-.071.39349-.367.74565-.594 1.0945-.246.38009-.42.80204-.514 1.24493-.028.2082-.087.411-.175.6018-.046.0948-.12.1733-.211.225-.092.0517-.197.0742-.302.0644.001-.0055.001-.0111 0-.0166-.009.1156-.009.2317 0 .3472.105.0098.21-.0126.302-.0644.091-.0517.165-.1302.211-.2249.088-.1908.147-.3936.175-.6018.094-.44292.268-.86488.514-1.24496.275-.42491.661-.85312.605-1.35739.007-.02314-.008-.04464-.011-.06778zM134.171 10.0622c-.028-.45962-.271-.87627-.507-1.27141-.16-.31898-.386-.60067-.662-.82667-.08-.04662-.155-.10208-.223-.16533-.152-.16534-.135-.42822-.165-.66134-.045-.30456-.183-.58765-.396-.80968-.213-.22203-.49-.3719-.793-.42866-.125-.03188-.258-.01349-.37.05125-.113.07936-.166.22651-.26.31909-.083.05522-.178.09101-.278.10474-.099.01374-.2.00506-.296-.02538-.433-.08597-.884-.24469-1.304-.10416-.721.23808-.992 1.23504-1.733 1.42022-.219.03338-.44.04941-.661.04794-.111-.00048-.221.02605-.32.07731s-.183.12572-.247.21699c-.076-.08018-.126-.18083-.144-.28934-.026.10742-.026.21938-.001.327.025.10762.074.20794.145.293.064-.09127.148-.16573.247-.21699s.209-.07778.32-.0773c.221.00147.442-.01456.661-.04795.738-.18517 1.012-1.18213 1.733-1.42021.42-.14053.871.01819 1.304.10416.096.03044.197.03911.296.02538.1-.01373.195-.04952.278-.10474.103-.09259.147-.23973.26-.31909.112-.06474.245-.08313.37-.05126.303.05676.58.20663.793.42867.213.22203.351.50512.396.80968.028.22816.011.48443.165.66133.068.06326.143.11871.223.16534.276.226.502.50768.662.82666.23.38523.463.78864.496 1.23335.01-.0971.014-.1949.011-.2926z"/></g><path d="M79.8312 24.2759V41.626c-.0005.0365.0064.0728.0202.1066s.0343.0645.0602.0902c.0259.0258.0567.0461.0906.0597.0339.0136.0702.0203.1067.0196 4.7781-.1488 8.7627-4.0986 8.7627-8.9511 0-4.8526-3.9813-8.804-8.7627-8.9512-.0366-.0009-.0729.0056-.1069.0192-.034.0135-.0649.0338-.0909.0596-.0259.0258-.0464.0566-.0601.0905-.0138.0339-.0205.0702-.0198.1068z" fill="#61BEEC"/><path d="M67.8991 47.9698V33.6106c-.017-2.2963.7188-4.5351 2.0948-6.3736 1.3011-1.7095 3.3265-3.257 6.3885-3.2372.0412-.0002.0821.0077.1203.0233.0382.0156.0729.0385.1023.0675.0293.029.0526.0636.0686.1016.016.038.0243.0788.0245.1201v14.7808s.496 8.0782-8.6237 9.0338c-.0219.0013-.0438-.0017-.0645-.0089-.0207-.0072-.0397-.0184-.056-.033-.0163-.0146-.0296-.0323-.039-.0521-.0094-.0198-.0148-.0412-.0158-.0631z" fill="#4064AC"/><path opacity=".1" d="M30.3039 22.3795c2.8763 0 5.208-2.3317 5.208-5.208s-2.3317-5.208-5.208-5.208-5.208 2.3317-5.208 5.208 2.3317 5.208 5.208 5.208zM19.3919 7.99552c1.7806 0 3.224-1.44344 3.224-3.224 0-1.78057-1.4434-3.224-3.224-3.224-1.7806 0-3.224 1.44343-3.224 3.224 0 1.78056 1.4434 3.224 3.224 3.224zM2.52953 13.9475c1.09574 0 1.984-.8882 1.984-1.984 0-1.0957-.88826-1.98398-1.984-1.98398-1.09573 0-1.983998.88828-1.983998 1.98398 0 1.0958.888268 1.984 1.983998 1.984z" fill="#00BAFC"/><path d="M68.3107 111.092c-.1586.218-.2855.457-.377.71-.0231.061-.0463.132-.0694.2-.0417-.02-.0855-.035-.1306-.045-.1927-.049-.392-.066-.5903-.051 0-.076.01-.165.0116-.241.0248-.872-.0777-2.087-.9093-1.573-.7969.496-.2282 1.323.286 1.854l.1323.129c-.4696.33-.5588 1.112-.6366 1.924-.0777.812-.7671 1.701-1.2251 2.206-.0463.051-.0876.097-.1289.14-.1849-.148-.3992-.255-.6287-.314-.2294-.059-.4688-.069-.7023-.028-.0182-.071-.038-.146-.0611-.225-.3687-1.344-1.1375-3.659-2.1196-4.155l.1289-.165c.4167-.546.8862-1.356.1935-1.563-.6928-.206-.7556.703-.7176 1.384 0 .085.0133.166.0199.242-.1385.006-.2742.041-.3987.102-.1246.061-.2353.146-.3255.252l-.1074-.126c-.5622-.661-1.5922-1.715-1.9047-.919-.2893.74.6167 1.701 1.2549 2.258l.0397.035c-.4282 1.739 1.4417 3.156 2.4486 3.776l.1306.079c-1.3888 1.637-2.2469 4.704-2.2469 4.704l3.8903.694s2.5775-2.225 2.2469-4.313h.0264c2.5776-.516 3.1628-3.264 2.7627-4.896.0149 0 .0298-.011.0447-.019.4692-.192.8805-.503 1.1937-.901.7208-1.007-.7903-2.138-1.531-1.155z" fill="#00BAFC"/><path opacity=".1" d="M68.3107 111.092c-.1586.218-.2855.457-.377.71-.0231.061-.0463.132-.0694.2-.0417-.02-.0855-.035-.1306-.045-.1927-.049-.392-.066-.5903-.051 0-.076.01-.165.0116-.241.0248-.872-.0777-2.087-.9093-1.573-.7969.496-.2282 1.323.286 1.854l.1323.129c-.4696.33-.5588 1.112-.6366 1.924-.0777.812-.7671 1.701-1.2251 2.206-.0463.051-.0876.097-.1289.14-.1849-.148-.3992-.255-.6287-.314-.2294-.059-.4688-.069-.7023-.028-.0182-.071-.038-.146-.0611-.225-.3687-1.344-1.1375-3.659-2.1196-4.155l.1289-.165c.4167-.546.8862-1.356.1935-1.563-.6928-.206-.7556.703-.7176 1.384 0 .085.0133.166.0199.242-.1385.006-.2742.041-.3987.102-.1246.061-.2353.146-.3255.252l-.1074-.126c-.5622-.661-1.5922-1.715-1.9047-.919-.2893.74.6167 1.701 1.2549 2.258l.0397.035c-.4282 1.739 1.4417 3.156 2.4486 3.776l.1306.079c-1.3888 1.637-2.2469 4.704-2.2469 4.704l3.8903.694s2.5775-2.225 2.2469-4.313h.0264c2.5776-.516 3.1628-3.264 2.7627-4.896.0149 0 .0298-.011.0447-.019.4692-.192.8805-.503 1.1937-.901.7208-1.007-.7903-2.138-1.531-1.155z" fill="#000"/><path d="M60.5699 112.213l-.4547 1.323s-.253-.178-.5721-.46c-.6382-.557-1.5442-1.517-1.2549-2.258.3125-.795 1.3426.255 1.9047.919.2265.271.377.476.377.476zM61.5288 111.458c-.1384.181-.2863.355-.4431.521-.0388-.232-.0658-.465-.081-.7-.0381-.681.0347-1.585.7175-1.384.6828.202.2232 1.014-.1934 1.563zM67.3932 111.665c-.0133.438-.0563.787-.0563.787-.1999-.153-.3894-.32-.5671-.498-.5141-.534-1.0829-1.357-.286-1.853.8316-.523.9342.696.9094 1.564zM70.0799 112.238c-.3132.399-.7245.709-1.1937.901-.13.058-.2637.106-.4001.146l-.5357-.752c.0567-.249.1307-.493.2215-.731.0914-.253.2184-.492.377-.71.7407-.983 2.2518.148 1.531 1.146z" fill="#00BAFC"/><path opacity=".1" d="M60.1929 111.746c.2265.262.3769.467.3769.467l-.4546 1.323s-.253-.178-.5721-.46c.0713-.426.2474-.827.5126-1.168.0446-.053.0925-.111.1372-.162zM61.5288 111.458c-.1384.181-.2863.355-.4431.521-.0387-.232-.0658-.465-.081-.7.1891.003.3724.066.5241.179z" fill="#000"/><path d="M63.7657 116.737l-1.1325.496s-.2464-.119-.6019-.339c-1.1887-.732-3.5778-2.573-1.9757-4.742 1.6021-2.169 2.938 1.721 3.4637 3.624.1604.571.2464.961.2464.961z" fill="#00BAFC"/><path opacity=".1" d="M66.7698 111.954c.1642-.17.3872-.271.6233-.281-.0132.438-.0562.787-.0562.787-.2003-.156-.3897-.325-.5671-.506zM68.8862 113.139c-.13.058-.2637.106-.4001.146l-.5357-.752c.0567-.249.1307-.493.2215-.731.3456.203.6002.704.7143 1.337z" fill="#000"/><path d="M66.0787 118.055l-.1901.033c-3.7911.577-1.2499-1.47-1.2499-1.47s.1653-.165.4018-.413c.4579-.505 1.1457-1.389 1.2251-2.206.119-1.228.2562-2.381 1.7062-2.042 1.4235.328 1.6914 5.378-1.8931 6.098z" fill="#00BAFC"/><path d="M66.0093 127.494h-7.2432v1.904h7.2432v-1.904z" fill="#D4DFEC"/><path d="M67.079 121.303h-9.4636v6.647h9.4636v-6.647z" fill="#D4DFEC"/><path opacity=".1" d="M66.0093 127.494h-7.2432v1.904h7.2432v-1.904z" fill="#000"/><path opacity=".1" d="M67.079 121.303h-9.4636v6.647h9.4636v-6.647z" fill="#000"/><path d="M66.4854 127.494h-7.2432v1.904h7.2432v-1.904z" fill="#D4DFEC"/><path opacity=".1" d="M63.5193 115.778c.1654.569.2464.959.2464.959l-1.1325.496s-.2464-.119-.6019-.339c.4431-.56.9424-.985 1.488-1.116zM66.0788 118.055l-.1902.033c-3.7911.577-1.2499-1.47-1.2499-1.47s.1653-.165.4018-.413c.7076.567 1.0002 1.205 1.0383 1.85z" fill="#000"/><path d="M59.9084 121.679s2.1229-7.606 5.1006-5.258c2.9776 2.348-1.2103 5.952-1.2103 5.952l-3.8903-.694z" fill="#00BAFC"/><path opacity=".1" d="M60.9881 113.584c.1315 0 .2381-.107.2381-.238s-.1066-.238-.2381-.238-.238.107-.238.238.1065.238.238.238zM60.9682 114.695c.1315 0 .2381-.107.2381-.238s-.1066-.238-.2381-.238c-.1314 0-.238.107-.238.238s.1066.238.238.238zM67.8726 113.802c.1315 0 .238-.106.238-.238 0-.131-.1065-.238-.238-.238s-.2381.107-.2381.238c0 .132.1066.238.2381.238zM62.3175 119.498c.1314 0 .238-.107.238-.238 0-.132-.1066-.238-.238-.238-.1315 0-.2381.106-.2381.238 0 .131.1066.238.2381.238zM67.3766 115.647c.1315 0 .238-.106.238-.238 0-.131-.1065-.238-.238-.238s-.2381.107-.2381.238c0 .132.1066.238.2381.238zM64.9164 118.109c.1315 0 .2381-.106.2381-.238 0-.131-.1066-.238-.2381-.238s-.2381.107-.2381.238c0 .132.1066.238.2381.238zM61.8015 114.06c.1315 0 .2381-.106.2381-.238 0-.131-.1066-.238-.2381-.238s-.2381.107-.2381.238c0 .132.1066.238.2381.238zM67.2178 114.517c.1315 0 .2381-.107.2381-.239 0-.131-.1066-.238-.2381-.238s-.2381.107-.2381.238c0 .132.1066.239.2381.239zM66.4044 116.362c.1315 0 .2381-.107.2381-.238 0-.132-.1066-.239-.2381-.239s-.2381.107-.2381.239c0 .131.1066.238.2381.238zM63.9046 119.319c.1315 0 .2381-.106.2381-.238 0-.131-.1066-.238-.2381-.238s-.2381.107-.2381.238c0 .132.1066.238.2381.238zM63.3887 118.149c.1315 0 .2381-.107.2381-.238 0-.132-.1066-.238-.2381-.238-.1314 0-.238.106-.238.238 0 .131.1066.238.238.238zM62.1587 115.509c.1315 0 .2381-.107.2381-.239 0-.131-.1066-.238-.2381-.238s-.2381.107-.2381.238c0 .132.1066.239.2381.239zM66.4854 127.494h-7.2432v.696h7.2432v-.696z" fill="#000"/><path d="M67.5551 121.303h-9.4637v6.647h9.4637v-6.647z" fill="#D4DFEC"/><path opacity=".1" d="M64.2221 120.391c.1315 0 .2381-.107.2381-.238 0-.132-.1066-.238-.2381-.238s-.2381.106-.2381.238c0 .131.1066.238.2381.238zM62.7935 120.688c.1315 0 .2381-.106.2381-.238 0-.131-.1066-.238-.2381-.238s-.2381.107-.2381.238c0 .132.1066.238.2381.238z" fill="#000"/></g><defs><linearGradient id="paint0_linear" x1="39.341" y1="127.93" x2="39.341" y2="39.7643" gradientUnits="userSpaceOnUse"><stop stop-color="gray" stop-opacity=".25"/><stop offset=".54" stop-color="gray" stop-opacity=".12"/><stop offset="1" stop-color="gray" stop-opacity=".1"/></linearGradient><linearGradient id="paint1_linear" x1="39224.3" y1="54940.5" x2="39224.3" y2="6127.73" gradientUnits="userSpaceOnUse"><stop stop-color="gray" stop-opacity=".25"/><stop offset=".54" stop-color="gray" stop-opacity=".12"/><stop offset="1" stop-color="gray" stop-opacity=".1"/></linearGradient><clipPath id="clip0"><path fill="#fff" transform="translate(.545532)" d="M0 0h178.909v130H0z"/></clipPath></defs></svg>