<svg width="59" height="20" fill="none" xmlns="http://www.w3.org/2000/svg"><g clip-path="url(#clip0)"><path d="M0 19.5676V.216198h6.70257c.83541-.005774 1.66491.140479 2.44797.431614.74189.273781 1.42506.685978 2.01316 1.214678.5975.54321 1.0726 1.20735 1.3937 1.9483.3211.74095.4809 1.54176.4688 2.34921.0084.80286-.1532 1.59841-.4742 2.33435s-.7942 1.39561-1.3883 1.93565c-.588.5289-1.27116.9411-2.01316 1.2147-.7825.2912-1.61143.4377-2.44635.4324h-3.6505v7.4864L0 19.5676zM6.78355 9.16186c.46319.00899.92326-.07757 1.35152-.25427.37744-.15806.71797-.39272 1.00008-.68912.26643-.28188.47716-.61158.62111-.97174.14073-.34316.21413-.71018.21621-1.08106-.00243-.77149-.30235-1.5123-.83732-2.06819-.30586-.31084-.67181-.55615-1.07554-.72099-.40374-.16483-.83681-.24574-1.27283-.23779H3.05369v6.0264l3.72986-.00324zM15.4045 6.3244v13.2432h3.0002V6.3244h-3.0002z" fill="#191919"/><path d="M18.9109 2.02445c.0044.26554-.0447.52925-.1444.77538-.0998.24613-.2482.46962-.4362.65712-.1824.19218-.4029.34428-.6473.44661-.2444.10233-.5074.15266-.7723.14777V-.0000063c.2649-.0046842.5279.0457327.7722.1480523.2444.10232.4648.25431.6474.446328.1876.187297.3357.410406.4355.656076.0997.24567.1491.50888.1451.774z" fill="#35AF39"/><path d="M16.9082-.0000032V4.05377c-.2683.00619-.535-.04344-.7831-.14576s-.4723-.25509-.6583-.44862c-.1889-.18747-.338-.41125-.4382-.65785-.1002-.24661-.1495-.51094-.1448-.77709-.0038-.2653.0458-.52866.146-.77436.1002-.2457.2488-.468702.437-.655713.1862-.193215.4104-.345776.6585-.448072.2481-.1022961.5147-.1521115.7829-.1463082z" fill="#00BAFC"/><path d="M24.9996 12.8375l-4.568-6.5131h3.4869l2.8642 4.189h.081l2.6723-4.189h3.6214l-4.6215 6.5131 4.7024 6.7301h-3.563l-2.865-4.3243h-.081l-2.8407 4.3243h-3.538l4.649-6.7301zM46.837 16.4054c-.57 1.0387-1.3875 1.9207-2.3799 2.5678-1.0258.6856-2.2866 1.0284-3.7825 1.0284-.9404.0099-1.8731-.1694-2.7428-.5271-.818-.3377-1.5585-.8389-2.1759-1.473-.62-.6413-1.1069-1.399-1.4325-2.2294-.3505-.8999-.5248-1.8588-.5134-2.8245-.0053-.9274.1594-1.8479.4859-2.716.3074-.82825.7705-1.58995 1.3645-2.24391.62-.67262 1.375-1.20681 2.2156-1.56766.8406-.36086 1.7478-.54024 2.6625-.52644 1.0257 0 1.9403.17114 2.7436.51341.7757.32443 1.4719.81315 2.0406 1.4325.5756.64272 1.0126 1.39722 1.2835 2.2164.3049.9134.4557 1.8713.4462 2.8342v.2429c-.0173.0799-.0265.1613-.0275.243-.0177.0707-.0266.1433-.0268.2162H36.8103c.0378.5753.1941 1.1366.4591 1.6487.2323.4442.5489.8389.9321 1.162.3624.3027.7801.5321 1.23.6754.4274.1409.8741.2138 1.324.2162.8638 0 1.5756-.207 2.1354-.6211.5581-.4147 1.0264-.938 1.3767-1.5386l2.5694 1.2706zm-2.7848-5.1081c-.0477-.3113-.1339-.6154-.2567-.9054-.1431-.3445-.3544-.65662-.6211-.91745-.314-.30224-.6803-.54481-1.0811-.71585-.4411-.19812-.9769-.29719-1.6074-.29719-.8638 0-1.6072.2567-2.2302.77011-.6229.5134-1.0419 1.20198-1.2567 2.06578h7.0532zM49.323 6.32439h2.8342v2.00016h.162c.1704-.35144.395-.67389.6656-.95554.2782-.29742.5969-.5542.9467-.76282.3511-.20831.7226-.38033 1.1086-.5134.36-.12895.7391-.19683 1.1215-.20082.373-.00699.7453.03411 1.1078.12227.2925.07643.5741.18962.8381.33687l-.8648 2.72978c-.2119-.09397-.4343-.16195-.6624-.20245-.29-.04875-.5838-.07152-.8778-.06802-.4634-.00539-.9217.09719-1.3386.29962-.4055.19933-.7681.47607-1.0673.81464-.3144.35792-.5573.77272-.7159 1.22192-.1727.4791-.2596.9849-.2567 1.4941v6.9269h-2.9961L49.323 6.32439z" fill="#191919"/></g><defs><clipPath id="clip0"><path fill="#fff" d="M0 0h58.1067v20H0z"/></clipPath></defs></svg>