<svg width="178" height="130" fill="none" xmlns="http://www.w3.org/2000/svg"><g clip-path="url(#clip0)"><path opacity=".1" d="M104.096 17.9684c-10.4394-.3629-20.3817-3.7324-29.8756-7.4196-9.4939-3.68725-18.8975-7.77289-29.093-9.726185C38.5804-.433883 31.0849-.611309 25.8041 2.90011c-5.0808 3.38722-6.7228 9.21809-7.6051 14.63279-.6646 4.076-1.0549 8.3632.7645 12.1779 1.2646 2.6485 3.5066 4.8744 5.0583 7.4196 5.3986 8.8261 1.5823 19.7104-4.2663 28.3285-2.742 4.0421-5.9276 7.9035-8.0455 12.2037-2.11779 4.3001-3.09685 9.2342-1.2436 13.6231 1.8356 4.3549 6.2116 7.6196 10.9521 9.9193 9.6277 4.668 20.9685 6.005 32.035 6.762 24.4896 1.676 49.1085.95 73.6625.224 9.087-.269 18.213-.542 27.153-1.947 4.964-.78 10.089-2.019 13.692-5 4.576-3.7952 5.71-10.2229 2.644-14.9811-5.143-7.9826-19.356-9.9665-22.954-18.533-1.978-4.7147.053-9.9681 2.929-14.3408 6.168-9.3826 16.505-17.612 17.049-28.3366.374-7.3647-4.596-14.7408-12.28-18.22644-8.053-3.65336-19.223-3.19366-25.162 2.85333-6.121 6.21311-16.873 8.60841-26.091 8.28901z" fill="#00BAFC"/><g opacity=".9"><path opacity=".9" d="M115.883 40.1273h-.69c-.204 0-.369.1653-.369.3693v11.0392c0 .204.165.3693.369.3693h.69c.204 0 .37-.1653.37-.3693V40.4966c0-.204-.166-.3693-.37-.3693zM67.7637 30.9011h-.0629c-.204 0-.3693.1654-.3693.3694v3.1388c0 .204.1653.3694.3693.3694h.0629c.204 0 .3694-.1654.3694-.3694v-3.1388c0-.204-.1654-.3694-.3694-.3694zM67.8363 37.9998h-.1645c-.204 0-.3694.1653-.3694.3693v6.0099c0 .204.1654.3694.3694.3694h.1645c.204 0 .3694-.1654.3694-.3694v-6.0099c0-.204-.1654-.3693-.3694-.3693zM67.8073 47.1098h-.121c-.204 0-.3693.1654-.3693.3694v6.068c0 .204.1653.3693.3693.3693h.121c.204 0 .3694-.1653.3694-.3693v-6.068c0-.204-.1654-.3694-.3694-.3694z" fill="#3A3768"/><path opacity=".9" d="M109.306 18.0878H74.0753c-3.4733 0-6.289 2.8156-6.289 6.2889v84.5853c0 3.473 2.8157 6.289 6.289 6.289h35.2307c3.473 0 6.289-2.816 6.289-6.289V24.3767c0-3.4733-2.816-6.2889-6.289-6.2889z" fill="#3A3768"/><path opacity=".9" d="M93.1292 20.9879h-5.4276c-.3447 0-.6242.2794-.6242.6242v.1064c0 .3448.2795.6243.6242.6243h5.4276c.3448 0 .6243-.2795.6243-.6243v-.1064c0-.3448-.2795-.6242-.6243-.6242zM95.5325 22.4363c.4249 0 .7694-.3444.7694-.7694 0-.4249-.3445-.7693-.7694-.7693s-.7693.3444-.7693.7693c0 .425.3444.7694.7693.7694z" fill="#E6E8EC"/></g><path opacity=".1" d="M38.9675 120.774c17.8137 0 32.2545-1.472 32.2545-3.287 0-1.816-14.4408-3.288-32.2545-3.288-17.8136 0-32.2544 1.472-32.2544 3.288 0 1.815 14.4408 3.287 32.2544 3.287zM110.686 130c8.345 0 15.111-.69 15.111-1.54 0-.851-6.766-1.541-15.111-1.541s-15.11.69-15.11 1.541c0 .85 6.765 1.54 15.11 1.54zM162.317 122.238c8.345 0 15.11-.689 15.11-1.54 0-.851-6.765-1.54-15.11-1.54-8.345 0-15.11.689-15.11 1.54 0 .851 6.765 1.54 15.11 1.54z" fill="#00BAFC"/><path d="M108.839 20.6169h-5.467v.6597c0 .829-.33 1.6241-.916 2.2103-.586.5863-1.381.9156-2.21.9156H82.7965c-.829 0-1.6241-.3293-2.2103-.9156-.5863-.5862-.9156-1.3813-.9156-2.2103v-.6597h-5.1357c-.4985 0-.9922.0982-1.4527.289-.4606.1909-.8791.4706-1.2315.8232-.3525.3526-.632.7712-.8226 1.2318-.1907.4607-.2887.9544-.2885 1.4529v84.5082c-.0002.498.0978.992.2885 1.453.1906.46.4701.879.8226 1.232.3524.352.7709.632 1.2315.823.4605.19.9542.289 1.4527.289h34.3041c1.007 0 1.973-.4 2.685-1.112.712-.712 1.112-1.678 1.112-2.685V24.4138c0-1.007-.4-1.9728-1.112-2.6848-.712-.7121-1.678-1.1121-2.685-1.1121zM132.145 13.8247s-13.581-.8194-11.979 8.6971c0 0-.323 1.6823 1.206 2.4453 0 0 .024-.7049 1.392-.4662.488.0824.983.1062 1.476.071.667-.0445 1.3-.3056 1.805-.7436 0 0 3.816-1.5775 5.302-7.8164 0 0 1.098-1.3614 1.055-1.7114l-2.292.9791s.782 1.6533.161 3.0275c0 0-.074-2.9678-.515-2.9033-.09.0129-1.192.5726-1.192.5726s1.349 2.8791.323 4.9728c0 0 .385-3.5486-.752-4.7647l-1.613.9419s1.575 2.9743.508 5.4019c0 0 .273-3.7228-.846-5.1728l-1.462 1.1403s1.479 2.9308.578 4.9438c0 0-.12-4.3324-.895-4.6599 0 0-1.28 1.1291-1.475 1.5904 0 0 1.013 2.1291.386 3.2517 0 0-.386-2.8872-.702-2.9033 0 0-1.274 1.913-1.406 3.2259 0 0 .054-1.95 1.096-3.4065 0 0-1.23.2113-1.95 1.0097 0 0 .199-1.3517 2.259-1.471 0 0 1.053-1.4517 1.335-1.5388 0 0-2.056-.1726-3.303.3806 0 0 1.097-1.2758 3.68-.6951l1.442-1.1791s-2.706-.3694-3.854.0387c0 0 1.322-1.1291 4.245-.3065l1.571-.9387s-2.308-.4984-3.684-.3226c0 0 1.452-.7823 4.144.0661l1.129-.5048s-1.692-.3323-2.188-.3855c-.495-.0533-.521-.1888-.521-.1888 1.08-.1792 2.188-.053 3.199.3646 0 0 2.377-.892 2.337-1.042zM118.216 9.59229s-6.13-.36937-5.414 3.93081c0 0-.143.7597.546 1.1049 0 0 .011-.3226.629-.2113.22.037.443.0478.666.0322.301-.0202.588-.138.816-.3355 0 0 1.724-.7129 2.395-3.5324 0 0 .497-.6145.484-.77257l-1.035.44197s.353.7468.074 1.3678c0 0-.032-1.3404-.232-1.3098-.041 0-.538.2597-.538.2597s.609 1.3001.149 2.2469c0 0 .174-1.6033-.339-2.1533l-.729.4258s.711 1.3436.229 2.4404c0 0 .124-1.6823-.382-2.3372l-.661.5162s.669 1.3242.261 2.2339c0 0-.053-1.9581-.403-2.1065 0 0-.579.5097-.667.7194 0 0 .457.9678.173 1.4694 0 0-.174-1.3049-.323-1.3113 0 0-.575.8645-.635 1.4516.028-.5473.199-1.0778.495-1.5387-.332.0627-.638.2214-.881.4564 0 0 .089-.6113 1.023-.6645 0 0 .476-.6565.603-.6968 0 0-.929-.0774-1.492.1726 0 0 .495-.5759 1.663-.3226l.645-.5323s-1.222-.1613-1.742.0177c0 0 .599-.5096 1.918-.1387l.71-.4242s-1.042-.2242-1.663-.1435c0 0 .655-.35327 1.871.029l.508-.2274s-.763-.15-.987-.17422c-.224-.0242-.235-.08549-.235-.08549.483-.0805.98-.02465 1.433.16131 0 0 1.084-.39197 1.067-.45971zM7.05824 110.548c3.58196 0 6.48576-.491 6.48576-1.097s-2.9038-1.097-6.48576-1.097c-3.58197 0-6.48573.491-6.48573 1.097s2.90376 1.097 6.48573 1.097z" fill="#00BAFC"/><path d="M9.739 107.656c.2965-.241.5126-.566.6194-.933.079-.371-.0791-.806-.43229-.95-.39679-.153-.821.123-1.14198.4-.32098.278-.69035.596-1.11133.536.21564-.197.37667-.446.46741-.723.09074-.277.10809-.573.05035-.859-.01739-.119-.06767-.231-.14517-.323-.21936-.236-.61938-.134-.8839.052-.83874.59-1.07262 1.729-1.07585 2.754-.08549-.371-.01452-.756-.01613-1.129-.00161-.372-.10646-.806-.42582-1.003-.19804-.106-.42045-.159-.64519-.153-.37743-.013-.7968.024-1.05488.3-.32259.342-.2371.918.04194 1.29.27904.373.70164.613 1.09037.875.31311.185.58003.439.78067.743.02379.042.04325.086.05807.132h2.36299c.53053-.269 1.02213-.608 1.46134-1.009zM134.54 94.1196s1.396 1.8259-.645 4.5808c-2.04 2.7546-3.721 5.0806-3.04 6.7986 0 0 3.077-5.116 5.582-5.189 2.505-.072.858-3.1128-1.897-6.1904z" fill="#00BAFC"/><path opacity=".1" d="M134.54 94.1196c.122.1767.218.3694.286.5726 2.444 2.8711 3.745 5.5518 1.395 5.6178-2.187.063-4.813 3.976-5.44 4.963.019.077.044.152.074.226 0 0 3.077-5.116 5.582-5.189 2.505-.072.858-3.1128-1.897-6.1904z" fill="#000"/><path d="M137.134 96.452c0 .6452-.073 1.1629-.161 1.1629-.089 0-.162-.521-.162-1.1629 0-.642.091-.3387.18-.3387.088 0 .143-.3065.143.3387z" fill="#FFD037"/><path d="M138.024 97.2133c-.564.3064-1.054.4935-1.098.4145-.044-.079.381-.3903.945-.6984.565-.3081.341-.0823.384 0 .044.0823.334-.0242-.231.2839z" fill="#FFD037"/><path d="M127.169 94.1196s-1.395 1.8259.645 4.5808c2.041 2.7546 3.721 5.0806 3.042 6.7986 0 0-3.077-5.116-5.582-5.189-2.505-.072-.86-3.1128 1.895-6.1904z" fill="#00BAFC"/><path opacity=".1" d="M127.169 94.1196c-.122.1762-.218.3691-.285.5726-2.444 2.8711-3.746 5.5518-1.397 5.6178 2.189.063 4.813 3.976 5.442 4.963-.021.077-.045.152-.074.226 0 0-3.078-5.116-5.583-5.189-2.505-.072-.858-3.1128 1.897-6.1904z" fill="#000"/><path d="M124.574 96.452c0 .6452.072 1.1629.161 1.1629.089 0 .161-.521.161-1.1629 0-.642-.09-.3387-.179-.3387-.088 0-.143-.3065-.143.3387z" fill="#FFD037"/><path d="M123.679 97.2133c.563.3064 1.055.4935 1.096.4145.042-.079-.379-.3903-.943-.6984-.565-.3081-.342-.0823-.384 0-.042.0823-.327-.0242.231.2839z" fill="#FFD037"/><path d="M125.019 105.26s3.902-.121 5.078-.958c1.176-.837 6.002-1.837 6.29-.493.289 1.343 5.863 6.679 1.452 6.714-4.412.036-10.236-.687-11.409-1.401-1.172-.715-1.411-3.862-1.411-3.862z" fill="#A8A8A8"/><path opacity=".2" d="M137.928 110.056c-4.405.035-10.236-.687-11.409-1.402-.895-.544-1.25-2.497-1.369-3.398h-.131s.247 3.146 1.421 3.861c1.174.714 7.004 1.437 11.409 1.402 1.271-.012 1.711-.463 1.687-1.129-.178.404-.662.658-1.608.666z" fill="#000"/><path opacity=".3" d="M107.441 78.6916H94.855v12.586h12.586v-12.586zM88.8919 62.0781H76.306v12.586h12.5859v-12.586zM90.1017 95.0213h-12.586v12.5857h12.586V95.0213z" fill="#3A3768"/><path d="M87.2935 31.1754h-12.586v12.5859h12.586V31.1754zM104.917 74.1544l-9.3325 8.4445 8.4445 9.3326 9.333-8.4445-8.445-9.3326zM107.233 46.342H94.647v12.586h12.586V46.342zM91.3227 60.3748H78.7368v12.586h12.5859v-12.586z" fill="#fff"/><path d="M157.327 118.164c.732.095 1.492.161 2.193-.074.108-.034.233-.108.218-.219-.008-.039-.025-.076-.05-.107-.265-.397-.489-.82-.666-1.263-.007-.023-.021-.043-.04-.056-.023-.009-.049-.009-.071 0-.323.084-.604.293-.926.382-.164.045-.335.058-.503.039-.146-.016-.346-.137-.476-.123.08.479.264.932.321 1.421zM171.187 116.937c.484-.323.984-.681 1.269-1.192.021-.03.033-.066.034-.102-.004-.036-.018-.071-.04-.1-.272-.431-.622-.809-1.031-1.113-.214.151-.407.33-.576.531-.121.127-.456.337-.459.527 0 .115.127.239.187.323.08.119.161.242.23.364.038.074.421.742.386.762z" fill="#00BAFC"/><path d="M160.198 119.645c.01.114-.021.229-.087.322-.052.051-.116.089-.186.108-1.026.367-2.206-.092-3.226.271-.211.075-.409.181-.621.252-.25.075-.508.121-.769.137-.363.036-.726.057-1.089.066-.275.02-.551-.004-.819-.071-.134-.034-.259-.097-.367-.182-.109-.086-.198-.194-.262-.316-.055-.11-.066-.237-.031-.355.016-.042.038-.08.066-.114.07-.078.152-.144.242-.196l.378-.243c.176-.125.368-.227.571-.303.148-.049.308-.07.458-.113.53-.162.934-.576 1.309-.979l.513-.547c.048-.06.109-.109.178-.142.07-.024.145-.032.219-.023.498.037.98.199 1.399.471.108.079.223.147.345.203.161.047.33.061.496.04.166-.021.327-.076.471-.16.133-.07.104-.113.162-.238.058-.124.19-.204.306-.09.035.04.06.088.073.139.113.366.069.758.069 1.14-.003.06.005.12.023.178.028.056.062.11.1.161.008.013.015.027.021.042.063.173.083.359.058.542z" fill="#514E7F"/><path d="M160.198 119.645c.01.114-.021.229-.087.322-.052.051-.116.089-.186.108-1.026.367-2.206-.091-3.226.271-.211.075-.409.181-.621.252-.25.075-.508.121-.769.137-.363.036-.726.057-1.089.066-.275.02-.551-.004-.819-.071-.134-.034-.259-.097-.367-.182-.109-.086-.198-.194-.262-.316-.055-.11-.066-.237-.031-.355.016-.042.038-.08.066-.114.062.125.105.29.142.35.051.089.121.166.204.226.084.059.179.101.28.12.148.008.296-.011.437-.056.929-.231 1.916-.234 2.807-.582.297-.141.604-.259.919-.354.329-.049.661-.076.994-.08.524-.042 1.03-.2 1.548-.283.064.173.085.358.06.541z" fill="#464353"/><path d="M173.529 116.874c-.048.388-.295.724-.566 1.008-.289.264-.554.554-.791.866-.267.406-.385.908-.73 1.252-.131.127-.279.235-.439.322-.18.107-.371.194-.569.262-.515.161-1.07.127-1.613.088-.175-.002-.348-.036-.51-.1-.076-.037-.148-.081-.216-.13-.132-.086-.242-.2-.323-.334-.04-.074-.05-.159-.03-.241.032-.091.087-.172.161-.235.121-.126.251-.243.389-.35.189-.123.36-.273.506-.445.09-.137.156-.287.195-.445.078-.277.126-.561.142-.847 0-.191.02-.38.06-.566.082-.291.298-.554.272-.855-.009-.043-.005-.088.012-.129.027-.031.062-.053.101-.063.17-.067.348-.107.529-.121.09-.006.18.008.264.042.084.033.159.084.22.15.076.09.125.216.236.256.053.011.108.011.161 0 .271-.027.56-.061.768-.237.099-.089.179-.197.235-.319.055-.121.085-.252.087-.386 0-.1-.045-.205.109-.226.117-.016.209.107.269.187.236.276.412.597.518.944.031-.013.064-.019.098-.019.069-.001.137.015.198.046.062.032.114.078.154.134.094.145.131.32.103.491z" fill="#514E7F"/><path d="M173.529 116.874c-.048.388-.295.724-.566 1.008-.289.264-.554.554-.791.866-.267.406-.385.908-.73 1.252-.131.127-.279.235-.439.322-.18.107-.371.194-.569.262-.515.161-1.07.127-1.613.088-.175-.002-.348-.036-.51-.1-.076-.037-.148-.081-.216-.13-.132-.086-.242-.2-.323-.334.104-.051.217-.078.333-.079.24.013.414.238.645.308.322.098.645-.133.982-.212.216-.05.445-.035.657-.104.177-.069.341-.168.483-.294.197-.14.371-.309.518-.5.123-.191.225-.394.305-.606.174-.408.38-.801.615-1.176.034-.059.077-.114.125-.162.05-.046.113-.08.162-.122.221-.161.313-.447.39-.712.021-.081.05-.161.087-.237.069-.001.137.015.198.047.062.031.114.077.154.134.091.142.128.313.103.481z" fill="#464353"/><path d="M150.357 82.4192c.273.2054.498.468.658.7694.162.3032 1.047 2.6582.995 2.9953.291-.2936 1.442-.342 1.731-.6339.123-.1226.786-.7355.884-.8775.098-.1419.837-.4468.918-.5919.301-.5404-2.139-2.5808-1.828-3.1227.018-.0242.027-.0538.026-.0839-.007-.0251-.021-.0475-.04-.0645-.217-.1868-.454-.3491-.707-.4839-.256-.1377-.449-.3688-.538-.6452-.23.1059-.441.2486-.625.4226-.446.3817-.886.7732-1.319 1.1742-.171.1613-.497.3662-.576.5904-.079.2242.258.4194.421.5516z" fill="#A1616A"/><path d="M154.307 81.5498c-.375.251-.725.5373-1.045.8549-.303.2984-.59.6452-.666 1.0662-.031.1613-.026.3322-.052.4984-.108.7226-.735 1.2533-1.011 1.9355-.081.2086-.14.4247-.177.6452-.078.4184-.12.8424-.126 1.2678 0 .4129.397.6968.545 1.0823.123.382.211.7745.263 1.1726.161.7423.382 1.4704.66 2.1775.545 1.5049 2.311 5.6664 2.856 7.1729 1.669-.4194 6.115-1.3823 7.592-2.2582.494-.2935-3.419-3.6098-2.892-3.8388.061-.0185.113-.0579.147-.1113.017-.0524.017-.109 0-.1613-.526-2.3049-2.176-4.1937-2.923-6.4519-.259-.779-.725-1.4436-1.08-2.1855-.323-.671-.492-1.4114-.875-2.0485-.073-.1312-.167-.2494-.279-.35-.096-.0726-.2-.1348-.309-.1855-.212-.1129-.415-.1758-.628-.2823z" fill="#514E7F"/><path d="M150.446 82.1563c1.443 0 2.613-1.1699 2.613-2.613s-1.17-2.613-2.613-2.613-2.613 1.1699-2.613 2.613 1.17 2.613 2.613 2.613z" fill="#A1616A"/><path d="M153.104 80.7707c.13-.12.294-.1976.469-.2227.176-.025.355.0037.513.0824.091.0391.168.1053.22.1896.053.0842.078.1824.072.2814l1.291.0193c.206-.0047.412.0142.614.0565.203.0445.385.1586.513.3226.016.0209.034.0451.06.05.021-.0006.042-.0079.059-.021.199-.1012.424-.1416.646-.1161.7.0451 1.348.3968 1.896.8339.101.0676.18.1636.226.2758.045.1468 0 .3355.107.4355 0 1.2178.417 2.3517.697 3.5372.048.2113.251.3968.391.5629.174.1837.316.3953.42.6259.235.6145-.09 1.3355.14 1.9533.117.2525.267.4885.445.7016.208.2614.339.5751.379.9065.01.1484-.009.2968 0 .4468.014.199.05.3959.107.5871.093.3565.193.7129.297 1.0678.161.5742.387 1.1952.901 1.5017-1.243.2113-2.553.4161-3.739-.0146-.165-.0565-.322-.1352-.466-.2338-.427-.3049-.634-.8275-.817-1.3194-.207-.5533-.417-1.1146-.459-1.7033.002-.1883-.024-.3757-.077-.5565-.121-.3226-.44-.5145-.734-.692-.329-.1807-.626-.4126-.882-.6871-.127-.1383-.225-.3013-.286-.4789-.062-.1776-.087-.366-.072-.5534.022-.1822.093-.3581.101-.5419.011-.0916-.007-.1842-.052-.2646-.046-.0803-.115-.1442-.199-.1822-.905-.2742-1.337-1.3452-1.539-2.2695-.087-.4787-.126-.9651-.116-1.4516l-.011-.9339c-.125-.1134-.226-.2512-.296-.4048-.07-.1537-.108-.32-.111-.4888.015-.0979.015-.1973 0-.2952-.043-.1222-.113-.2327-.206-.3226-.202-.2004-.371-.4311-.502-.6839zM150.32 83.7596c-.029.2919.037.5903-.029.8774-.026.1097-.069.2145-.102.3226-.097.4118-.054.8442.121 1.2291.176.3814.386.7459.628 1.0888.083.116.151.2423.201.3758.042.1402.068.2846.078.4306.064.5837.167 1.1625.308 1.7324.123.4968.282.9984.61 1.3919.059.0863.149.1472.251.171.074.0027.148-.0128.215-.0451l.668-.2533c.058-.0171.113-.0456.161-.0838.061-.0734.094-.1659.093-.2613.047-.5388-.114-1.0727-.293-1.5824-.542-1.5387-1.262-3.0211-1.613-4.613-.099-.4452-.15-1.1291-.474-1.4759-.134-.1452-.089-.0839-.249 0-.08.0362-.158.0777-.234.1242-.096.0635-.176.1478-.235.2466-.059.0989-.095.2097-.105.3244z" fill="#464353"/><path d="M152.333 86.679c.177.9388.359 1.878.544 2.8179l2.593-.6807c.021-.271-.124-.5226-.224-.7758-.237-.5936-.242-1.2533-.434-1.863-.145-.4646-.397-.892-.532-1.3597-.079-.271-.118-.5549-.195-.8275-.084-.2694-.186-.5329-.305-.7887-.147-.3713-.337-.7238-.566-1.0501-.333.1242-.686.2678-.875.5662-.098.17-.153.3616-.161.5581-.045.5839.161 1.1694.095 1.7468-.069.5518-.049 1.1112.06 1.6565z" fill="#00BAFC"/><path d="M155.514 99.194c.145.5549-.066 1.129-.237 1.681-.26.824-.437 1.671-.529 2.53-.01.221-.054.439-.131.646-.096.177-.201.349-.315.516-.261.461-.254 1.026-.198 1.553.037.348.094.695.161 1.039.086.418.191.856.068 1.264.205-.045.345.22.337.431-.008.211-.082.437.018.623.255.092.258.442.25.711.004.47.063.938.176 1.394.385 1.848.793 3.692 1.226 5.53.934.291 2.024.592 2.914.191.087-.028.166-.077.23-.141.064-.065.112-.143.14-.23.009-.097-.003-.194-.036-.286l-.422-1.535c-.127-.362-.179-.747-.152-1.129.042-.286.161-.592.026-.842-.049-.086-.123-.162-.178-.236-.222-.322-.106-.756-.087-1.15.007-.088 0-.177-.019-.263-.03-.1-.072-.197-.124-.288-.348-.678-.515-1.433-.484-2.194.013-.098 0-.197-.039-.287-.028-.036-.051-.075-.071-.116-.017-.071-.009-.146.023-.212-.127-.092-.241-.201-.341-.322.06-.039.111-.091.149-.153.037-.061.061-.129.068-.201.008-.071 0-.143-.024-.211-.023-.068-.062-.129-.112-.18.045-.009.087-.031.121-.062s.058-.071.07-.115c.013-.045.013-.092 0-.136-.013-.044-.038-.084-.072-.115-.055-.039-.125-.055-.161-.11-.06-.08-.011-.195.037-.282l.258-.466c.192-.345.236-.773.442-1.11.279-.493.507-1.013.681-1.553l.735-2.048.5.433c.168.128.307.287.412.47.071.179.115.369.132.561.184 1.113.885 2.078 1.145 3.176.036.249.116.489.236.71.05.064.095.132.135.203.037.109.056.222.057.337.022.225.093.442.208.637.114.195.269.363.454.492.246.161.557.286.686.553.028.083.066.162.113.236.119.143.377.161.429.34.027.102-.026.221.032.31.032.04.073.072.121.09l.721.362c.807.401 1.213 1.322 1.808 1.998.206.219.387.459.541.716.256.458.375 1.034.806 1.329.116.061.221.139.313.233.137.179.087.43.098.656.012.226.186.494.4.426-.075.273-.075.561 0 .834.942-.049 1.839-.412 2.549-1.033.21-.183.413-.417.414-.695.003-.048-.008-.096-.03-.138-.042-.055-.098-.098-.162-.123-.672-.365-.875-1.21-1.212-1.897-.299-.605-.738-1.129-1.11-1.69-.807-1.21-1.345-2.673-2.557-3.473-.266-.176-.576-.332-.708-.623-.056-.169-.104-.341-.142-.516-.022-.086-.071-.163-.138-.221-.068-.057-.152-.093-.241-.101.077-.262.106-.535.087-.807.007-.117-.006-.234-.04-.347-.046-.12-.105-.235-.177-.342-.316-.536-.474-1.151-.457-1.774.01-.322.066-.645-.031-.953-.048-.161-.132-.295-.192-.445-.088-.268-.134-.549-.138-.831l-.066-1.0628c-.009-.3539-.055-.7058-.137-1.0501-.225-.8242-.439-4.2776-1.199-4.6663-.76-.3887-2.056 2.2678-2.903 2.3211-.379.0163-.752.088-1.11.2129-.566.2129-1.042.6097-1.505.9984l-1.568 1.3162c-.298.2673-.624.5025-.972.7016zM147.992 76.6415c.183-.2288.414-.4142.677-.5425.263-.1283.552-.1965.845-.1994.586-.0002 1.164.145 1.68.4226.153.0865.315.1542.484.2016.278.0564.584-.0194.834.1129.332.1758.395.6242.366.9984-.029.3742-.098.7839.1 1.1049.07.092.134.1879.192.2871.062.2012.056.4172-.018.6145-.114-.1292-.222-.2643-.322-.4048-.116-.1274-.315-.2145-.457-.1194-.142.0952-.142.271-.148.4275-.007.1564-.048.3451-.197.3967-.06.0116-.123.0055-.18-.0173-.057-.0229-.107-.0616-.142-.1117-.254-.3097-.152-.8065-.402-1.1162-.144-.1774-.381-.2629-.513-.4484-.103-.1451-.129-.3338-.219-.4838-.091-.15-.302-.2726-.444-.1613-.048.0468-.088.1013-.118.1613-.087.1251-.215.2171-.361.261-.146.0439-.303.0372-.445-.0191-.11-.0655-.227-.116-.35-.15-.08-.0046-.16.0132-.23.0514s-.129.0952-.169.1647c-.077.1409-.113.3008-.104.4613 0 .2178.038.4565-.088.6339-.051.0652-.115.1199-.187.1613-.185.1178-.438.1968-.613.0629-.057-.0538-.1-.1215-.124-.1966-.024-.0751-.028-.1551-.013-.2324.034-.1538.077-.3053.131-.4533.097-.3419-.029-.7274.077-1.05.113-.293.268-.5683.458-.8178z" fill="#464353"/><path d="M149.393 84.4371c-.017.0807-.009.1645.024.2403.033.0516.078.0947.13.1258.373.2306.796.3673 1.233.3984.056.0021.111.017.161.0436.046.0428.078.0987.091.1602.013.0615.006.1256-.018.1833-.051.1149-.077.239-.078.3646.032.2306.305.3355.537.3645.323.0657.659.0008.934-.1807.174-.1586.306-.3574.386-.579.634-1.4517.856-3.0647 1.498-4.5164.05-.0941.082-.1962.097-.3016.007-.0529-.001-.1067-.022-.1557-.021-.0491-.055-.0916-.097-.1233-.12-.0742-.305-.0323-.386-.1468-.04-.0597-.035-.1387-.071-.2-.074-.1323-.268-.1162-.402-.1871-.103-.0565-.175-.1613-.29-.192-.057-.0031-.114.0071-.167.0298-.052.0226-.099.0572-.136.1009-.376.3516-.574.85-.784 1.321-.323.7216-.701 1.4177-1.129 2.0824.05-.0775-.239-.6662-.352-.6888-.196-.0403-.451.3065-.558.4371-.331.4067-.539.8989-.601 1.4195z" fill="#00BAFC"/><path d="M163.298 86.5016h-12.586v12.586h12.586v-12.586z" fill="#fff"/><path d="M163.196 93.4341c-.216.1913-.416.4007-.597.6259-.183.2283-.28.5138-.274.8064.001.0846.028.1668.078.2355.025.0336.06.0583.101.0707.04.0124.083.012.123-.0013.044-.0239.081-.0576.11-.0984.116-.1409.24-.2755.371-.4032.048-.0468.109-.0968.174-.0791.029.0101.055.0273.076.05.076.0639.132.1485.161.2436.008.086-.003.1729-.032.2541-.03.0813-.077.1548-.139.2153-.126.1202-.224.2659-.289.4274-.018.044-.018.0931 0 .1371.022.0316.051.0572.086.0742.158.0863.334.137.514.1487.18.0117.361-.0159.529-.081.224-.0887.418-.2435.645-.3226.099-.026.195-.0616.286-.1064.065-.0429.121-.0984.165-.1632.043-.0648.073-.1377.088-.2142.029-.1537.035-.3108.018-.4662-.029-.6039-.16-1.1984-.389-1.7581-.012-.0364-.034-.0687-.063-.0936-.032-.0191-.069-.0296-.106-.0306-.282-.029-.747-.1742-1.02-.0694-.095.0518-.178.1252-.24.2145-.063.0565-.376.3097-.376.3839z" fill="#A1616A"/><path d="M163.1 93.1841c0-.271-.336-.921.195-.9678 0-.2871-.408-.4678-.334-.771.026-.1032.108-.1855.121-.2887.034-.2952-.499-.4549-.412-.7387.033-.1081.15-.1742.176-.2839.06-.2549-.396-.3694-.405-.6307 0-.0887.049-.1726.046-.2597 0-.1113-.097-.1951-.15-.2903-.137-.2468-.071-.6291-.323-.7549.161.0129.224-.2339.153-.3855-.071-.1516-.209-.2822-.209-.45.008-.0616.008-.1239 0-.1855-.047-.1613-.312-.1726-.355-.3339-.004-.0607-.004-.1215 0-.1822-.016-.1258-.145-.2033-.266-.2404-.125-.0203-.245-.063-.355-.1258-.078-.0596-.162-.1613-.25-.1048-.031.0177-.047.0532-.071.0806-.099.1146-.287.0646-.413-.0209-.37-.25-.552-.7001-.632-1.1388-.081-.4387-.076-.8919-.173-1.3274-.03-.1348-.07-.2674-.118-.3968-.076-.1252-.139-.2583-.187-.3968-.019-.2533.507-.0807.707-.0549.194.0181.386.0543.574.1081.199.0752.395.1608.585.2565.807.3532 1.762.3968 2.404.9887.211.1952.388.45.661.5371.125.0252.249.0575.371.0968.305.1436.352.5468.518.8387.052.077.097.1579.137.242.031.1001.046.2048.043.3097l.023.7661c.037 1.2904.076 2.5695-.061 3.8453-.046.4194-.108.8533.014 1.2581.032.1097.079.2146.107.3226.026.1313.04.2646.042.3984l.017.4952c.007.0399-.002.0807-.024.1145-.018.015-.04.0256-.063.0312-.023.0055-.047.0059-.071.0011-.692-.0613-1.389-.4516-2.042-.2162" fill="#464353"/><path d="M150.238 91.1631c-.031.015-.057.0371-.078.0645-.07.0947-.108.2095-.108.3274 0 .1179.038.2327.108.3274.017.0192.03.041.039.0646.005.0376-.002.0758-.019.1096-.034.065-.047.1385-.038.211.009.0725.039.1407.088.1955.05.042.117.0629.15.1178.056.0935-.023.2129-.01.3226.016.1435.186.2145.323.2322.055.0131.113.0123.167-.0023.055-.0146.106-.0427.147-.0816.028-.0424.043-.092.043-.1427 0-.0507-.015-.1003-.043-.1427-.056-.0844-.128-.1568-.213-.213.078-.004.152-.0361.208-.0904.056-.0542.091-.127.097-.2047.006-.077-.008-.1543-.04-.2245-.032-.0702-.082-.1311-.144-.1772-.029-.0242-.064-.0484-.072-.0871-.008-.0387.03-.0919.066-.129.161-.1613.285-.5565-.018-.6452-.107-.0187-.217-.0138-.323.0145-.077.0242-.077.071-.137.1033-.059.0322-.126.0161-.193.05z" fill="#A1616A"/><path opacity=".1" d="M153.407 80.0224c-.079.0017-.157.0211-.228.0568-.071.0357-.133.0868-.181.1496-.102.1659-.161.3543-.171.5484-.099.6205-.318 1.2156-.646 1.7517M153.972 80.4643c-.11.0021-.217.033-.311.0897-.094.0566-.172.1369-.225.2329-.073.174-.119.3585-.135.5468-.095.4164-.278.8076-.537 1.1468" fill="#000"/><path d="M49.9115 90.7405c.0935 1.0194-.6759 2.0065-.4517 3.0033.0484.2129.1404.4146.1742.6291.092.5919-.2613 1.1533-.5984 1.6484L46.142 100.27c-.1173.186-.2564.358-.4146.511-.5548.484-1.3839.441-2.1113.587-.5106.105-.9925.318-1.413.626-.0193.015-.0321.036-.0357.06-.0037.024.0022.048.0164.068.1203.163.2795.294.4631.38.1837.086.386.125.5885.113.0758.1 0 .247-.1048.323-.1613.108-.3694.135-.4001.4-.0109.091.0078.184.0533.264.1165.179.2982.305.5064.352 1.0017.306 2.0856-.231 2.834-.968.7484-.737 1.2904-1.656 2.0259-2.403.4081-.412.871-.7664 1.2904-1.1664.8387-.7968 1.4887-1.7742 2.1178-2.742.205-.2822.3599-.5976.4581-.9323.0774-.3323.0419-.6823.1322-1.0113.1162-.4291.4323-.7726.6936-1.1291.5145-.7065.8565-1.5727.7888-2.4437-.0678-.871-.6065-1.7323-1.4291-2.0275-.2564-.1033-.5394-.1209-.8065-.05-.3371.1049-.5855.3839-.8162.6452l-.5484.6355c-.1388.1381-.2485.3027-.3226.4839-.0352.0914-.0433.191-.0233.2869.02.0958.0673.1839.1362.2535" fill="#FBBEBE"/><path opacity=".05" d="M49.9115 90.7405c.0935 1.0194-.6759 2.0065-.4517 3.0033.0484.2129.1404.4146.1742.6291.092.5919-.2613 1.1533-.5984 1.6484L46.142 100.27c-.1173.186-.2564.358-.4146.511-.5548.484-1.3839.441-2.1113.587-.5106.105-.9925.318-1.413.626-.0193.015-.0321.036-.0357.06-.0037.024.0022.048.0164.068.1203.163.2795.294.4631.38.1837.086.386.125.5885.113.0758.1 0 .247-.1048.323-.1613.108-.3694.135-.4001.4-.0109.091.0078.184.0533.264.1165.179.2982.305.5064.352 1.0017.306 2.0856-.231 2.834-.968.7484-.737 1.2904-1.656 2.0259-2.403.4081-.412.871-.7664 1.2904-1.1664.8387-.7968 1.4887-1.7742 2.1178-2.742.205-.2822.3599-.5976.4581-.9323.0774-.3323.0419-.6823.1322-1.0113.1162-.4291.4323-.7726.6936-1.1291.5145-.7065.8565-1.5727.7888-2.4437-.0678-.871-.6065-1.7323-1.4291-2.0275-.2564-.1033-.5394-.1209-.8065-.05-.3371.1049-.5855.3839-.8162.6452l-.5484.6355c-.1388.1381-.2485.3027-.3226.4839-.0352.0914-.0433.191-.0233.2869.02.0958.0673.1839.1362.2535" fill="#000"/><path d="M27.8687 95.0713c.1613.5097.3226 1.0194.5178 1.5162.3566.8613.806 1.6813 1.3403 2.4452.3441.5027.7139.9873 1.1081 1.4513.4936.583 1.0452 1.168 1.2194 1.912.1017.429.0678.879.1097 1.318.042.438.1855.904.5404 1.167.2694.167.5745.268.8903.294.2226.035.5016.047.6178-.147.0406-.079.0617-.166.0613-.255l.0548-.645c.0113-.139.0597-.323.1984-.323s.2097.18.3226.262c.0421.022.0883.036.1359.04.0476.005.0956-.001.1409-.016.0454-.015.0871-.04.1227-.071.0356-.032.0644-.071.0844-.115.0722-.18.0768-.38.0129-.564-.0964-.365-.2687-.706-.5058-.999-.2371-.294-.5336-.535-.8701-.706-.2339-.096-.4585-.213-.671-.35-.2158-.187-.3947-.412-.5274-.665-1.2194-2.0077-2.4452-4.0319-3.3066-6.211-.1696-.3904-.2841-.8024-.3403-1.2243-.0175-.4308.0003-.8624.0532-1.2904.0505-.7741-.0214-1.5514-.2129-2.3033-.0419-.1975-.1166-.3867-.221-.5597-.3532-.5387-1.1871-.6177-1.7129-.2468-.1935.1492-.3539.3369-.4711.5512-.1171.2144-.1885.4507-.2096.6941-.0387.4339.2129.8871.3403 1.2903.3947 1.2495.7872 2.4996 1.1775 3.7502z" fill="#A1616A"/><path opacity=".05" d="M27.8687 95.0713c.1613.5097.3226 1.0194.5178 1.5162.3566.8613.806 1.6813 1.3403 2.4452.3441.5027.7139.9873 1.1081 1.4513.4936.583 1.0452 1.168 1.2194 1.912.1017.429.0678.879.1097 1.318.042.438.1855.904.5404 1.167.2694.167.5745.268.8903.294.2226.035.5016.047.6178-.147.0406-.079.0617-.166.0613-.255l.0548-.645c.0113-.139.0597-.323.1984-.323s.2097.18.3226.262c.0421.022.0883.036.1359.04.0476.005.0956-.001.1409-.016.0454-.015.0871-.04.1227-.071.0356-.032.0644-.071.0844-.115.0722-.18.0768-.38.0129-.564-.0964-.365-.2687-.706-.5058-.999-.2371-.294-.5336-.535-.8701-.706-.2339-.096-.4585-.213-.671-.35-.2158-.187-.3947-.412-.5274-.665-1.2194-2.0077-2.4452-4.0319-3.3066-6.211-.1696-.3904-.2841-.8024-.3403-1.2243-.0175-.4308.0003-.8624.0532-1.2904.0505-.7741-.0214-1.5514-.2129-2.3033-.0419-.1975-.1166-.3867-.221-.5597-.3532-.5387-1.1871-.6177-1.7129-.2468-.1935.1492-.3539.3369-.4711.5512-.1171.2144-.1885.4507-.2096.6941-.0387.4339.2129.8871.3403 1.2903.3947 1.2495.7872 2.4996 1.1775 3.7502z" fill="#000"/><path d="M52.3454 114.224c-.6323.385-1.4194.408-2.1549.322-.1177-.014-.2581-.024-.3339.068-.1097.132.0194.323.1533.435.4342.325.9436.534 1.4807.608.4809.068.966.1 1.4516.097 1.321.023 2.6485.044 3.9566-.147.0758-.005.1495-.026.2162-.062.0828-.06.1403-.149.1613-.249.0317-.173.0164-.352-.0443-.518-.0607-.165-.1646-.312-.3009-.424-.275-.219-.5876-.387-.9226-.495l-1.1485-.447c-.2693-.105-.7032-.384-.9952-.361-.5419.035-1.0629.905-1.5194 1.173z" fill="#3F3D56"/><path d="M55.231 116.922c-.529.474-1.2173.731-1.9275.719-.1806 0-.4322.034-.4322.215.0026.054.0205.106.0516.15.2249.374.5798.652.9968.781.3938.093.8008.119 1.2033.075l1.1774-.061c.2226-.011.4468-.022.6678-.05.221-.027.4613-.072.692-.108.5677-.08 1.1417-.107 1.7145-.081.0744.015.1511.012.2244-.007.0732-.02.141-.056.1982-.105.1049-.133.0436-.323.0097-.484-.071-.341 0-.699-.0661-1.042-.1129-.6-.6291-1.062-1.2017-1.279-.529-.202-1.4678-.433-1.9694-.097-.5387.356-.8629.943-1.3388 1.374z" fill="#3F3D56"/><path d="M52.9051 101.686c-.4839.637-.9678 1.373-.8549 2.16.0645.424.3016.798.4758 1.192.2189.54.3811 1.101.4839 1.674.1791.834.3581 1.669.4694 2.515.1236.957.1587 1.923.1048 2.887-.0145.232-.0403.484-.2016.645-.0645.065-.1484.118-.1758.205-.0174.082-.0042.168.0371.242.2955.605.808 1.077 1.4355 1.321.6231.239 1.2844.362 1.9517.364.0886.01.1783-.001.2613-.034.0896-.054.16-.134.2016-.23.4839-.92.2146-2.029.2226-3.065 0-.866.2097-1.724.1726-2.59-.0306-.694-.2161-1.371-.2839-2.063-.1113-1.129.0968-2.274.3049-3.395.1613-.859.3226-1.718.5242-2.568.1025-.524.2899-1.0274.5549-1.4907.2258-.3565.5322-.6549.7903-.9903.7137-.9371 1.0311-2.1169.8839-3.2856-.0161-.1162-1.6613.4161-1.8033.4838-.5931.2493-1.1388.5991-1.6129 1.034-.3807.3613-.6791.8451-1.013 1.2516-.471.5732-.9344 1.1495-1.3903 1.7291-.5205.6641-1.0334 1.3341-1.5388 2.0081z" fill="#464353"/><path opacity=".05" d="M52.9051 101.686c-.4839.637-.9678 1.373-.8549 2.16.0645.424.3016.798.4758 1.192.2189.54.3811 1.101.4839 1.674.1791.834.3581 1.669.4694 2.515.1236.957.1587 1.923.1048 2.887-.0145.232-.0403.484-.2016.645-.0645.065-.1484.118-.1758.205-.0174.082-.0042.168.0371.242.2955.605.808 1.077 1.4355 1.321.6231.239 1.2844.362 1.9517.364.0886.01.1783-.001.2613-.034.0896-.054.16-.134.2016-.23.4839-.92.2146-2.029.2226-3.065 0-.866.2097-1.724.1726-2.59-.0306-.694-.2161-1.371-.2839-2.063-.1113-1.129.0968-2.274.3049-3.395.1613-.859.3226-1.718.5242-2.568.1025-.524.2899-1.0274.5549-1.4907.2258-.3565.5322-.6549.7903-.9903.7137-.9371 1.0311-2.1169.8839-3.2856-.0161-.1162-1.6613.4161-1.8033.4838-.5931.2493-1.1388.5991-1.6129 1.034-.3807.3613-.6791.8451-1.013 1.2516-.471.5732-.9344 1.1495-1.3903 1.7291-.5205.6641-1.0334 1.3341-1.5388 2.0081z" fill="#000"/><path d="M56.3988 96.7859c.1032.4935.5823.871.5952 1.3758.0113.4033-.2758.742-.4839 1.0888-.1955.3586-.3607.7331-.4936 1.1195-.3917 1.004-.8778 1.969-1.4516 2.882-.2759.439-.5855.915-.521 1.429.0432.24.1278.471.25.683l.829 1.646c.1818.329.3236.678.4226 1.041.0726.313.0791.645.121.955.1307 1.009.6033 2.026.3226 3.005-.0242.083-.1129.185-.179.127.2742.511.4951 1.027.4726 1.613-.0097.305-.1033.621.0096.905.0632.106.1059.223.1259.345 0 .082-.0388.161-.0468.244-.0226.232.1903.427.4129.501.2226.074.4645.07.6887.136.4323.129.7388.5 1.1098.758.3745.259.817.404 1.2726.414.0647.007.1299-.006.1871-.037.0325-.028.0586-.063.0767-.102.0181-.039.0277-.082.0281-.125.0199-.207-.0114-.415-.091-.606-.0796-.192-.2051-.361-.3654-.493-.0672-.045-.1225-.106-.1613-.177-.0208-.064-.0264-.132-.0162-.198.0678-.906.0516-1.816-.0484-2.718-.0437-.286-.0578-.576-.0419-.865.0478-.237.071-.479.0694-.721-.0509-.236-.1249-.467-.221-.689-.1274-.411-.0919-.853-.1049-1.29-.0482-.746-.1703-1.486-.3645-2.208-.0426-.291-.1611-.566-.3435-.797-.1726-.181-.4517-.351-.3855-.592.0366-.089.0915-.169.1613-.235.0803-.101.1394-.216.1735-.34.0341-.124.0426-.254.0248-.381.0725.018.1491.011.2168-.021.0676-.032.1222-.086.1542-.154 1.3709-.678 2.4189-1.869 2.9163-3.316.0285-.104.0725-.204.1306-.295.1242-.174.342-.25.5339-.347.6033-.303 1.0194-.8723 1.4017-1.4288.2405-.311.424-.6621.5419-1.0371.0522-.246.0771-.497.0742-.7485l.0339-1.2903c.0066-.0852-.0016-.1709-.0242-.2533-.0329-.0773-.0805-.1474-.1403-.2064-.3682-.3881-.8509-.6481-1.3775-.742-.3532-.0629-.7145-.0516-1.0726-.0806-.6936-.0581-1.3791-.2726-2.0743-.2226-1.0903.0806-2.0614.8371-2.5807 1.8017-.1904.3451-.3807.6355-.7678.6468z" fill="#464353"/><path d="M20.2055 116.54c.2381.082.4911.113.742.089.0177-.205.2935-.25.4984-.241.1018-.005.2032.017.2935.065.0516.032.0903.08.1404.114.0889.049.1888.075.2903.074l1.0678.091c.4758.04.9677.077 1.4162-.094.0893-.026.1686-.079.2274-.151.1209-.173 0-.421-.1613-.547-.1613-.126-.3823-.184-.55-.313-.371-.282-.421-.807-.6178-1.232-.1379-.268-.3092-.517-.5097-.741-.1456-.193-.3153-.366-.5049-.516-.4274-.31-.921-.303-1.4226-.347-.3548-.032-.6887-.053-.9436.262-.3145.39-.1887 1.177-.1693 1.643.0191.619.087 1.236.2032 1.844z" fill="#514E7F"/><path opacity=".05" d="M20.2055 116.54c.2381.082.4911.113.742.089.0177-.205.2935-.25.4984-.241.1018-.005.2032.017.2935.065.0516.032.0903.08.1404.114.0889.049.1888.075.2903.074l1.0678.091c.4758.04.9677.077 1.4162-.094.0893-.026.1686-.079.2274-.151.1209-.173 0-.421-.1613-.547-.1613-.126-.3823-.184-.55-.313-.371-.282-.421-.807-.6178-1.232-.1379-.268-.3092-.517-.5097-.741-.1456-.193-.3153-.366-.5049-.516-.4274-.31-.921-.303-1.4226-.347-.3548-.032-.6887-.053-.9436.262-.3145.39-.1887 1.177-.1693 1.643.0191.619.087 1.236.2032 1.844z" fill="#000"/><path d="M20.6378 95.7842c-.3226.1049-.4677.5113-.4081.85.0597.3388.2629.6291.4307.9275.4742.85.6807 1.8226 1.0791 2.7093.2984.663.7016 1.276.9968 1.936.2951.66.4839 1.415.2984 2.119-.0871.344-.2549.66-.3678.996-.1103.368-.1827.746-.2161 1.129-.1443 1.294-.1702 2.598-.0774 3.897.0015.158.0349.315.0984.461.0661.129.1822.264.1258.398-.0226.054-.071.092-.0952.146-.0677.148.0694.303.1936.408-.0222.039-.0522.074-.0882.102-.0361.028-.0774.048-.1215.059.0898.057.1588.141.1969.241.038.099.0431.208.0144.311-.1113.016-.1178.185-.0468.274.071.088.179.145.229.245.0297.082.0267.173-.0084.254-.0351.08-.0996.144-.1803.178-.1638.064-.343.077-.5145.039-.2917-.04-.5797-.103-.8613-.189-.0951-.023-.1848-.064-.2646-.121-.1421-.138-.2268-.325-.2371-.522-.0659-.535-.0858-1.075-.0597-1.613.0468-2.607 0-5.217-.1129-7.822-.0467-1.048-.3613-2.071-.7677-3.038-.224-.4971-.4738-.9816-.7484-1.4521-.5839-1.0742-1.1033-2.2581-.9678-3.4759.0145-.1307.0629-.2888.1919-.3097.0508-.0057.1021.0027.1484.0242.2699.1269.5312.2713.7823.4322.4132.2434.8792.3828 1.3581.4065z" fill="#464353"/><path opacity=".05" d="M20.6378 95.7842c-.3226.1049-.4677.5113-.4081.85.0597.3388.2629.6291.4307.9275.4742.85.6807 1.8226 1.0791 2.7093.2984.663.7016 1.276.9968 1.936.2951.66.4839 1.415.2984 2.119-.0871.344-.2549.66-.3678.996-.1103.368-.1827.746-.2161 1.129-.1443 1.294-.1702 2.598-.0774 3.897.0015.158.0349.315.0984.461.0661.129.1822.264.1258.398-.0226.054-.071.092-.0952.146-.0677.148.0694.303.1936.408-.0222.039-.0522.074-.0882.102-.0361.028-.0774.048-.1215.059.0898.057.1588.141.1969.241.038.099.0431.208.0144.311-.1113.016-.1178.185-.0468.274.071.088.179.145.229.245.0297.082.0267.173-.0084.254-.0351.08-.0996.144-.1803.178-.1638.064-.343.077-.5145.039-.2917-.04-.5797-.103-.8613-.189-.0951-.023-.1848-.064-.2646-.121-.1421-.138-.2268-.325-.2371-.522-.0659-.535-.0858-1.075-.0597-1.613.0468-2.607 0-5.217-.1129-7.822-.0467-1.048-.3613-2.071-.7677-3.038-.224-.4971-.4738-.9816-.7484-1.4521-.5839-1.0742-1.1033-2.2581-.9678-3.4759.0145-.1307.0629-.2888.1919-.3097.0508-.0057.1021.0027.1484.0242.2699.1269.5312.2713.7823.4322.4132.2434.8792.3828 1.3581.4065z" fill="#000"/><path d="M16.2312 92.6147c-.1702-.1086-.3661-.1703-.5678-.179-.2324.0367-.448.1436-.6178.3065-.2154.1665-.4201.3464-.6129.5387-.4001.4263-.679.9518-.8078 1.5221-.1287.5703-.1027 1.1647.0755 1.7216.1952.579.5484 1.0903.8968 1.5903l.7097 1.0194c1.0823 1.5547 2.1663 3.1097 3.3002 4.6277.001.036.0134.071.0354.1.022.029.0525.05.0872.061.0419.012.0919.01.1177.044.0114.021.0164.045.0145.069-.0039.11-.0252.219-.0629.323-.0185.034-.0231.074-.0129.111.0355.086.192.037.2403.118.0339.051 0 .121-.0516.161-.0516.04-.0968.095-.0887.161.0081.066.1161.128.1113.208 0 .046-.0387.079-.0661.115-.0387.056-.0563.125-.0498.193.0064.068.0366.131.0853.18.0742.742-.3226 1.443-.4081 2.185-.1274 1.166.4 2.305.4645 3.476-.0032.132.0215.263.0726.384.1097.202.3903.323.3807.553-.02.095-.0464.188-.0791.279.0021.134.0161.267.042.399 0 .133-.1129.293-.2371.242.0935.309.1763.622.2484.937l2.4839.205c.0264-.224.0188-.45-.0226-.671-.0516-.239-.1613-.463-.2161-.702-.0366-.117-.0467-.241-.0297-.362.017-.121.0608-.237.1281-.34-.0651.001-.1284-.021-.1786-.062-.0503-.042-.0841-.099-.0956-.164-.0226-.127-.0226-.258 0-.385.0661-.645-.2065-1.29-.1984-1.936.0081-.513.1871-1.004.279-1.508.1936-1.077-.008-2.247.471-3.226.2904-.593.692-1.251.3662-1.826-.1613-.283-.4436-.483-.6275-.745-.1508-.251-.2643-.522-.3371-.806-.3839-1.187-1.0016-2.2825-1.5452-3.4068-.1502-.2822-.2619-.5833-.3323-.8952-.0385-.2734-.052-.5499-.0403-.8258-.0016-.496-.0323-.9915-.0919-1.4839-.0116-.2161-.0734-.4266-.1807-.6146-.1052-.1414-.2366-.2613-.3871-.3532-.8146-.5549-1.7856-.8758-2.6646-1.3388z" fill="#464353"/><path d="M19.2071 117.45c.2381.082.4911.112.7419.088.0194-.205.2936-.25.4984-.24.0993-.003.1977.02.2855.066.0516.032.0903.081.142.115.0888.049.1888.074.2903.074l1.0662.09c.4758.04.9677.077 1.4178-.093.0886-.027.1672-.08.2258-.152.1209-.173 0-.421-.1613-.547-.1613-.126-.3823-.184-.5517-.313-.3693-.282-.4209-.806-.6177-1.232-.1379-.267-.3092-.516-.5097-.74-.145-.193-.3142-.367-.5033-.517-.429-.309-.921-.303-1.4226-.346-.3565-.033-.6903-.054-.9436.261-.3226.39-.1903 1.177-.171 1.644.0233.618.0945 1.234.213 1.842z" fill="#514E7F"/><path d="M45.2612 98.7408H32.6753v12.5862h12.5859V98.7408z" fill="#fff"/><path d="M30.2139 88.3146c1.3585 0 2.4598-1.1013 2.4598-2.4598s-1.1013-2.4597-2.4598-2.4597-2.4597 1.1012-2.4597 2.4597c0 1.3585 1.1012 2.4598 2.4597 2.4598z" fill="#A1616A"/><path d="M27.8946 86.5839c-.3533.3048-.8581.3226-1.3211.3742-.9891.1008-1.9519.3795-2.842.8226-.1213.0535-.2308.1302-.3226.2258-.0778.1046-.1328.2244-.1613.3516-.084.2767-.1158.5666-.0935.8549.0322.2804.1124.5532.2371.8065.3414.7073.8689 1.3083 1.5258 1.7388.1115.0818.2374.1419.371.1774.3226.0678.6371-.121.9549-.2048.2908-.0752.5971-.0652.8823.029.2677.0887.55.2516.8065.1436.1664-.0936.296-.2409.3677-.4178.2514-.4767.4754-.9673.671-1.4694.0705-.1947.1518-.3854.2436-.571.2855-.5436.779-.9678 1.0242-1.5259.0248-.0432.0398-.0913.0437-.141.0039-.0497-.0033-.0996-.0211-.1461-.0455-.0628-.1082-.111-.1807-.1387-.3631-.208-.694-.4677-.9823-.771-.1613-.1613-.4597-.5742-.6919-.6113-.2549-.0339-.3339.321-.5113.4726z" fill="#A1616A"/><path d="M27.9526 91.5824c-.2855.1371-.621.0759-.9307.0113-.7968-.1613-1.6017-.3355-2.3388-.6806-.2306-.0871-.4303-.2403-.5742-.4404-.0911-.1708-.1461-.3586-.1613-.5516l-.1355-.9146c-.0468-.3226.0355-.6161.0419-.9387.0052-.036.0031-.0726-.006-.1078-.0092-.0351-.0252-.0681-.0472-.0971-.045-.0373-.103-.0553-.1613-.05-.3694 0-.592.392-.8516.6549-.1487.1513-.3265.2709-.5226.3516-.2371.0968-.5291.1613-.6243.4017-.0403.0983-.0354.2113-.0758.3097-.1613.3935-.871.2629-1.05.6451-.0516.1097-.0484.2484-.1339.3355-.0855.0871-.2419.0839-.371.1065-.5129.0839-.7629.6774-1.2016.9565-.3694.2355-.8452.2306-1.242.4145-.2066.1237-.4223.2316-.6452.3226-.247.0431-.4984.0556-.7484.0371-.027-.0024-.0542.0006-.0799.0089-.0258.0083-.0496.0218-.0701.0395-.0148.0238-.0245.0504-.0287.0781-.0042.0278-.0026.0561.0045.0832.1219.7769.444 1.5088.9347 2.1234.4908.6145 1.1331 1.0907 1.8638 1.3816.0843.0273.1646.0658.2387.1145.2242.1613.2629.5274.5162.6452.0918.0314.1905.0373.2855.0168.0949-.0205.1824-.0664.2532-.133.1383-.1348.2681-.2781.3887-.429.232-.2413.5359-.4008.8662-.4549.3048-.0484.6452-.0129.8919-.2.101-.0928.1948-.1931.2807-.3.1852-.1717.4053-.3015.6452-.3806.6449-.2491 1.3256-.3929 2.0162-.4259.6452-.0371 1.3145.0226 1.9259-.1887.159-.0481.3055-.1307.429-.2419.132-.1424.2301-.3128.2871-.4984.2224-.6446.2675-1.337.1307-2.005z" fill="#514E7F"/><path d="M24.7815 87.9581c.1822-.0161.3645 0 .5467 0 .2146 0 .4259-.0516.6452-.0532.3392.0055.6676.1193.9375.3247.2699.2055.467.4918.5626.8173.0184.0517.0218.1077.0097.1613-.0072.0265-.0237.0496-.0465.065-.0228.0154-.0504.0221-.0777.0188-.0707-.1943-.1632-.3799-.2759-.5532-.2046-.277-.4949-.4788-.8258-.5742-.3308-.0937-.6794-.1064-1.0162-.0371-.1387.0258-.2758.0629-.4129.1016l-.6694.1806c-.1209.0323-.2419.0662-.3596.1097-.0904.0323-.2468.1613-.3355.1613-.121 0-.0226-.1048.0306-.1758.1067-.1463.2569-.2552.4291-.3113.2752-.1136.5634-.1927.8581-.2355z" fill="#514E7F"/><path d="M26.4396 95.3471c.1613.5097.3226 1.0194.5178 1.5162.3571.8614.8071 1.6813 1.342 2.4452.344.5028.7139.9875 1.1081 1.4515.4936.582 1.0452 1.168 1.2194 1.912.1016.429.0677.879.1097 1.317.0419.439.1855.905.5403 1.168.2695.167.5746.267.8904.294.2226.035.5016.046.6177-.147.0407-.079.0617-.166.0613-.255l.0533-.645c.0129-.139.0613-.323.2-.323.1387 0 .2097.179.3226.262.042.022.0883.036.1359.04.0476.004.0955-.001.1409-.016.0453-.016.0871-.04.1227-.072.0356-.032.0643-.07.0844-.114.0711-.18.0757-.381.0129-.564-.0958-.365-.2676-.706-.5041-1-.2366-.294-.5325-.535-.8686-.707-.2339-.096-.4585-.213-.671-.35-.2162-.186-.3952-.411-.5274-.664-1.221-2.0085-2.4469-4.0327-3.3066-6.2118-.1696-.3904-.2841-.8024-.3403-1.2243-.0175-.4308.0003-.8624.0532-1.2903.0524-.775-.0178-1.5535-.2081-2.3066-.0419-.1976-.1166-.3867-.2209-.5597-.3533-.5387-1.1872-.6177-1.713-.2468-.1935.1492-.3539.3369-.471.5512-.1172.2144-.1886.4507-.2097.6941-.0387.4338.2129.8871.3404 1.2903.3892 1.2528.7785 2.5044 1.1677 3.755z" fill="#A1616A"/><path d="M33.7931 84.116c.0193-.2048-.1613-.3903-.3726-.521-.2197-.1138-.431-.2432-.6323-.3871-.1871-.1613-.2887-.3726-.4758-.5339-.212-.1618-.4529-.2816-.7098-.3532-.5455-.192-1.1185-.295-1.6968-.3048-.5713-.0153-1.135.1336-1.6242.429-.1079.0666-.2016.1537-.2759.2565-.0703.1262-.1157.2647-.1338.408-.1049.4413-.2468.873-.4243 1.2904-.1822.4646-.3774.9452-.8064 1.3033-.4597.3839-1.1646.6049-1.4678 1.0678-.0331.0414-.0563.0898-.0677.1415-.0115.0517-.011.1054.0015.1569.0436.1161.1839.1951.3113.2693.7468.4291 1.3904.9839 1.7227 1.6485.174.3214.2522.686.2253 1.0505-.0269.3645-.1577.7136-.3769 1.006-.1726.2258-.4113.4936-.242.721.2565.3452 1.142.1484 1.3452.5129.0422.1213.0517.2515.0275.3775 0 .3823.3693.7242.8177.9.4738.1608.9708.2426 1.4711.242.1352-.3005.1485-.6416.037-.9517-.0333-.0668-.0462-.142-.037-.2161.035-.0821.0905-.1537.1612-.2081.5404-.5097.4259-1.2597.1017-1.8646-.3242-.6048-.8275-1.1597-1.0146-1.7968-.0935-.3226-.0952-.6726.1613-.9356.1441-.1262.299-.2396.4629-.3387.2909-.1982.5157-.4792.6452-.8065.15-.4193.1274-.9242.5694-1.2016.4419-.2774 1.0145-.1871 1.4807-.3662.3758-.15.7871-.6968.8162-.9952z" fill="#464353"/><path d="M47.5856 87.6678c1.4814 0 2.6823-1.2009 2.6823-2.6824 0-1.4814-1.2009-2.6823-2.6823-2.6823s-2.6824 1.2009-2.6824 2.6823c0 1.4815 1.201 2.6824 2.6824 2.6824z" fill="#FBBEBE"/><path d="M50.0002 84.8725c.2476.3955.5722.7372.9547 1.0046.3824.2674.8147.4551 1.2711.5519l-.2016.7323c-.3484 1.2614-.7419 2.5969-1.7162 3.4711.0424-.2167.04-.4397-.0068-.6555-.0469-.2158-.1373-.4197-.2658-.5994-.2576-.3578-.5637-.6781-.9097-.9516l-1.5436-1.3436c-.0472-.0345-.0868-.0784-.1161-.1291-.0379-.0941-.0379-.1993 0-.2935.1968-.6129.7581-.9952 1.2129-1.4081.2293-.214.4343-.4526.6114-.7114.3161-.4355.5145.0049.7097.3323z" fill="#FBBEBE"/><path d="M50.3421 88.342c.0149.2007-.012.4023-.0791.592-.0374.0925-.1069.1686-.1957.2142-.0888.0456-.1911.0577-.2882.0342.0565-.1275-.0919-.2726-.2306-.2565-.0682.0154-.1317.047-.1851.0922-.0534.0453-.095.1027-.1214.1675-.0931.1853-.1242.3957-.0887.6.0436.2549.1903.4984.1516.7533-.0306.2113-.1871.4226-.1032.621.0538.0895.1212.1701.2.2387.1091.1347.1623.3061.1488.479-.0135.1728-.0927.3339-.2214.45l2.0969.0404c-.0774.35.0806.7081.2597 1.0177.5013.8537 1.1935 1.5796 2.0224 2.1209.8289.5412 1.772.883 2.7552.9986-.0531.0312-.0986.0737-.1332.1246-.0346.0508-.0575.1088-.0671.1695-.0096.0608-.0055.123.0118.182s.0475.1135.0885.1594c.1709.1694.458.1484.671.0387.2018-.1298.3942-.2737.5758-.4306.3423-.2454.7612-.3598 1.1807-.3226.2629.0242.5161.1081.779.1226.7743.0419 1.4404-.5162 2.1808-.7436.5435-.1613 1.1581-.1613 1.6129-.5065.1968-.1451.3581-.3839.3-.6226-.0484-.1362-.1254-.2605-.2258-.3645-.2629-.3403-.4161-.7484-.6048-1.1291-.3719-.7634-.8847-1.4496-1.5114-2.0226-.4716-.4138-.9718-.7938-1.4968-1.1372-.1276-.0937-.2637-.1752-.4065-.2435-.1901-.0619-.3756-.1374-.5548-.2259-.2468-.1613-.3872-.4274-.5759-.6451-.4145-.4839-1.0516-.7049-1.5629-1.0856-.342-.2548-.6452-.5903-1.0533-.7145-.1984-.0597-.4113-.0645-.6097-.1242-.4516-.1371-.7807-.5387-1.2242-.7-.3501-.1291-.7372-.0952-1.1081-.142-.4085-.0507-.799-.1983-1.1388-.4306-.1105-.0909-.2346-.1638-.3678-.2162-.5597-.1613-.6048.8742-.658 1.2355-.0839.5275-.2226 1.0678-.2226 1.6114z" fill="#3F3D56"/><path d="M50.8889 91.8437c.0935 1.0178-.6759 2.005-.4517 3.0034.0484.2129.1387.4145.1726.629.0936.592-.2597 1.1517-.5968 1.6469l-2.9033 4.249c-.1153.187-.2541.359-.4129.511-.5549.492-1.3839.44-2.1114.589-.5112.104-.9937.317-1.4146.625-.0185.015-.0308.036-.0341.06-.0033.023.0026.047.0164.066.12.164.2791.295.4629.381.1837.086.3862.125.5887.113.0759.1 0 .248-.1048.322-.1613.108-.3694.137-.4.4-.0107.092.0073.185.0516.267.1175.178.2996.304.5081.351 1.0016.307 2.0839-.232 2.834-.968.75-.735 1.2903-1.656 2.0258-2.403.4081-.413.871-.766 1.2904-1.166.8371-.8066 1.4888-1.7744 2.1178-2.7422.205-.2827.36-.5986.4581-.9339.0774-.3306.042-.6822.1323-1.0097.1161-.4306.4306-.7742.6936-1.1291.5145-.708.8564-1.5726.7887-2.4452-.0678-.8726-.6081-1.7307-1.4291-2.0275-.2565-.1029-.5395-.1198-.8065-.0484-.3371.1032-.5855.3823-.8161.6452l-.5501.6355c-.1378.1389-.2474.3032-.3225.4839-.0353.0914-.0434.191-.0234.2868.0201.0959.0674.1839.1363.2535" fill="#FBBEBE"/><path d="M52.3535 87.6613c-.3807.0226-.8065.0597-1.0694.3226-.1124.1248-.2029.2677-.2678.4226-.2613.5307-.5161 1.0872-.5339 1.6791-.0161.4726.121.9355.1936 1.4033.0597.3887-.0919.7855-.121 1.1791.5261-.1431 1.0363-.3393 1.5227-.5855.2813-.1834.5801-.3384.8919-.463.4533-.1516 1.2178.1081 1.6469.3226.0242-.3032-.2033-.8306-.1791-1.129.003-.1281.0259-.2548.0678-.3758.064-.128.1402-.2495.2274-.363.1649-.2674.2409-.5803.2168-.8936-.0241-.3133-.1468-.6109-.3507-.85-.3823-.4306-.9823-.5919-1.5549-.6597-.3608-.0414-.7243-.0538-1.0871-.0371" fill="#3F3D56"/><path d="M44.0515 82.2885l-.0612-.5048c.4242.108.8258-.25 1.0968-.6226.2709-.3726.521-.8065.9323-.9678.5016-.1887 1.0323.1129 1.5113.3613.5352.3022 1.1242.4972 1.7339.5742.0973.0042.1936.0199.2871.0468.3114.1113.4597.5016.5049.8565.0452.3548.0323.7322.1855 1.0484.1177.2387.3226.4177.4387.6452.3226.6339.0113 1.5016.3581 2.1242l-.8597-.7871c-.079-.0726-.1903-.1484-.2758-.0871-.0855.0613-.0742.1613-.1033.2371-.0244.0557-.0599.1058-.1042.1474-.0444.0416-.0967.0738-.1538.0946-.0572.0208-.1179.0298-.1786.0265-.0607-.0034-.1202-.019-.1747-.0459-.2173-.1238-.4041-.2946-.5468-.5-.3573-.4573-.8276-.8136-1.3645-1.0339-.2328-.0899-.4821-.1287-.7311-.114-.2491.0148-.492.0828-.7125.1995-.4017.2274-.6952.7548-1.1872.7726-.6742.0258-.9548-1.2291-1.2661-1.7243.1138-.0862.1938-.2095.2263-.3486.0324-.139.0151-.2851-.0489-.4127.0468-.0161.4839-.0629.4935.0145z" fill="#464353"/><path d="M104.734 50.368c-.267.1181-.551.1958-.842.2307.306-.1824.535-.4688.646-.8065-.289.1709-.604.2914-.933.3564-.2-.2157-.461-.366-.748-.4311-.288-.0651-.588-.0421-.862.0661s-.509.2965-.674.5403c-.166.2438-.254.5318-.253.8264-.001.1129.012.2255.037.3355-.583-.029-1.154-.1807-1.6749-.4453-.5208-.2646-.98-.6361-1.3475-1.0902-.1874.3235-.2446.7063-.1601 1.0705.0844.3642.3043.6827.6149.8908-.2337-.0059-.4625-.069-.6661-.1839v.0178c-.0001.3391.1171.6677.3317.9302.2146.2626.5134.4428.8457.5102-.1262.0337-.2563.051-.3871.0516-.0926-.0002-.185-.0094-.2758-.0275.0942.2914.2769.5462.5226.7289.2457.1827.5423.2843.8484.2905-.5196.4085-1.1616.6301-1.8226.6291-.117-.0005-.2338-.0075-.35-.021.6682.4341 1.4483.6644 2.2452.6629 2.7016 0 4.1776-2.2371 4.1776-4.1791v-.1887c.286-.2096.532-.4685.727-.7646zM99.4036 81.9482l.4839 1.2145 3.1595 3.3502 1.058-.9968.667.7048.704-.6661.041-1.3694.88-.8323.071-2.3985-2.827-2.9969-4.2374 3.9905zm6.3714-.671l-.041 1.371-1.058.9968-.04 1.371-.664-.7048-.883.8323-2.834-2.9985 3.35-3.1598 2.17 2.292z" fill="#00BAFC"/><path d="M103.202 80.6772l.529-.4984 1.342 1.421-.529.4968-1.342-1.4194zm-1.234 1.1646l.529-.5 1.341 1.4226-.529.4984-1.341-1.421zM40.9337 101.13h-5.1744c-.0856 0-.1676.034-.2281.094-.0605.061-.0945.143-.0945.228v5.176c0 .086.034.168.0945.228.0605.061.1425.095.2281.095H38.34v-2.305h-.6952v-.849h.7081v-.627c0-.75.521-1.16 1.192-1.16.3226 0 .6678.024.7468.036v.784h-.5339c-.3645 0-.4355.172-.4355.427v.54h.8694l-.1129.849h-.7581v2.303h1.613c.0855 0 .1676-.034.2281-.094.0605-.061.0945-.143.0945-.228v-5.175c0-.085-.034-.167-.0945-.228-.0605-.06-.1426-.094-.2281-.094zM86.174 64.1928c.3211.0008.6287.1287.8557.3557.2269.227.3548.5346.3557.8556v2.4194c-.0009.321-.1288.6286-.3557.8556-.227.227-.5346.3549-.8557.3558h-2.4194c-.3211-.0006-.629-.1282-.8565-.3549-.1132-.112-.203-.2454-.2642-.3924-.0612-.1471-.0925-.3048-.0922-.4641v-2.4194c.0008-.3213.1289-.6292.3563-.8562.2273-.227.5353-.3547.8566-.3551h2.4194zm0-.4839h-2.4194c-.4496.0012-.8805.1804-1.1984.4984-.318.3179-.4972.7488-.4984 1.1984v2.4194c.0012.4497.1804.8805.4984 1.1985.3179.3179.7488.4971 1.1984.4984h2.4194c.4486-.0013.8785-.1796 1.1962-.4961.3178-.3166.4977-.7458.5007-1.1943v-2.4194c0-.4507-.1786-.8829-.4966-1.2022-.318-.3192-.7496-.4994-1.2003-.5011z" fill="#00BAFC"/><path d="M86.537 65.4073c-.0722.0003-.1429-.0208-.2031-.0608-.0602-.0399-.1072-.0968-.135-.1635-.0278-.0666-.0351-.1401-.0211-.2109.014-.0709.0487-.136.0998-.1871.0511-.0511.1162-.0858.1871-.0998.0708-.014.1443-.0067.2109.0211.0667.0278.1236.0748.1635.135.04.0602.0611.1309.0608.2031.0002.0477-.009.095-.0272.1391-.0181.0442-.0449.0842-.0786.118-.0338.0337-.0738.0605-.118.0786-.0441.0182-.0914.0274-.1391.0272zm-1.5694.2371c.1914 0 .3785.0568.5377.1631.1591.1064.2831.2575.3564.4343.0732.1769.0924.3715.0551.5592-.0374.1877-.1295.3602-.2649.4955-.1353.1354-.3078.2275-.4955.2649-.1877.0373-.3823.0181-.5592-.0551-.1768-.0733-.3279-.1973-.4343-.3564-.1063-.1592-.1631-.3463-.1631-.5377 0-.2567.102-.5028.2835-.6843s.4276-.2835.6843-.2835zm0-.4839c-.2871 0-.5678.0852-.8065.2447-.2387.1595-.4248.3862-.5347.6515-.1098.2652-.1386.5571-.0826.8387.056.2816.1943.5402.3973.7433.203.203.4617.3412.7433.3973.2816.056.5735.0272.8387-.0827.2653-.1098.492-.2959.6515-.5346.1595-.2387.2446-.5194.2446-.8065 0-.385-.1529-.7543-.4251-1.0265-.2723-.2722-.6415-.4252-1.0265-.4252zM161.049 91.1098c0-.6806-.501-1.229-1.129-1.229-.84-.0404-1.695-.0549-2.569-.0549h-.273c-.872 0-1.73.0145-2.569.0549-.618 0-1.12.55-1.12 1.2323-.038.5403-.054 1.079-.053 1.6129.002.5339.015 1.0791.052 1.613 0 .6823.502 1.2355 1.119 1.2355.881.0404 1.786.0581 2.705.0581.92 0 1.823-.0161 2.707-.0581.619 0 1.129-.5532 1.129-1.2355.035-.5403.053-1.0791.051-1.621-.001-.542-.014-1.0775-.05-1.613v.0048zm-4.569 3.1082v-2.9775l2.197 1.4871-2.197 1.4904zM80.9352 34.0303c-.783-.007-1.5443.2575-2.1542.7484-.61.491-1.0311 1.1781-1.1915 1.9445-.1605.7665-.0505 1.5648.3113 2.2592.3618.6944.953 1.2421 1.673 1.5498-.0144-.2611.0051-.523.0581-.7791.0661-.2758.4371-1.8501.4371-1.8501-.0744-.1686-.1118-.3512-.1097-.5355 0-.5032.292-.879.6549-.879.3097 0 .4581.2322.4581.5097 0 .3097-.1984.7742-.3 1.2032-.0204.0797-.0217.163-.0039.2433.0178.0803.0542.1552.1064.2188.0521.0636.1184.1141.1937.1473.0752.0332.1572.0482.2393.0439.6451 0 1.0758-.8258 1.0758-1.8049 0-.7436-.5016-1.2984-1.4113-1.2984-.2176-.0079-.4346.0284-.6378.1066-.2032.0783-.3884.1969-.5446.3487-.1561.1517-.2799.3335-.3639.5344-.084.2009-.1264.4168-.1248.6345-.0106.2422.0694.4797.2242.6662.0276.0218.0472.0521.056.0862.0087.0341.006.07-.0076.1025-.0161.0629-.0532.2129-.0693.2726-.003.0184-.0103.0359-.0214.0509-.011.0151-.0255.0273-.0422.0356-.0167.0084-.0352.0126-.0538.0124-.0187-.0001-.0371-.0048-.0536-.0135-.4742-.1935-.6952-.7129-.6952-1.2903 0-.9678.8065-2.1195 2.4195-2.1195 1.2903 0 2.1484.9372 2.1484 1.9437 0 1.3307-.7403 2.3259-1.8323 2.3259-.1623.0046-.3232-.0317-.4678-.1056-.1446-.0738-.2682-.1828-.3597-.317 0 0-.1984.7806-.2403.9323-.0778.2575-.1925.5026-.3403.7274.3143.0921.6402.1388.9678.1387.9009.0002 1.765-.3575 2.4022-.9943.6372-.6369.9952-1.5009.9955-2.4018.0002-.9009-.3575-1.765-.9944-2.4022-.6369-.6372-1.5008-.9953-2.4017-.9955z" fill="#00BAFC"/><path d="M116.457 127.989c-.13-.554-.209-1.038-.209-1.038.011-.365-.072-.728-.241-1.053v-1.264c.077-.202.171-.397.281-.583.2-.348 0-1.629 0-1.629s-.742-1.805-.563-2.95c.179-1.145-1.522-5.085-1.522-5.085.01-.382.064-.761.161-1.13.018-.077.025-.156.021-.235.001-.01.001-.019 0-.029v.01c-.026-.755-.623-2.171-.623-2.171l.081-2.697s.381-1.592-.24-3.728c-.218-.745-.357-1.34-.446-1.802-.009-.051-.019-.101-.027-.15 1.279-.195 2.258-.358 2.258-.358s-.742-3.1046-1.244-3.6482c-.501-.5435-.901-2.2501-.901-2.2501s-.261-2.1936.161-2.8339c.423-.6404.484-1.7469.484-1.7469s.968-.6984 1.082-1.0097c.171-.442.28-.9056.323-1.3775 0-.3693-.121-.6984-.081-.8935.041-.1952-.28-.9307-.119-1.2807.041-.1076.063-.2219.063-.3372.001-.0031.001-.0064 0-.0096 0-.3058-.028-.611-.086-.9113-.277-.2351-.602-.4088-.951-.5097l-.021-.0823-.055-.2178c-.03-.0211-.062-.04-.095-.0564v-.4032l.15-.7098c.296-1.2306-1.349-1.4145-1.349-1.4145-.099-.1894-.265-.3353-.466-.4097-.322-.1161-.055 1.8549.1 1.9807.116.0936.484.7129.645 1.0162l.029.05c-.027.0242-.052.0506-.075.079l.062.4274.01.0662c-.109.1351-.198.2857-.263.4468 0 0 .302.3306.241.7-.024.2882.01.5782.1.8533-.018-.021-.23-.2501-.441-.1936-.211.0564-.806.2323-.806.2323s-.442.0774-.402.1742c.04.0967-.3.5242-.3.5242l-1.185-1.1291c-.013-.0339-.025-.0677-.036-.1016-.048-.1579-.082-.3198-.102-.4839.129-.0308.255-.0712.378-.121.123-.0432.233-.1151.322-.2097.1-.1548.165-.3291.191-.5113.093-.3451.295-.6532.44-.9807.24-.5502.319-1.1567.229-1.75-.018-.184-.08-.3609-.18-.5162-.194-.2661-.546-.3742-.807-.5871-.261-.2129-.419-.5355-.718-.6952-.283-.1235-.599-.1507-.9-.0774-.593.0966-1.162.3034-1.679.6097-.174.1032-.363.221-.563.1855-.164-.0502-.307-.1548-.405-.2968v-.0177l-.014-.0145c-.125.279-.187.5816-.184.8871v.1903c.001.014.001.028 0 .0419-.001.0213-.004.0424-.01.063-.024.061-.062.116-.109.1613-.038.0402-.07.0846-.097.1322 0-.0161.01-.0323.016-.0484-.076.1098-.119.2391-.124.3726-.007.0977.026.1939.09.2678.059.0598.123.1139.192.1613-.023.1299-.034.2616-.034.3935.002.3946.106.782.302 1.1247.195.3428.476.6293.814.8319l.041.1016c.171.4073.245.8494.214 1.2903 0 .0323 0 .0629-.014.0952l-.042.0484s-1.958.0193-2.42-.3984c-.461-.4178-1.163 1.0194-1.163 1.0194s-.701.1371-.842 0c-.14-.1371-.967-.0194-.967-.0194-.337-.2978-.774-.4569-1.223-.4451-.274-.2089-.577-.3773-.8985-.5001l-.0225-.008c-.1414-.0512-.2924-.0699-.442-.0549 0 0-.9678-.7968-1.242-1.2226-.2742-.4258-1.6129-2.0114-1.6242-2.0194v-.0758l-.0162-.2307c-.0395.0064-.0793.0102-.1193.0113 0-.0242-.0161-.05-.0274-.0807-.0771-.2223-.172-.4381-.2839-.6451 0 0 0-.2904.0855-.363.0855-.0725-.0355-1.1403-.0355-1.1403s-.8678-2.0275-1.6436-.5145c0 0-1.4694.979-.2371 2.121 0 0 .4839.2371.5613.4258.0468.1226.2129.4662.3226.6936l.05.1016-.0145.0113.0193.1903v.0742c-.2323.1307-.3887.2613-.3516.3613.069.168.1162.3442.1403.5242 0 0 1.7049 2.134 1.9259 3.0469 0 0 4.5714 2.7163 6.0744 2.9114l-.26 1.3581c-.039.3676-.059.7369-.059 1.1065.019.2904-.181 1.613-.181 1.613s-.261 1.9355-.484 2.2114c-.222.2758-.181 1.4371-.181 1.4371-.052.5571-.152 1.1082-.3 1.6482-.221.739-.059 1.65-.059 1.65s-.763 1.747 1.063.563c0 0 .895-.055 1.935-.09v.531c-.013 1-.019 2.379.026 3.422.081 1.844.645 5.484.645 5.484v1.833c-.035.172-.052.348-.051.524-.014.646.157 1.283.493 1.835l.141 1.223s.322.807.335 1.29c-.001.04-.006.078-.014.117-.013.061-.018.124-.017.187-.017.555.323 1.884.323 1.884s.021 1.338.221 1.416c.171.066-.229.772-.348.968-.004-.013-.007-.026-.009-.039-.014.026-.024.04-.024.04-.041.108-.063.223-.063.339-.011.091.003.184.043.268.039.083.102.154.18.203.381.234.585.427.263.505-.119.018-.237.043-.353.074 0-.015-.013-.031-.018-.045-.042.019-.077.051-.1.091-.023.041-.032.087-.026.133.004.159.045.314.121.453.141.35.323.683.542.991l.161-.018c-.023.057-.053.111-.09.161-.058.084-.135.153-.226.2-.084.05-.177.082-.274.095-.109.003-.216.029-.314.077-.098.047-.184.115-.254.199-.2.258-.322.611.07.921l1.433.494s2.467.322 2.336-.233c-.131-.554-.21-1.037-.21-1.037.01-.338-.059-.675-.201-.982-.025-.051-.054-.099-.087-.145l.087-.01s.18-1.222.421-1.451c.056-.054.069-.096.055-.128.025-.066-.038-.105-.118-.127l-.018.048c-.078-.016-.158-.025-.239-.026 0 0-.08-.645.179-.874.022-.026.037-.057.046-.09.009-.033.011-.067.006-.1.001-.088-.008-.176-.027-.262l-.01.017c-.148-.518-.341-1.021-.576-1.505 0 0-.019-.583.14-.817.16-.233-.019-3.163-.019-3.163s.06-1.416-.121-2.075c-.181-.66.221-1.438.221-1.438V114.448s-.01-.087-.024-.224v.014c-.04-.376-.116-1.055-.173-1.368-.08-.446.02-2.58.02-2.58l.361-.912.645 1.571.681 2.097c.194.26.314.568.347.89v.067c-.004.046-.004.093 0 .14-.012.265.061.526.208.747 0 0 .18.99.461 1.242.281.251.281.737.281.737s.34 1.437.501 1.689c.136.213.142.796.141.967v.054s.046.513.045.945v.161-.011c-.001.117-.015.234-.042.348V120.971c-.072.292-.107.593-.103.895-.01.516.069 1.129.382 1.485.542.621.882.544.882.544s-.261.776-.582.932c-.012.006-.023.013-.034.021 0-.014 0-.03-.008-.045-.035.039-.061.085-.077.135s-.022.103-.017.155c.015.415.153.815.397 1.15.076.076.169.132.271.162l-.05.03c-.036.02-.073.038-.111.054-.051.022-.106.036-.161.041-.109.003-.216.03-.314.077-.098.048-.185.116-.254.199-.2.258-.323.612.069.921l1.434.494s2.436.329 2.311-.232z" fill="url(#paint0_linear)"/><path d="M107.038 128.905l-1.389-.494c-.382-.309-.26-.663-.066-.921.066-.083.149-.15.244-.198.094-.048.198-.074.304-.078.095-.012.185-.045.266-.095.088-.048.164-.117.22-.2.103-.16.158-.346.161-.537 0 0 1.524-.445 1.936 0 .074.081.137.172.185.271.137.309.203.645.194.982 0 0 .077.484.203 1.038.126.553-2.258.232-2.258.232zM113.83 128.227l-1.387-.493c-.384-.31-.262-.663-.068-.92.066-.083.149-.151.244-.199.095-.048.2-.075.306-.078.056-.005.11-.019.161-.042.037-.015.073-.033.107-.053.389-.213.379-.737.379-.737s1.522-.447 1.935 0c.056.06.105.127.146.198.163.327.244.689.233 1.055 0 0 .078.484.204 1.037.126.553-2.26.232-2.26.232z" fill="#2D293D"/><path opacity=".1" d="M108.715 126.382c.075.081.137.172.186.271l-2.284.265c.103-.161.158-.347.161-.538 0 0 1.521-.443 1.937.002zM115.654 125.897v.427c-.355.586-2.072.458-2.571.161.037-.015.072-.033.107-.053.388-.213.379-.737.379-.737s1.522-.447 1.935 0c.058.061.108.129.15.202z" fill="#000"/><path d="M115.927 124.053c-.107.186-.198.381-.273.582v1.534c-.387.645-2.406.428-2.677.078-.271-.35-.563-1.262-.253-1.417.309-.154.562-.932.562-.932s-.322.078-.853-.543c-.53-.621-.368-1.999-.271-2.33.097-.33 0-1.435 0-1.435s.02-.776-.135-1.029c-.155-.253-.484-1.689-.484-1.689s0-.484-.271-.737-.447-1.242-.447-1.242c-.159-.247-.227-.542-.194-.834.059-.484-.33-1.01-.33-1.01l-.66-2.096-.621-1.573-.348.911s-.099 2.136-.02 2.581c.079.445.194 1.629.194 1.629s-.389.777-.213 1.437c.176.66.116 2.076.116 2.076s.174 2.931.02 3.165c-.155.234-.136.806-.136.806s.795 1.708.542 1.936c-.253.227-.174.874-.174.874s.543 0 .311.232c-.232.233-.408 1.452-.408 1.452l-2.35.297c-.212-.31-.389-.642-.526-.991-.31-.717.058-.645.371-.717.313-.073.115-.271-.255-.505-.369-.234-.161-.757-.161-.757s.563-.951.369-1.029c-.193-.077-.214-1.416-.214-1.416s-.387-1.592-.291-2.018c.097-.426-.311-1.452-.311-1.452l-.135-1.222c-.414-.696-.563-1.517-.42-2.313v-1.889s-.543-3.648-.622-5.484c-.049-1.181-.036-2.792-.02-3.799.01-.562.02-.937.02-.937l8.387-.872c.014.419.065.835.153 1.245.086.46.22 1.056.429 1.802.602 2.134.234 3.726.234 3.726l-.077 2.696s.737 1.805.582 2.42c-.096.369-.15.748-.161 1.129 0 0 1.65 3.94 1.476 5.086-.175 1.145.545 2.942.545 2.942s.193 1.29 0 1.632z" fill="#464353"/><path opacity=".05" d="M111.133 113.943l2.545-.34s-1.438 1.474-2.545.34z" fill="#000"/><path opacity=".1" d="M113.315 111.109s.089.902-.464 1.242c0 0 .989-.155.464-1.242zM113.159 108.236s-2.132 1.757-2.903 1.613c-.771-.143 2.903-1.613 2.903-1.613zM107.968 114.767s-1.613.37-1.667 1.02c-.055.65 1.667-1.02 1.667-1.02z" fill="#000"/><path opacity=".05" d="M108.325 122.859s-2.289.428-1.639.72c.558.22 1.132.395 1.718.522 0 0 .737.039-.079-1.242z" fill="#000"/><g opacity=".05" fill="#000"><path opacity=".05" d="M106.223 124.034c-.057-.036-.106-.085-.143-.143-.036-.057-.059-.122-.066-.19l-.023.042s-.215.523.161.757c.042.026.083.053.12.079.067-.013.142-.023.211-.04.306-.071.11-.267-.26-.505zM109.173 123.885c.063-.058.06-.208.023-.4-.094.173-.139.367-.131.563.023-.062.06-.117.108-.163zM108.82 114.23c-.086.229-.14.469-.161.713.044-.166.103-.328.177-.484 0 0 .003-.093-.016-.229zM114.064 113.211c.015-.07.022-.142.021-.213-.029.145-.049.28-.063.398.013-.061.026-.122.042-.185zM108.765 121.13c.045-.139.065-.284.058-.43-.072.172-.11.356-.111.543.013-.039.031-.077.053-.113zM109.246 124.789c-.12.389-.209.788-.266 1.191l-2.347.273c-.213-.309-.389-.641-.526-.99-.025-.056-.047-.113-.066-.171-.14.064-.197.209-.011.645.136.349.312.681.525.989l2.346-.273s.175-1.223.408-1.452c.114-.124.042-.182-.063-.212zM106.146 121.303s.019 1.34.213 1.418c.098-.221.161-.431.075-.466-.193-.078-.212-1.417-.212-1.417s-.389-1.592-.291-2.019c.099-.427-.311-1.452-.311-1.452l-.136-1.222c-.415-.694-.566-1.514-.427-2.31v-1.886s-.544-3.648-.621-5.492c-.05-1.18-.035-2.792-.019-3.798v-.484h-.066s-.01.372-.02.937c-.016 1.005-.03 2.618.02 3.798.077 1.844.621 5.493.621 5.493v1.882c-.143.804.013 1.632.437 2.329l.135 1.223s.408 1.027.31 1.451c-.099.425.292 2.015.292 2.015zM113.054 125.729c-.191-.276-.317-.591-.371-.923-.24.216.036 1.057.294 1.389.258.332 2.29.563 2.679-.079v-.369c-.526.521-2.344.313-2.602-.018zM116.004 123.535c-.106.187-.197.381-.271.583v.272c.044-.1.107-.232.194-.389.062-.153.091-.318.085-.483l-.008.017zM113.173 123.842c.075-.15.139-.304.192-.462 0 0-.322.078-.854-.543-.381-.452-.402-1.305-.349-1.863-.097.331-.253 1.708.271 2.329.344.408.6.513.74.539zM112.162 119.538c.034.383.047.767.039 1.15.013-.075.027-.137.039-.18.098-.323 0-1.436 0-1.436s.019-.777-.136-1.029c-.155-.252-.484-1.689-.484-1.689s0-.484-.271-.737-.447-1.242-.447-1.242c-.159-.247-.228-.542-.195-.834.06-.484-.322-1.009-.322-1.009l-.66-2.097-.629-1.563-.35.911s0 .115-.011.295l.283-.74.621 1.571.66 2.097s.387.524.323 1.008c-.029.29.042.582.201.826 0 0 .175.989.446 1.242s.272.737.272.737.323 1.435.484 1.689c.161.253.137 1.03.137 1.03z"/></g><path d="M113.791 83.8306l-.145.7097.008.3226v.2322l-.806.0839-.091-.1613c-.161-.3032-.516-.921-.629-1.0162-.15-.1258-.416-2.0968-.097-1.9791.196.0752.357.2207.452.4081 0 0 1.595.1677 1.308 1.4001z" fill="#FFCDD3"/><path opacity=".1" d="M113.661 85.087l-.807.0839-.09-.1613c.109-.1242.257-.2067.42-.2335.163-.0267.33.0039.473.0867l.004.2242z" fill="#000"/><path d="M113.864 85.4709l-1.066.2484-.023-.1613-.061-.4274c.058-.0777.131-.143.215-.1922.083-.0492.176-.0814.272-.0946.096-.0132.194-.0072.288.0177.094.0248.182.0681.259.1271l.053.2178.063.2645z" fill="#DCE6F2"/><path d="M96.5665 83.908l-1.1388.6129-.1032-.2161c-.1097-.2274-.271-.5694-.3226-.692-.0678-.1887-.5436-.4274-.5436-.4274-1.1936-1.1404.2274-2.1194.2274-2.1194.7533-1.5146 1.592.5129 1.592.5129s.1162 1.0694.0339 1.1403c-.0823.071-.0823.3646-.0823.3646.1089.2074.2011.4232.2759.6452.0435.1129.0613.179.0613.179z" fill="#FFCDD3"/><path opacity=".1" d="M96.5664 83.908l-1.1387.6129-.1033-.2161c.1613-.1339.7307-.5968.9178-.5759.0901.0092.1809.0092.271 0 .0355.1129.0532.1791.0532.1791z" fill="#000"/><path d="M96.6825 84.2531l-1.2807.6307-.0258-.2758-.0177-.1887s.7419-.6371.9678-.6129c.1112.0158.2242.0158.3355 0l.0145.2306.0064.2161z" fill="#DCE6F2"/><path d="M110.686 88.5372s-5.585.6306-4.542.2919c.728-.2371 1.016-.6984 1.078-1.2113.028-.4403-.043-.8812-.208-1.2904-.133-.3525-.3-.6908-.5-1.0097 0 0 4.269-2.3485 3.416-.2129-.133.3224-.215.6637-.242 1.0113-.026.3446.01.6911.108 1.0226.162.5394.47 1.0235.89 1.3985z" fill="#FFCDD3"/><path opacity=".1" d="M109.93 85.1032c-.133.3224-.215.6636-.242 1.0113-.403.3371-.844.3226-1.41.3226-.435 0-.918.1064-1.264-.1033-.133-.3525-.3-.6907-.5-1.0097 0 0 4.269-2.3565 3.416-.2209z" fill="#000"/><path d="M108.202 86.579c1.276 0 2.31-1.0341 2.31-2.3098 0-1.2756-1.034-2.3097-2.31-2.3097-1.275 0-2.309 1.0341-2.309 2.3097 0 1.2757 1.034 2.3098 2.309 2.3098z" fill="#FFCDD3"/><path opacity=".1" d="M110.686 88.5372s-5.585.6306-4.542.2919c.728-.2371 1.016-.6984 1.078-1.2113.277-.3017.835-.5194 1.195-.6339.327-.1101.681-.1157 1.011-.0162.13.0352.254.0895.368.1613.16.543.469 1.0305.89 1.4082zM113.864 85.4709l-1.066.2484-.023-.1613c.114-.1571.274-.2753.457-.3382.184-.063.383-.0676.569-.0134l.063.2645zM96.6825 84.2531l-1.2807.6307-.0258-.2758c.4153-.2223.8466-.4132 1.2904-.571l.0161.2161zM112.896 102.612c-2.163.34-5.242.785-5.731.637-.405-.124-1.698-.111-2.826-.073.01-.563.02-.937.02-.937l8.387-.872c.012.418.063.835.15 1.245z" fill="#000"/><path d="M115.053 102.097s-7.123 1.223-7.888.989c-.764-.234-4.689.021-4.689.021-1.766 1.182-1.027-.563-1.027-.563s-.161-.913.058-1.65c.142-.541.239-1.0929.29-1.65 0 0-.038-1.1645.174-1.4355.213-.271.467-2.213.467-2.213s.195-1.3194.175-1.613c-.019-.2935.058-1.1048.058-1.1048l.252-1.3598c-1.452-.1935-5.8808-2.9114-5.8808-2.9114-.2129-.9113-1.863-3.0469-1.863-3.0469-.0238-.1795-.0693-.3555-.1354-.5242-.1162-.3097 1.6307-.9306 1.6307-.9306s1.3 1.5919 1.571 2.0178c.271.4258 1.2033 1.2226 1.2033 1.2226.1449-.0145.2912.0048.4274.0565h.0226c.3122.1229.6042.2908.8682.4984.437-.0109.862.1494 1.183.4467 0 0 .797-.1161.933.0194.135.1355.806 0 .806 0s.681-1.4355 1.129-1.0194c.449.4162 2.341.3984 2.341.3984.253-.3355.866-.5758 1.251-.7.328-.1101.681-.1157 1.012-.0161.144.0401.279.1057.4.1935l1.148 1.1291s.323-.4274.292-.5242c-.031-.0968.389-.1742.389-.1742s.563-.1742.776-.2339c.213-.0597.409.1742.425.1936-.086-.2757-.119-.5653-.096-.8533.017-.2543-.066-.5053-.233-.6984.686-1.6581 2.22-.2549 2.22-.2549s.174.9114.019 1.2614c-.155.35.162 1.0871.116 1.2807-.045.1935.078.5242.078.8919-.041.4715-.146.9353-.31 1.3791-.118.3097-1.048 1.0081-1.048 1.0081s-.058 1.1065-.466 1.7469c-.409.6403-.162 2.8339-.162 2.8339s.387 1.7082.873 2.2582c.485.55 1.21 3.6304 1.21 3.6304z" fill="#3F3D56"/><path opacity=".1" d="M104.67 89.334s-.213-.6452-.408-.7001c-.193-.0711-.381-.1552-.563-.2516l.126-.2387s.729.2.845.4129c.116.2129 0 .7775 0 .7775zM100.775 87.9162c-.039.1951-1.765.3693-1.765.3693l.8727-.8758.0225.0081c.3128.1228.6058.2907.8698.4984z" fill="#000"/><path d="M95.7712 85.408c.0855 0 .1548-.0693.1548-.1548 0-.0856-.0693-.1549-.1548-.1549-.0855 0-.1548.0693-.1548.1549 0 .0855.0693.1548.1548.1548zM95.9696 85.7193c.0855 0 .1549-.0693.1549-.1548 0-.0855-.0694-.1549-.1549-.1549s-.1548.0694-.1548.1549.0693.1548.1548.1548zM96.1648 86.0048c.0855 0 .1548-.0693.1548-.1548 0-.0855-.0693-.1549-.1548-.1549-.0855 0-.1549.0694-.1549.1549s.0694.1548.1549.1548zM96.368 86.3161c.0855 0 .1549-.0693.1549-.1548 0-.0855-.0694-.1549-.1549-.1549s-.1548.0694-.1548.1549.0693.1548.1548.1548zM114.662 86.2693c.07 0 .126-.0563.126-.1258 0-.0695-.056-.1258-.126-.1258-.069 0-.126.0563-.126.1258 0 .0695.057.1258.126.1258zM114.682 86.5565c.069 0 .125-.0564.125-.1259 0-.0694-.056-.1258-.125-.1258-.07 0-.126.0564-.126.1258 0 .0695.056.1259.126.1259zM114.698 86.8419c.069 0 .126-.0563.126-.1258 0-.0694-.057-.1258-.126-.1258-.07 0-.126.0564-.126.1258 0 .0695.056.1258.126.1258z" fill="#575988"/><path opacity=".1" d="M104.68 94.5922c-.018-.0225 4.355 5.5018 7.753 2.3098 0 0-5.368.7274-7.753-2.3098zM102.167 97.4649s2.617.071 2.892.8242v.7839c-.074.0408-.158.0622-.242.0622-.085 0-.168-.0214-.242-.0622-.265-.1419-1.847-.9468-2.405-.5597l-.003-1.0484z" fill="#000"/><path d="M102.215 97.4649s2.503.0677 2.766.7855v.7484c-.071.0393-.151.0599-.233.0599-.081 0-.162-.0206-.233-.0599-.253-.1371-1.774-.9032-2.3-.5339v-1z" fill="#3F3D56"/><path opacity=".1" d="M103.596 91.7744c.267.6186.608 1.2029 1.014 1.7404.443.5952.98 1.1139 1.591 1.5355 0 0-2.562-2.9098-2.605-3.2759zM102.739 88.7388s.437 1.8855 1.562 2.5259l-1.562-2.5259zM102.065 88.9291c-.011-.0355-.389 1.4904 1.452 2.3356 0 0-.778-.2646-1.452-2.3356zM113.501 87.6646c-.029 0 .906.5968 1.161.8726 0 0-.608-.9114-1.161-.8726z" fill="#000"/><path d="M107.578 86.3613c.018.1232.082.235.179.3129.068.0322.143.0487.218.0484.705.0436 1.437.0742 2.097-.1968.123-.0423.234-.115.322-.2113.093-.1551.152-.3284.171-.5081.092-.3451.287-.6451.428-.9806.235-.5553.314-1.1645.227-1.7614-.017-.1834-.078-.3602-.176-.5161-.187-.2662-.527-.3742-.774-.5872-.247-.2129-.406-.5371-.693-.6967-.274-.1219-.581-.1491-.871-.0775-.576.0987-1.128.3062-1.626.6113-.162.1033-.352.221-.544.1855-.165-.0527-.306-.161-.4-.3064-.137.3162-.196.6609-.172 1.0048.007.0503.007.1014 0 .1517-.025.0605-.062.1153-.109.1613-.174.2016-.282.5209-.111.7242.076.0887.19.1371.263.2274.131.1613.086.3952.082.6033-.006.0721.012.1442.052.2048.038.0348.084.0593.134.0712.05.0118.102.0106.151-.0035.099-.0294.202-.0393.304-.029.108.0363.201.1078.264.2032.32.413.447.8662.584 1.3646z" fill="#2D293D"/><path opacity=".1" d="M110.452 86.137c-.087.0964-.199.1685-.322.2097-.645.2726-1.384.2404-2.087.1968-.076.0014-.15-.0152-.218-.0484-.098-.0767-.163-.1881-.181-.3113-.137-.4984-.263-.9532-.589-1.3661-.062-.0959-.155-.1676-.264-.2033-.102-.0103-.205-.0004-.303.0291-.05.0141-.102.0152-.152.0034-.05-.0119-.096-.0364-.134-.0712-.04-.0604-.057-.1328-.05-.2048 0-.2081.047-.442-.084-.6033-.072-.0903-.187-.1387-.263-.2274-.048-.0663-.078-.1445-.085-.2263-.008-.0818.007-.1641.042-.2382-.124.1967-.178.4484-.034.6193.076.0887.19.1371.263.2275.131.1613.085.3951.082.6032-.006.0721.012.1443.052.2049.038.0349.084.0595.134.0713.05.0119.102.0107.151-.0036.098-.0295.202-.0394.304-.029.108.0362.201.1078.264.2032.323.4145.452.8678.589 1.3662.018.1232.082.235.179.3129.068.0321.142.0487.218.0484.704.0435 1.437.0742 2.096-.1968.124-.0428.235-.1154.323-.2113.044-.0561.078-.1194.1-.1871-.01.0113-.016.0242-.031.0322zM107.165 87.7613s2.886.3823 3.145-.0516l-3.145.0516zM112.775 86.5677s1.602 0 1.955.6033l-1.955-.6033z" fill="#000"/></g><defs><linearGradient id="paint0_linear" x1="105.043" y1="128.998" x2="105.043" y2="80.503" gradientUnits="userSpaceOnUse"><stop stop-color="gray" stop-opacity=".25"/><stop offset=".54" stop-color="gray" stop-opacity=".12"/><stop offset="1" stop-color="gray" stop-opacity=".1"/></linearGradient><clipPath id="clip0"><path fill="#fff" transform="translate(.57251)" d="M0 0h176.855v130H0z"/></clipPath></defs></svg>